<svg width="37" height="37" viewBox="0 0 37 37" fill="none" xmlns="http://www.w3.org/2000/svg">
<g clip-path="url(#clip0_4_2)">
<path d="M32 37H5C2.25 37 0 34.75 0 32V5C0 2.25 2.25 0 5 0H32C34.75 0 37 2.25 37 5V32C37 34.75 34.75 37 32 37Z" fill="url(#paint0_linear_4_2)"/>
<path d="M37 5V32C37 34.75 34.75 37 32 37H5C2.25 37 0 34.75 0 32V5C0 2.25 2.25 0 5 0H32C34.75 0 37 2.25 37 5Z" fill="url(#paint1_linear_4_2)"/>
<path d="M12.4216 25.34C12.275 25.34 12.1483 25.2867 12.0416 25.18C11.935 25.0733 11.8816 24.9467 11.8816 24.8V21.58H8.78164C8.63497 21.58 8.50831 21.5267 8.40164 21.42C8.29497 21.3133 8.24164 21.1867 8.24164 21.04V18.86C8.24164 18.7133 8.29497 18.5867 8.40164 18.48C8.50831 18.3733 8.63497 18.32 8.78164 18.32H11.8816V15.2C11.8816 15.0533 11.935 14.9267 12.0416 14.82C12.1483 14.7133 12.275 14.66 12.4216 14.66H14.8616C15.0083 14.66 15.135 14.7133 15.2416 14.82C15.3483 14.9267 15.4016 15.0533 15.4016 15.2V18.32H18.4616C18.6083 18.32 18.735 18.3733 18.8416 18.48C18.9483 18.5867 19.0016 18.7133 19.0016 18.86V21.04C19.0016 21.1867 18.9483 21.3133 18.8416 21.42C18.735 21.5267 18.6083 21.58 18.4616 21.58H15.4016V24.8C15.4016 24.9467 15.3483 25.0733 15.2416 25.18C15.135 25.2867 15.0083 25.34 14.8616 25.34H12.4216ZM24.7455 26C24.5989 26 24.4722 25.9467 24.3655 25.84C24.2589 25.7333 24.2055 25.6067 24.2055 25.46V17.38L21.9655 19.1C21.8322 19.1933 21.6989 19.2267 21.5655 19.2C21.4322 19.16 21.3122 19.0733 21.2055 18.94L19.4455 16.66C19.3789 16.5267 19.3589 16.3867 19.3855 16.24C19.4122 16.08 19.4922 15.96 19.6255 15.88L24.4455 12.14C24.5122 12.0867 24.5789 12.0533 24.6455 12.04C24.7122 12.0133 24.7922 12 24.8855 12H28.6655C28.8122 12 28.9389 12.0533 29.0455 12.16C29.1522 12.2667 29.2055 12.3933 29.2055 12.54V25.46C29.2055 25.6067 29.1522 25.7333 29.0455 25.84C28.9389 25.9467 28.8122 26 28.6655 26H24.7455Z" fill="white"/>
</g>
<defs>
<linearGradient id="paint0_linear_4_2" x1="18.5" y1="3.1667" x2="18.5" y2="33.0197" gradientUnits="userSpaceOnUse">
<stop stop-color="#333333" stop-opacity="0.2"/>
<stop offset="1" stop-opacity="0.2"/>
</linearGradient>
<linearGradient id="paint1_linear_4_2" x1="18.5" y1="33.8333" x2="18.5" y2="3.9803" gradientUnits="userSpaceOnUse">
<stop stop-color="#333333" stop-opacity="0.2"/>
<stop offset="1" stop-opacity="0.2"/>
</linearGradient>
<clipPath id="clip0_4_2">
<rect width="37" height="37" fill="white"/>
</clipPath>
</defs>
</svg>
