<svg version="1.1" xmlns="http://www.w3.org/2000/svg" xmlns:xlink="http://www.w3.org/1999/xlink" width="37" height="37"><defs><linearGradient x1="240" y1="164.6667" x2="240" y2="194.5197" gradientUnits="userSpaceOnUse" id="color-1"><stop offset="0" stop-color="#333333" stop-opacity="0.2"/><stop offset="1" stop-color="#000000" stop-opacity="0.2"/></linearGradient></defs><g transform="translate(-221.5,-161.5)"><g data-paper-data="{&quot;isPaintingLayer&quot;:true}" fill="none" fill-rule="nonzero" stroke="none" stroke-width="1" stroke-linecap="butt" stroke-linejoin="miter" stroke-miterlimit="10" stroke-dasharray="" stroke-dashoffset="0" font-family="none" font-weight="none" font-size="none" text-anchor="none" style="mix-blend-mode: normal"><g data-paper-data="{&quot;origPos&quot;:null}" fill="url(#color-1)"><path d="M253.5,198.5h-27c-2.75,0 -5,-2.25 -5,-5v-27c0,-2.75 2.25,-5 5,-5h27c2.75,0 5,2.25 5,5v27c0,2.75 -2.25,5 -5,5z" data-paper-data="{&quot;origPos&quot;:null}" id="XMLID_1_"/><path d="M253.5,198.5h-27c-2.75,0 -5,-2.25 -5,-5v-27c0,-2.75 2.25,-5 5,-5h27c2.75,0 5,2.25 5,5v27c0,2.75 -2.25,5 -5,5z" data-paper-data="{&quot;origPos&quot;:null}" id="XMLID_1_"/></g><path d="M251.897,177.376c0.01,-0.002 0.021,-0.003 0.032,-0.002c-0.007,0.009 -0.014,0.019 -0.022,0.028c-0.004,-0.008 -0.007,-0.017 -0.01,-0.026z" id="XMLID_366_" fill="#9dd46e"/><g data-paper-data="{&quot;origPos&quot;:null}"><path d="M254.95201,189.45746c-0.41967,0.00531 -0.84026,-0.0252 -1.25993,-0.02653c-0.10218,0 -0.13411,-0.05571 -0.13138,-0.18702c0.02646,-0.92316 0.05292,-1.84633 0.08029,-2.76816c0.00274,-0.09285 -0.02007,-0.13529 -0.08393,-0.15519c-0.25089,-0.07826 -0.50087,-0.16182 -0.74994,-0.24803c-0.07755,-0.02653 -0.10218,0.00796 -0.10492,0.12203c-0.02919,1.01601 -0.06113,2.03202 -0.09306,3.04803c-0.1405,0.13529 -0.32388,0.13396 -0.39595,-0.00133c0.02646,-1.05713 0.052,-2.11558 0.08211,-3.17271c0.00365,-0.13131 -0.0447,-0.15519 -0.11222,-0.17376c-0.21713,-0.05969 -0.43792,-0.10478 -0.6514,-0.18702c-0.14506,-0.05571 -0.17517,0.00398 -0.18155,0.20426c-0.03467,1.10886 -0.07755,2.21639 -0.11769,3.32524c-0.29651,0.03449 -0.5921,0.0703 -0.88861,0.10081c-0.05748,0.00531 -0.13411,0.05571 -0.15053,-0.09019c0.00365,-0.03316 0.01004,-0.06632 0.01095,-0.09948c0.04105,-4.00435 0.22626,-8.00737 0.11952,-12.01438c-0.00639,-0.2361 0.04835,-0.5478 -0.03467,-0.68972c-0.09671,-0.1658 -0.31658,-0.04377 -0.48171,-0.03714c-0.57659,0.0252 -1.1541,0.06632 -1.73069,0.10081c-0.10492,0.00265 -0.20892,0.00398 -0.31384,0.00663c-0.03467,0.00133 -0.07025,0.00265 -0.10492,0.00398c-2.04727,0.10346 -4.09545,0.21089 -6.14272,0.30639c-0.17426,0.00796 -0.21713,0.07693 -0.21622,0.33027c0.00821,2.27475 0.00274,4.54949 0.0073,6.82291c0,0.20426 -0.01825,0.30374 -0.18247,0.30374c-0.29103,0 -0.58298,0.03979 -0.87401,0.06101c-0.05383,0.00398 -0.12225,0.03979 -0.13411,-0.09152c-0.0073,-1.18844 -0.01095,-2.37688 -0.02463,-3.56399c-0.00274,-0.22416 0.03741,-0.23875 0.16422,-0.15651c0.20892,0.13529 0.42332,0.25201 0.63589,0.37669c-0.19615,-0.37139 -0.4142,-0.68839 -0.63133,-1.00672c-0.04197,-0.06234 -0.09215,-0.06101 -0.14506,-0.05836c-0.39139,0.02122 -0.78187,0.04642 -1.17326,0.05571c-0.10948,0.00265 -0.13776,0.05836 -0.13867,0.20824c-0.00639,0.56902 -0.0219,1.13671 -0.03193,1.70573c-0.01368,0.8144 -0.02463,1.6288 -0.03741,2.44187c-0.00365,0.12203 -0.04014,0.1711 -0.12955,0.15253c-0.13502,-0.02785 -0.27187,-0.03847 -0.40872,-0.05703c0.00274,-0.85419 0.00365,-1.70838 0.0073,-2.56257c0.00365,-0.77859 0.01004,-1.55585 0.0146,-2.33311c0.02098,-0.10744 -0.03011,-0.10346 -0.07664,-0.10346c-0.11952,-0.00133 -0.23903,-0.00133 -0.35763,-0.00133c-0.00365,-0.09285 -0.01095,-0.18569 -0.01095,-0.27854c0.00182,-1.18844 0.00456,-2.37688 0.00547,-3.56532c0,-0.36476 -0.00456,-0.72818 -0.0073,-1.09294c0.0073,-0.79716 0.02098,-1.59431 0,-2.39279c-0.25819,-0.12335 -0.52915,-0.13927 -0.79555,-0.19365c-0.26458,-0.05836 -0.53006,-0.11672 -0.79646,-0.17508c0.00182,-0.06234 0.03102,-0.07693 0.06478,-0.08621c0.5255,-0.15784 1.05101,-0.3117 1.57468,-0.47617c0.08576,-0.02653 0.15692,-0.01592 0.23538,0.03183c1.3612,0.82501 2.7224,1.64869 4.08542,2.46442c0.1113,0.06632 0.14506,0.14723 0.14415,0.31701c-0.00639,0.76267 0.00547,1.52667 -0.0073,2.28934c-0.00456,0.24273 0.05018,0.29578 0.19615,0.25599c0.07937,-0.02122 0.16422,0.00928 0.23903,-0.05306c0.12773,0.04112 0.25545,-0.01194 0.38318,0c0.12864,0.01326 0.16696,-0.05836 0.16604,-0.24803c-0.0073,-0.89133 -0.0219,-1.78266 0.00456,-2.67134c0.01368,-0.43638 -0.15418,-0.67646 -0.34212,-0.99479c-0.02281,0.43505 -0.04197,0.82236 -0.06478,1.20701c-0.05018,0.83562 -0.06842,1.6739 -0.14232,2.50686c-0.0219,-1.39933 -0.04197,-2.79867 -0.0666,-4.19668c-0.00274,-0.14192 0.03467,-0.191 0.11769,-0.25997c0.31658,-0.2613 0.59849,-0.01592 0.88861,0.09948c0.08393,0.03316 0.04927,0.15917 0.05109,0.24405c0.03011,1.18711 0.05656,2.37423 0.08485,3.56134c0.00182,0.06765 0.01004,0.13396 0.0146,0.20161c-0.01916,0.48546 -0.01916,0.48546 0.30654,0.46025c0.04014,-0.00265 0.07937,-0.01326 0.11952,-0.0199c0.13959,-0.00796 0.28009,-0.03051 0.41876,-0.02122c0.14141,0.00928 0.18703,-0.05306 0.18338,-0.26926c-0.01551,-0.8648 -0.03193,-1.73226 -0.01551,-2.59706c0.0073,-0.41383 -0.17243,-0.64462 -0.31019,-1.00805c-0.0146,0.13662 -0.02281,0.19365 -0.02646,0.25201c-0.06204,0.96295 -0.12316,1.92591 -0.18885,2.88886c-0.00456,0.06234 0.04197,0.18171 -0.06021,0.18569c0.00274,-1.21231 0.00821,-2.42595 0.00365,-3.63827c-0.00091,-0.19896 0.05109,-0.25334 0.17152,-0.32762c0.28373,-0.17508 0.53371,-0.0252 0.79464,0.08754c0.09944,0.04377 0.07846,0.14723 0.07937,0.24273c0.01368,1.00938 0.02555,2.01875 0.03923,3.02813c0.00091,0.09285 0.01004,0.18437 0.01551,0.27721c-0.00274,0.09285 -0.00912,0.18569 -0.0073,0.27721c0.01004,0.61942 0.01277,0.62207 0.44339,0.48148c0.13959,0.03449 0.27917,-0.01724 0.41785,-0.00531c0.14689,0.01326 0.19889,-0.05703 0.19798,-0.28517c-0.00365,-0.79716 -0.0146,-1.59564 0.02463,-2.38882c0.02555,-0.51862 -0.16604,-0.86878 -0.32661,-1.26404c-0.0593,0.573 -0.09671,1.14467 -0.14506,1.71369c-0.05656,0.66187 -0.06934,1.33301 -0.17152,1.98692c-0.00365,-0.20559 -0.00639,-0.41251 -0.01004,-0.61809c0.00274,-1.07702 0.01004,-2.15537 0.00456,-3.2324c-0.00091,-0.22283 0.052,-0.32098 0.18064,-0.44566c0.33209,-0.32364 0.62586,-0.03979 0.9324,0.05438c0.08302,0.0252 0.04927,0.13927 0.05018,0.21487c0.01004,0.91653 0.01642,1.83306 0.02555,2.74959c0.00091,0.08489 0.00639,0.16845 0.01004,0.25334c-0.00091,0.34751 0.00091,0.69502 -0.00456,1.04121c-0.00274,0.13662 0.04197,0.14855 0.11769,0.1406c0.2737,-0.0252 0.5474,-0.04244 0.8211,-0.06632c0.7618,-0.06765 1.5245,-0.13529 2.2863,-0.20426c0.23264,0.02255 0.47532,-0.08621 0.69246,0.11937c0.14141,0.15386 0.30746,0.24008 0.46255,0.3568c0.16604,0.12601 0.16787,0.12203 0.16696,-0.15784c-0.00639,-2.74031 -0.02098,-5.48061 -0.01277,-8.22225c0.00091,-0.4523 -0.20984,-0.62207 -0.38227,-0.94173c-0.00639,0.10213 -0.00912,0.13529 -0.01004,0.16712c-0.02919,1.38209 -0.04927,2.76551 -0.0885,4.14627c-0.03102,1.09957 -0.01368,2.2018 -0.09579,3.29739c-0.00821,0.10346 -0.02737,0.22151 0.03376,0.31435c-0.0219,-0.00133 -0.04288,-0.00265 -0.06478,-0.00398c-0.02555,-2.65542 -0.04744,-5.31216 -0.08302,-7.96758c-0.00456,-0.36476 0.02919,-0.66717 0.23812,-0.88868c0.07937,-0.08356 0.1113,-0.31303 0.23903,-0.23875c0.18338,0.10744 0.4069,0.05836 0.53463,0.39659c0.16878,0.44699 0.23264,0.89531 0.23629,1.40199c0.02098,2.92733 0.0593,5.85465 0.09215,8.78198c0.00091,0.0504 0.00547,0.10081 0.00912,0.15121c0.00912,0.13794 -0.06386,0.30772 0.0666,0.40057c0.14962,0.10611 0.30107,0.20692 0.4516,0.31037c0.19341,0.14723 0.38683,0.29446 0.60852,0.46423c0,-0.13794 0,-0.22018 0,-0.30242c0.00912,-2.86897 0.00821,-5.73793 0.03649,-8.60557c0.00456,-0.49076 -0.20984,-0.67646 -0.40416,-1.0107c-0.052,2.96447 -0.10218,5.85598 -0.14962,8.57374c-0.03741,-0.20559 0.00365,-0.59157 -0.04379,-0.96959c0.00182,-0.09285 0.00639,-0.18569 0.00456,-0.27854c-0.03923,-2.53737 -0.07664,-5.07342 -0.12043,-7.61079c-0.00547,-0.32629 0.15875,-0.51331 0.24998,-0.76134c0.02372,-0.06367 0.07299,-0.01724 0.11222,-0.01592c0.31475,0.01592 0.53189,0.21222 0.6879,0.63401c0.1113,0.30109 0.18155,0.57698 0.18064,0.92449c-0.00821,2.85968 -0.00456,5.71936 -0.00456,8.58037c0,0.09285 0.00456,0.18569 0.0073,0.27854c-0.00091,0.00796 -0.00365,0.01724 -0.00365,0.0252c-0.00091,0.29711 -0.0593,0.63136 0.01551,0.87939c0.07664,0.25599 0.33574,0.29446 0.51182,0.43505c0.17882,0.14192 0.3622,0.27456 0.54831,0.39659c0.09853,0.06499 0.13411,0.14988 0.13502,0.30772c0.00091,0.72951 0.01642,1.45902 0.01551,2.18853c0,0.19763 0.03649,0.2918 0.17061,0.36608M251.86468,180.2842c0.0219,-0.42312 0.04379,-0.81175 0.06113,-1.20038c0.02828,-0.60483 0.02737,-0.60483 -0.34304,-0.86745c-0.00547,-0.00398 -0.01004,-0.00796 -0.01551,-0.01194c-0.06295,-0.06234 -0.10127,-0.0504 -0.12408,0.06632c-0.09215,0.46423 -0.18612,0.92847 -0.28282,1.39005c-0.02281,0.11009 -0.00821,0.16712 0.06842,0.21355c0.20527,0.12468 0.40599,0.2613 0.63589,0.40985zM252.73322,179.96587c0.00821,0 0.01551,0 0.02372,0c0.00365,-0.10213 0.00821,-0.20294 0.01095,-0.30507c0.01733,-0.55443 0.01642,-0.55178 -0.33391,-0.78257c-0.07299,-0.04775 -0.09944,-0.03316 -0.12773,0.07162c-0.11404,0.41781 -0.23082,0.83297 -0.35125,1.2468c-0.02555,0.08887 -0.02098,0.13794 0.04288,0.17774c0.2144,0.13396 0.42788,0.27058 0.63863,0.41383c0.09215,0.06234 0.09671,-0.01326 0.09579,-0.11009c0.00091,-0.23742 0.00091,-0.47485 0.00091,-0.71227zM254.42924,181.17951c0.01186,-0.46689 0.00182,-0.90592 -0.39413,-1.0505c-0.00547,-0.00265 -0.01095,-0.00663 -0.01551,-0.01194c-0.06569,-0.06897 -0.09853,-0.03714 -0.12499,0.06765c-0.09123,0.3568 -0.18429,0.71359 -0.28282,1.06641c-0.03193,0.11407 -0.01368,0.16182 0.06204,0.20824c0.2144,0.13131 0.42697,0.27058 0.63863,0.41383c0.08941,0.06101 0.12499,0.04908 0.1186,-0.11009c-0.0073,-0.19365 -0.00182,-0.38863 -0.00182,-0.58361zM253.52695,181.36122c0,-0.46689 -0.02463,-0.87541 0.00821,-1.27598c0.02646,-0.32231 -0.08029,-0.43373 -0.24542,-0.54116c-0.06934,-0.0451 -0.09032,-0.01592 -0.11404,0.06897c-0.10583,0.38465 -0.21349,0.76798 -0.32388,1.14997c-0.02737,0.0955 -0.02098,0.15253 0.05109,0.1963c0.19159,0.11805 0.38044,0.24405 0.62403,0.40189z" data-paper-data="{&quot;origPos&quot;:null}" id="XMLID_404_" fill="#39494e"/><path d="M230.94311,186.18793c-0.65597,0.0252 -1.31193,0.04908 -1.9679,0.07693c-0.07299,0.00265 -0.12681,-0.01061 -0.13411,-0.13396c0.04653,-1.07039 0.03558,-2.14343 0.04927,-3.21648c0.03102,-0.14723 0.00639,-0.21355 -0.11313,-0.21089c-0.49083,0.00796 -0.98076,0.00796 -1.47159,0c-0.1113,-0.00265 -0.13229,0.07162 -0.15145,0.20426c-0.13959,0.99611 -0.28465,1.9909 -0.44795,2.98569c-0.00365,-0.08489 -0.00912,-0.16978 -0.00912,-0.25467c-0.00091,-1.11151 0.00365,-2.22434 -0.00365,-3.33585c-0.00182,-0.20426 0.04197,-0.25201 0.17426,-0.25864c0.2737,-0.01326 0.54649,-0.05703 0.81927,-0.08754c0.07572,-0.00133 0.15236,-0.01326 0.22626,0c0.18155,0.03316 0.21805,-0.08621 0.21987,-0.3316c0.01277,-1.37413 0.02919,-2.74827 0.06478,-4.12107c0.00912,-0.35547 -0.15236,-0.48015 -0.29742,-0.72951c-0.05109,1.43382 -0.10036,2.79734 -0.14871,4.15954c-0.04014,-0.00663 -0.04927,-0.05836 -0.0666,-0.09683c-0.00639,-0.71359 0.00182,-1.42851 -0.03649,-2.14078c-0.00456,-0.64197 -0.01095,-1.28527 -0.01095,-1.92723c0,-0.11142 -0.052,-0.26395 0.03193,-0.32894c0.11952,-0.09285 0.23447,-0.22681 0.38318,-0.21089c0.01733,0.00133 0.03376,0.00928 0.05109,0.01459c0.18703,0.05969 0.43244,0.03449 0.54557,0.20028c0.11678,0.1711 0.02555,0.53055 0.02919,0.80644c0.00547,0.48148 0.00182,0.96295 0.00182,1.44576c-0.00639,0.94969 -0.01368,1.89938 -0.02007,2.8504c-0.00182,0.32231 -0.00182,0.31833 0.22443,0.31966c0.06934,0 0.13867,0.02122 0.20619,0.04377c0.55196,0.18039 1.1021,0.37139 1.65588,0.53851c0.13502,0.04112 0.16057,0.12468 0.16148,0.30374c0.00365,0.63666 0.01825,1.272 0.02919,1.90734c-0.02737,0.508 0.01551,1.01734 0.00547,1.52799z" data-paper-data="{&quot;origPos&quot;:null}" id="XMLID_401_" fill="#39494e"/><path d="M233.22667,174.41761c-0.01916,1.1261 -0.03832,2.25087 -0.05748,3.3783c-0.07846,-0.00398 -0.05109,-0.08621 -0.05109,-0.12999c-0.03102,-1.68053 -0.0593,-3.35973 -0.0885,-5.04026c-0.00182,-0.12468 0.21713,-0.56371 0.29468,-0.59024c0.0146,-0.00531 0.03376,0.00133 0.04744,0.01061c0.02098,0.01459 0.04014,0.03581 0.0593,0.05438c0.19068,0.18039 0.43701,0.30639 0.55561,0.55841c0.1186,0.25467 0.03832,0.64064 0.04105,0.96826c0.01733,1.58768 0.02919,3.17403 0.0447,4.76172c0.00091,0.08356 0.00912,0.16712 0.0146,0.25201c-0.00091,0.21885 0,0.43903 -0.00456,0.65789c-0.00182,0.10611 0.03193,0.12468 0.09579,0.12203c0.51273,-0.0252 1.02455,-0.04908 1.53728,-0.06765c0.07937,-0.00265 0.09762,-0.05173 0.09762,-0.15519c-0.00091,-0.30374 0.00274,-0.60881 0.00456,-0.91255c0.04562,-0.60748 0.03102,-1.21762 0.0447,-1.82643c0.03011,-1.29588 0.04927,-2.59175 0.07299,-3.88763c0.01825,-0.00265 0.03741,-0.00398 0.05565,-0.00663c0.02463,0.29446 0.04835,0.58759 0.07299,0.88204c0.02098,0.27721 0.04105,0.55575 0.06386,0.83297c0.14324,1.72695 0.28647,3.4539 0.42971,5.18085c-0.00274,0.04908 -0.00547,0.09948 -0.00821,0.14855c-0.1113,0.08887 -0.22261,-0.00531 -0.333,0.00265c-0.35672,0.02785 -0.71344,0.0703 -1.07016,0.10744c-0.04653,0.00133 -0.09306,0.00133 -0.13959,0.00531c-1.28639,0.11274 -2.57186,0.22814 -3.85825,0.3369c-0.0885,0.00796 -0.09762,0.0504 -0.10583,0.16182c-0.04197,0.59555 -0.09306,1.18844 -0.1405,1.78266c-0.07299,-0.72686 -0.11495,-1.45239 -0.17334,-2.17659c-0.01733,-0.21885 0.04014,-0.24936 0.16604,-0.25599c0.30837,-0.01857 0.61765,0.00531 0.92419,-0.05571c0.06386,0.00265 0.12773,-0.00398 0.19068,0.00796c0.16239,0.03051 0.21349,-0.0504 0.2144,-0.30242c0.00547,-1.83306 0.01551,-3.66612 0.04562,-5.49786c0.00639,-0.38996 -0.0739,-0.66452 -0.27552,-0.89c-0.01733,-0.05306 -0.03649,-0.10478 -0.09853,-0.1207c-0.03649,1.85561 -0.0739,3.70591 -0.1113,5.5907c-0.06842,-0.11142 -0.04835,-0.20692 -0.04927,-0.29313c-0.03284,-1.74685 -0.06113,-3.49369 -0.09671,-5.24054c-0.00639,-0.3316 0.18612,-0.46689 0.29195,-0.68707c0.02555,-0.05306 0.07572,0.00265 0.11222,0.02387c0.16239,0.09417 0.32205,0.20028 0.48718,0.28119c0.10857,0.05306 0.1332,0.14325 0.1332,0.29976c-0.00365,1.89275 -0.00182,3.78417 -0.00182,5.67559c0,0.09285 0.00547,0.18569 0.00821,0.27854c-0.00274,0.08356 -0.00821,0.1658 -0.00821,0.24936c-0.00091,0.64993 -0.00091,0.64993 0.44978,0.56371c0.11039,0 0.2217,-0.01061 0.33118,0.00398c0.14324,0.0199 0.1852,-0.05306 0.18247,-0.2666c-0.02007,-1.90601 -0.04197,-3.81202 -0.03832,-5.71804c0.00091,-0.39261 -0.11587,-0.57963 -0.35946,-0.75736c0,0.58891 0,1.14467 0,1.6991z" data-paper-data="{&quot;origPos&quot;:null}" id="XMLID_400_" fill="#39494e"/><path d="M236.55759,179.46052c-0.14324,-1.72695 -0.28738,-3.4539 -0.42971,-5.18085c-0.02281,-0.27721 -0.04288,-0.55443 -0.06386,-0.83297c0.06295,-0.382 0.04105,-0.77195 0.00821,-1.14997c-0.02281,-0.25599 0.04014,-0.31435 0.1852,-0.32629c0.23082,-0.01724 0.46164,-0.04377 0.69246,-0.05571c0.08211,-0.00398 0.04744,-0.0451 0.02372,-0.09152c0.2664,0.05438 0.53736,0.0703 0.79555,0.19365c-0.04835,0.08091 -0.02737,0.17774 -0.02737,0.26793c-0.00091,0.54116 -0.00091,1.08233 0.00456,1.62482c0.00182,0.16712 -0.02646,0.33823 0.02281,0.50005c0.00274,0.36476 0.0073,0.72818 0.0073,1.09294c-0.00091,1.18844 -0.00456,2.37688 -0.00547,3.56532c0,0.09285 0.0073,0.18569 0.01095,0.27854c-0.40781,0.03847 -0.81654,0.0756 -1.22435,0.11407zM237.1424,173.26498c0,-0.17774 -0.00274,-0.3568 0.00091,-0.53453c0.00274,-0.10876 -0.02555,-0.15121 -0.10127,-0.14855c-0.16331,0.00531 -0.32753,0.00928 -0.48992,-0.00133c-0.10309,-0.00663 -0.11587,0.06234 -0.10401,0.18569c0.01733,0.18437 0.02646,0.37139 0.04105,0.55708c0.04105,0.53719 0.04105,0.53984 0.40781,0.57034c0.29103,0.02387 0.24086,0.06632 0.24633,-0.32231c0.00091,-0.10346 -0.00091,-0.20426 -0.00091,-0.30639z" data-paper-data="{&quot;origPos&quot;:null}" id="XMLID_395_" fill="#728287"/><path d="M252.71497,175.36067c0.04744,0.37935 0.00639,0.764 0.04379,0.96959c0.04744,-2.71776 0.09762,-5.6106 0.14962,-8.57374c0.19341,0.33425 0.40872,0.51862 0.40416,1.0107c-0.02919,2.86764 -0.02737,5.73661 -0.03649,8.60557c0,0.08224 0,0.1658 0,0.30242c-0.22078,-0.16845 -0.41511,-0.31568 -0.60852,-0.46423c-0.00091,-0.18702 -0.00091,-0.37271 -0.00182,-0.55973c0.00274,-0.34353 0.00456,-0.68839 0.00821,-1.03193c0.00091,-0.08887 -0.0146,-0.18569 0.04105,-0.25864z" data-paper-data="{&quot;origPos&quot;:null}" id="XMLID_387_" fill="#757061"/><path d="M250.94687,174.86725c-0.06113,-0.09285 -0.04105,-0.21089 -0.03376,-0.31435c0.08211,-1.09692 0.06478,-2.19914 0.09579,-3.29739c0.03923,-1.38209 0.06021,-2.76418 0.0885,-4.14627c0.00091,-0.03183 0.00365,-0.06499 0.01004,-0.16712c0.17243,0.31966 0.38318,0.49076 0.38227,0.94173c-0.00821,2.74031 0.00639,5.48061 0.01277,8.22225c0.00091,0.27987 -0.00091,0.28385 -0.16696,0.15784c-0.1551,-0.11672 -0.32023,-0.20426 -0.46255,-0.3568c0.00091,-0.0199 0.00182,-0.03979 0.00274,-0.05969c0.08941,-0.31833 0.07846,-0.64993 0.07116,-0.9802z" data-paper-data="{&quot;origPos&quot;:null}" id="XMLID_386_" fill="#757061"/><path d="M233.22667,174.41761c0,-0.55575 0,-1.11018 0,-1.69777c0.24359,0.17774 0.36037,0.36476 0.35946,0.75736c-0.00365,1.90601 0.01825,3.81202 0.03832,5.71804c0.00274,0.21355 -0.03923,0.2865 -0.18247,0.2666c-0.10948,-0.01459 -0.22078,-0.00398 -0.33118,-0.00398c0.00182,-0.08489 0.00456,-0.16978 0.00639,-0.25467c0.12864,-0.18039 0.04653,-0.40587 0.06113,-0.61014c0.00456,-0.11009 0.00912,-0.22018 0.01368,-0.33027c0.16696,-1.27996 0.14415,-2.56125 0.03467,-3.84518z" data-paper-data="{&quot;origPos&quot;:null}" id="XMLID_383_" fill="#757061"/><path d="M231.81895,179.51755c0,-0.27589 -0.00091,-0.55045 -0.00091,-0.82634c0.02919,-0.03714 0.03011,-0.08754 0.03193,-0.13927c0.02463,-0.89398 0.04653,-1.78796 0.07481,-2.68062c0.03193,-1.01203 0.07755,-2.02273 0.07025,-3.03609c0.20163,0.22549 0.28191,0.50137 0.27552,0.89c-0.03011,1.83173 -0.03923,3.6648 -0.04562,5.49786c-0.00091,0.25201 -0.052,0.33292 -0.2144,0.30242c-0.06386,-0.01061 -0.12773,-0.00531 -0.19159,-0.00796z" data-paper-data="{&quot;origPos&quot;:null}" id="XMLID_382_" fill="#757061"/><path d="M244.22938,175.71348c0.10218,-0.00398 0.05565,-0.12335 0.06021,-0.18569c0.06569,-0.96295 0.1259,-1.92591 0.18885,-2.88886c0.00365,-0.05836 0.01186,-0.1154 0.02646,-0.25201c0.13776,0.36343 0.3184,0.59422 0.31019,1.00805c-0.01551,0.8648 0.00091,1.73093 0.01551,2.59706c0.00365,0.2162 -0.04197,0.27987 -0.18338,0.26926c-0.13867,-0.00928 -0.27917,0.01326 -0.41876,0.02122c-0.00547,-0.17641 -0.01004,-0.35149 -0.01551,-0.5279c0.00365,-0.01592 0.00912,-0.02918 0.01642,-0.04112z" data-paper-data="{&quot;origPos&quot;:null}" id="XMLID_379_" fill="#757061"/><path d="M242.71309,176.19231c0.0739,-0.83297 0.09306,-1.67124 0.14232,-2.50686c0.02281,-0.38598 0.04197,-0.77195 0.06478,-1.20701c0.18794,0.31833 0.35581,0.55708 0.34212,0.99479c-0.02737,0.88868 -0.01186,1.78133 -0.00456,2.67134c0.00182,0.191 -0.03649,0.2613 -0.16604,0.24803c-0.12773,-0.01326 -0.25545,0.04112 -0.38318,0c0.00182,-0.06632 0.00365,-0.13396 0.00456,-0.20028z" data-paper-data="{&quot;origPos&quot;:null}" id="XMLID_378_" fill="#757061"/><path d="M250.94687,174.86725c0.0073,0.3316 0.01825,0.66187 -0.07116,0.97887c0.00182,-0.32762 0.00456,-0.65523 0.00639,-0.98285c0.0219,0.00133 0.04379,0.00265 0.06478,0.00398z" data-paper-data="{&quot;origPos&quot;:null}" id="XMLID_369_" fill="#728287"/><path d="M235.99103,172.56465c-0.01825,0.00265 -0.03741,0.00398 -0.05565,0.00663c-0.03832,-0.12203 -0.01825,-0.24405 0.00091,-0.40057c0.08211,0.13794 0.05474,0.27058 0.05474,0.39394z" data-paper-data="{&quot;origPos&quot;:null}" id="XMLID_367_" fill="#9dd46e"/><path d="M250.11392,168.50592c-0.00091,-0.01194 -0.00091,-0.02387 -0.00182,-0.03581c0.0073,0.00398 0.0146,0.00663 0.0219,0.01061c-0.00821,0.00663 -0.01642,0.01459 -0.02463,0.02122z" data-paper-data="{&quot;origPos&quot;:null}" id="XMLID_363_" fill="#030303"/><path d="M248.07668,176.50533c0.57659,-0.03449 1.15319,-0.0756 1.73069,-0.10081c0.16513,-0.00663 0.385,-0.12866 0.48171,0.03714c0.08302,0.14192 0.02828,0.45362 0.03467,0.68972c0.10674,4.00833 -0.07846,8.01003 -0.11952,12.01438c0,0.03316 -0.0073,0.06632 -0.01095,0.09948c-0.67695,-0.04377 -1.35207,0.06765 -2.02902,0.04908c-0.22717,-0.00663 -0.229,0.00133 -0.22535,-0.33027c0.01095,-1.10222 0.02098,-2.20445 0.03832,-3.30667c0.00456,-0.30374 -0.06751,-0.55973 -0.18064,-0.80114c0.02828,-0.25334 -0.04197,-0.31701 -0.21713,-0.30772c-0.75906,0.03714 -1.51812,0.05306 -2.27718,0.06632c-0.10766,0.00133 -0.13959,0.04377 -0.13959,0.20028c-0.00182,0.45893 -0.0146,0.91653 -0.02281,1.37413c-0.01825,1.00142 -0.03649,2.00151 -0.05474,3.00293c-0.2071,0.00265 -0.41329,-0.00796 -0.61856,-0.05571c-0.02372,-0.08489 -0.05018,-0.16845 -0.07025,-0.25599c-0.34121,-1.49085 -0.68242,-2.98171 -1.02364,-4.47256c-0.02463,-0.10876 -0.03102,-0.27191 -0.16148,-0.15121c-0.02463,-0.14723 -0.10766,-0.10346 -0.17243,-0.10478c-0.44339,-0.00663 -0.88679,-0.00265 -1.33018,-0.01326c-0.30563,-0.00663 -0.30563,-0.01459 -0.29651,-0.42444c0.00091,-0.05969 0,-0.11937 0,-0.17774c0.00274,-2.0612 0.0073,-4.12372 0.00365,-6.18492c0,-0.22416 0.04653,-0.29313 0.1998,-0.2918c0.43062,0.00398 0.86033,-0.05571 1.29004,-0.09285c0.94153,-0.07958 1.88305,-0.14325 2.82549,-0.21089c0.51729,-0.03714 1.03641,-0.05571 1.55187,-0.1154c0.26549,-0.03183 0.53371,-0.03581 0.79373,-0.13529zM246.57134,179.96719c-0.00547,0.17376 0.06295,0.20692 0.16696,0.20426c0.30198,-0.00796 0.60488,-0.01326 0.90777,-0.00265c0.12681,0.00398 0.14506,-0.06897 0.15875,-0.23477c0.04105,-0.49607 0.00274,-0.99611 0.06113,-1.48953c0.03467,-0.00663 0.06842,-0.01724 0.10309,-0.01857c0.2883,-0.00796 0.23812,-0.05438 0.24998,0.33292c0.00821,0.28783 0.01277,0.57432 0.0219,0.86215c0.00091,0.03316 -0.0146,0.0955 0.03102,0.09152c0.0146,-0.00133 0.02646,-0.04908 0.04014,-0.07428c0.00365,0.05969 0.0073,0.11937 0.01186,0.17774c-0.04744,0.13529 -0.03011,0.20426 0.08485,0.20161c0.20984,-0.00398 0.4215,-0.0199 0.62951,0.00928c0.26184,0.03581 0.52368,0.03183 0.78552,0.03581c0.07207,0.00133 0.13867,0.00531 0.12681,-0.16049c-0.02555,-0.37802 -0.03467,-0.76002 -0.05656,-1.13804c-0.01642,-0.28385 -0.0593,-0.5531 -0.26731,-0.68176c-0.01368,-0.36741 -0.01368,-0.36476 -0.27461,-0.34353c-1.5911,0.13396 -3.18221,0.2666 -4.7724,0.39924c-0.84482,0.0703 -1.68964,0.1459 -2.53537,0.20692c-0.14871,0.01061 -0.18429,0.07958 -0.16696,0.28783c0.03741,0.43771 0.05565,0.87807 0.08576,1.3171c0.03011,0.42975 0.03193,0.42842 0.32023,0.4576c0.10401,0.12203 0.23538,0.04775 0.35125,0.10346c0.1113,0.05438 0.16239,-0.03183 0.14415,-0.20028c-0.05109,-0.48678 -0.01916,-0.97754 -0.02828,-1.46565c0.29195,-0.01459 0.28738,-0.01459 0.29286,0.40455c0.00365,0.30374 -0.02281,0.60881 0.01642,0.9099c0.02463,0.39526 0.02372,0.39261 0.31293,0.3568c0.2883,-0.03449 0.57659,-0.07295 0.8658,-0.08887c0.1186,-0.00663 0.16878,-0.05173 0.15601,-0.23212c-0.03741,-0.53719 -0.03923,-1.07835 -0.03832,-1.61819c0.29103,-0.07958 0.28373,-0.07958 0.29286,0.33557c0.0073,0.34088 -0.03741,0.68574 0.02555,1.02264c0.00274,0.0252 0.00456,0.0504 0.0073,0.0756c-0.02372,0.19498 0.02372,0.25997 0.16604,0.26262c0.37679,0.00531 0.7545,-0.03714 1.12947,0.03714c0.08211,0.01592 0.13594,-0.03183 0.13411,-0.16712c-0.00821,-0.51464 0.0593,-1.02529 0.03558,-1.53993c0.03467,-0.00133 0.06934,0.00133 0.10309,-0.00663c0.16513,-0.03316 0.22352,0.06499 0.21349,0.30639c-0.01004,0.24936 0.00274,0.5027 0.01368,0.75339c0.00365,0.08224 -0.03376,0.18967 0.04562,0.24538c0.01642,0.02387 0.03193,0.04377 0.04835,0.06499z" data-paper-data="{&quot;origPos&quot;:null}" id="XMLID_360_" fill="#728287"/><path d="M230.93763,184.65728c0.07481,-0.24538 0.05839,-0.50933 0.06751,-0.764c0.03284,-0.98948 0.05292,-1.97896 0.07937,-2.96845c0.00274,-0.09285 0.02007,-0.18437 0.02555,-0.27589c0.02098,-0.37935 0.01916,-0.39128 0.28009,-0.42179c0.52185,-0.06234 1.04462,-0.0955 1.56556,-0.16845c0.59575,-0.08489 1.19515,-0.10213 1.78817,-0.23212c0.09123,-0.0199 0.18612,-0.00796 0.27917,-0.01326c0.05018,-0.00265 0.11039,0.0199 0.12408,-0.09019c0.35672,-0.03714 0.71344,-0.07958 1.07016,-0.10744c0.11039,-0.00796 0.2217,0.08621 0.333,-0.00265c0.03193,0.01194 0.05748,0.04244 0.09762,0.03449c0.52094,-0.0955 1.04553,-0.14325 1.56921,-0.19365c-0.00456,0.77726 -0.01095,1.55585 -0.0146,2.33311c-0.00365,0.85419 -0.00456,1.70838 -0.0073,2.56257c-0.75632,-0.00928 -1.50991,0.08621 -2.26532,0.0955c-0.28282,0.00398 -0.52459,0.08754 -0.73899,0.34884c-0.00639,0.01061 -0.01186,0.0199 -0.01825,0.03051c-0.13411,0.15651 -0.24998,0.3568 -0.43609,0.38863c-0.07299,-0.01724 -0.13138,0.03714 -0.19341,0.08224c-0.47624,0.34486 -0.95247,0.68707 -1.42871,1.02927c-0.05018,-0.06367 -0.11039,-0.03847 -0.16787,-0.04244c-0.62312,-0.04244 -1.24716,-0.0504 -1.87119,-0.05173c-0.0447,0 -0.09488,0.02122 -0.13138,-0.03979c0.00912,-0.51331 -0.03376,-1.02264 -0.00639,-1.5333zM232.94203,182.41304c-0.00091,0.3568 -0.00091,0.35282 0.24086,0.35945c0.23812,0.00663 0.47715,-0.0252 0.71436,0.03581c0.10309,0.02653 0.16239,-0.02653 0.16331,-0.20426c0.00456,-0.48148 0.02007,-0.96295 0.03011,-1.44443c0.24815,-0.03183 0.24177,-0.03183 0.26184,0.31435c0.01916,0.32762 -0.00547,0.65921 0.052,0.98152c0.03284,0.10876 -0.06204,0.31435 0.11769,0.31303c0.34851,-0.00265 0.69702,-0.00265 1.04462,0c0.07116,0 0.10309,-0.03847 0.10766,-0.14723c0.02007,-0.54647 0.0447,-1.09161 0.06751,-1.63808c0.24907,-0.03051 0.24268,-0.03051 0.26093,0.33292c0.01551,0.28915 -0.02007,0.58626 0.04744,0.86878c0.00274,0.03449 0.00456,0.06765 0.0073,0.10213c-0.08029,0.08356 -0.08485,0.20692 -0.05474,0.31833c0.03011,0.11142 0.11222,0.05836 0.17061,0.05969c0.22626,0.00265 0.45343,0.00133 0.67969,-0.00796c0.07755,-0.00265 0.16422,0.04244 0.23082,-0.05969c0.09306,0.08887 0.12408,0.05703 0.12043,-0.10744c-0.01095,-0.56902 -0.02555,-1.13804 -0.0146,-1.70573c0.00547,-0.27323 -0.05565,-0.31303 -0.22626,-0.29976c-1.72613,0.12335 -3.45226,0.23477 -5.1793,0.34884c-0.30472,0.0199 -0.3111,0.01592 -0.29286,0.45628c0.01642,0.39526 -0.02555,0.7945 0.04379,1.18446c-0.02463,0.05969 -0.09215,0.08489 -0.06478,0.18304c0.02372,0.08489 0.07846,0.0504 0.12043,0.06499c0.19524,0.06101 0.39413,0.03979 0.5921,0.04642c0.32479,0.01061 0.31293,0.00663 0.33756,-0.45495c0.01825,-0.34353 0.01004,-0.6937 0.06751,-1.03193c0.2217,-0.0451 0.22535,-0.0451 0.23082,0.26793c0.00456,0.28252 0.00091,0.56637 0.00091,0.84889c0.01551,0 0.03011,0 0.04562,0c0.02007,-0.05969 0.04105,-0.11805 0.06113,-0.17641c0.0073,0.06367 0.01095,0.12733 0.01551,0.191z" data-paper-data="{&quot;origPos&quot;:null}" id="XMLID_357_" fill="#728287"/><path d="M233.11354,186.32189c0.47624,-0.34353 0.95247,-0.68574 1.42871,-1.02927c0.06204,-0.0451 0.11952,-0.09948 0.19341,-0.08224c-0.04379,0.06499 -0.08211,0.14325 -0.1332,0.191c-0.2737,0.25864 -0.55105,0.50933 -0.82657,0.764c-0.11495,0.10611 -0.23082,0.21222 -0.38957,0.35812c0.10127,0 0.14597,0.00133 0.18976,0c1.44604,-0.04908 2.89209,-0.09683 4.33813,-0.14855c0.99079,-0.03449 1.98249,-0.07428 2.97329,-0.11142c0.1113,0.02122 0.21805,0.01459 0.31749,-0.08091c0.65414,-0.63136 1.31011,-1.26006 1.96516,-1.88877c0.01368,-0.01326 0.02737,-0.0252 0.04105,-0.03847c0.12955,-0.1207 0.13594,0.04244 0.16148,0.15121c0.34121,1.49085 0.68151,2.98171 1.02364,4.47256c0.02007,0.08754 0.04653,0.1711 0.07025,0.25599c-0.052,0.10744 -0.12864,0.05173 -0.19159,0.04908c-0.95247,-0.04112 -1.90586,-0.1154 -2.85833,0.01061c-0.10401,0.01326 -0.20801,0.02653 -0.31202,0.04112c-0.23538,-0.01061 -0.23538,-0.01061 -0.23538,-0.3568c0,-0.45893 -0.00091,-0.91653 0.00091,-1.37546c0,-0.10876 0.00456,-0.20028 -0.10674,-0.18835c-0.31932,0.03714 -0.64046,0.06367 -0.95977,0.09285c-0.06113,-0.0252 -0.0666,0.03316 -0.07116,0.09683c-0.01004,0.13396 -0.02828,0.26793 -0.03102,0.40322c-0.00365,0.15784 -0.0447,0.21089 -0.15783,0.21355c-0.34304,0.00663 -0.68516,0.03581 -1.02728,0.05571c-0.06386,-0.0199 -0.15966,0.0451 -0.1478,-0.15253c0.00821,-0.13794 0.06569,-0.32098 -0.00821,-0.40853c-0.07572,-0.09019 -0.20071,-0.00265 -0.30472,-0.00796c-0.03467,-0.00133 -0.06934,0.00663 -0.10401,0.01061c-0.08211,0.05571 -0.04379,0.1658 -0.03923,0.24273c0.01095,0.19498 -0.02828,0.26262 -0.17152,0.25599c-0.31384,-0.01459 -0.62768,0.00133 -0.94153,0.00531c-0.07664,-0.06632 -0.2217,0.1154 -0.24542,-0.15121c-0.03832,-0.44434 -0.04105,-0.44434 -0.36037,-0.45628c-0.05748,-0.00133 -0.11587,0.00265 -0.17334,0.00531c-0.12773,0.07693 -0.0593,0.2361 -0.05748,0.35149c0.00274,0.18437 -0.02737,0.25069 -0.16513,0.23875c-0.32023,-0.02918 -0.64137,-0.03051 -0.9616,-0.04377c-0.09032,-0.05703 -0.26275,0.10081 -0.25089,-0.22814c0.01186,-0.31966 -0.00091,-0.32098 -0.24724,-0.29578c-0.17973,0 -0.39595,-0.09019 -0.53006,0.02387c-0.14141,0.11937 -0.09397,0.47352 -0.1332,0.72288c-0.03923,0.24538 -0.0666,0.49341 -0.10766,0.80379c-0.12316,-0.67646 -0.23356,-1.28659 -0.34395,-1.8954c-0.18155,-0.20161 -0.4069,-0.2918 -0.59484,-0.47219c0.00639,-0.07693 0.06478,-0.07162 0.08302,-0.12468c0.13138,-0.09285 0.2664,-0.18569 0.40234,-0.27987z" data-paper-data="{&quot;origPos&quot;:null}" id="XMLID_356_" fill="#39494e"/><path d="M232.70664,186.60309c-0.01825,0.05306 -0.07664,0.04775 -0.08302,0.12468c0.18794,0.18039 0.41329,0.26926 0.59484,0.47219c-0.05565,0.06101 -0.02737,0.13529 -0.01733,0.20824c0.07299,0.52127 0.14597,1.04386 0.21805,1.56646c0.03832,0.27589 0.02007,0.30905 -0.17243,0.31037c-0.18703,0.00133 -0.37314,0 -0.56017,0.00265c-1.33565,0.01857 -2.67222,0.01326 -4.00696,0.06765c-0.89226,0.03581 -1.78543,-0.00265 -2.67587,0.0504c-0.47259,0.02785 -0.94426,0.00928 -1.41594,0.04112c-0.1551,0.01061 -0.17243,-0.08887 -0.16057,-0.27058c0.04835,-0.71492 0.09762,-1.42984 0.13594,-2.14609c0.00912,-0.17774 0.05292,-0.24803 0.17061,-0.22946c0.00547,0.00133 0.01186,0 0.01733,0c1.02637,-0.02122 2.05274,-0.0199 3.07912,-0.0703c0.61217,-0.03051 1.22526,0 1.83561,-0.0504c0.56017,-0.04775 1.12034,-0.00265 1.67869,-0.04775c0.45434,-0.03979 0.90777,-0.04775 1.36211,-0.02918zM228.66593,187.88968c0.16878,0 0.33847,0.00663 0.50726,-0.00398c0.06751,-0.00398 0.17426,0.07428 0.19706,-0.0703c0.03467,-0.22018 0.05018,-0.44964 0.02372,-0.67778c-0.00182,-0.01592 -0.052,-0.02785 -0.07846,-0.02653c-0.40234,0.01724 -0.80376,0.03847 -1.2061,0.05571c-0.07207,0.00265 -0.11313,0.04377 -0.10583,0.15121c0.01277,0.18702 -0.07481,0.37669 0.00274,0.55708c0.01095,0.0252 0.06569,0.01194 0.10036,0.01194c0.18612,0.00265 0.37314,0.00265 0.55926,0.00265zM230.42308,187.92814c0.09853,0 0.19798,0 0.29651,0c0.41602,0 0.41055,0 0.44795,-0.59687c0.01004,-0.16447 -0.01825,-0.20426 -0.12681,-0.1963c-0.30198,0.02255 -0.60396,0.02785 -0.90686,0.04775c-0.36676,0.02255 -0.3622,0.02653 -0.3996,0.55708c-0.01004,0.14458 0.00821,0.19763 0.11222,0.19233c0.1925,-0.01061 0.385,-0.00398 0.57659,-0.00398zM226.86864,187.9109c0.10492,0 0.20984,0 0.31475,0c0.3923,0 0.38865,0 0.42332,-0.56371c0.01004,-0.16712 -0.0146,-0.22283 -0.13594,-0.21355c-0.30837,0.0252 -0.61765,0.03051 -0.92602,0.04908c-0.37132,0.02255 -0.36767,0.0252 -0.37588,0.56769c-0.00091,0.12468 0.02007,0.16447 0.10583,0.16182c0.19798,-0.00663 0.39595,-0.00133 0.59393,-0.00133z" data-paper-data="{&quot;origPos&quot;:null}" id="XMLID_351_" fill="#728287"/><path d="M237.94981,187.62042c0.03467,-0.00398 0.06934,-0.01194 0.10401,-0.01061c0.10401,0.00531 0.22991,-0.08224 0.30472,0.00796c0.0739,0.08754 0.01642,0.27058 0.00821,0.40853c-0.01186,0.19763 0.08393,0.13264 0.1478,0.15253c-0.00821,0.13529 0.05018,0.14458 0.12225,0.14458c0.3549,-0.00265 0.70979,-0.00796 1.06469,0.00265c0.13046,0.00398 0.15053,-0.08754 0.12864,-0.23344c-0.03376,-0.22549 -0.02281,-0.45362 -0.02646,-0.68176c0.32023,-0.03051 0.64046,-0.05571 0.95977,-0.09285c0.1113,-0.01326 0.10674,0.07958 0.10674,0.18835c-0.00091,0.45893 -0.00091,0.91653 -0.00091,1.37546c0,0.34619 0,0.34619 0.23538,0.3568c-0.05109,0.08356 -0.12043,0.05173 -0.18155,0.05173c-1.58107,0.00531 -3.16305,-0.00928 -4.74321,0.0199c-0.74629,0.01459 -1.49257,0.02122 -2.23886,0.03051c-0.25636,0.00398 -0.25545,0.00133 -0.20619,-0.35812c0.04197,-0.30639 0.08393,-0.61412 0.12134,-0.92184c0.02098,-0.17376 0.07116,-0.28783 0.1998,-0.3316c0.09853,-0.03316 0.20071,-0.0756 0.27917,-0.18437c0.24633,-0.0252 0.25819,-0.0252 0.24724,0.29578c-0.01186,0.33027 0.16057,0.1711 0.25089,0.22814c-0.00182,0.0955 -0.00639,0.18702 0.09123,0.191c0.37679,0.01724 0.75359,0.03714 1.13129,0.05969c0.08758,0.00531 0.11404,-0.03581 0.08576,-0.16447c-0.04653,-0.20824 -0.08211,-0.42046 -0.12225,-0.63136c0.05748,-0.00133 0.11587,-0.00663 0.17334,-0.00531c0.31932,0.01061 0.32205,0.01061 0.36037,0.45628c0.02281,0.2666 0.16878,0.08489 0.24542,0.15121c0.01277,0.15386 0.09123,0.14855 0.16969,0.14855c0.23812,-0.00133 0.47624,0 0.71527,0c0.41694,0 0.43518,-0.04244 0.27644,-0.63003c-0.00456,-0.00928 -0.0073,-0.01724 -0.01004,-0.02387z" data-paper-data="{&quot;origPos&quot;:null}" id="XMLID_350_" fill="#728287"/><path d="M245.08515,189.19219c0.01825,-1.00142 0.03649,-2.00151 0.05474,-3.00293c0.00821,-0.4576 0.0219,-0.91653 0.02281,-1.37413c0.00091,-0.15651 0.03193,-0.19763 0.13959,-0.20028c0.75906,-0.01326 1.51812,-0.02918 2.27718,-0.06632c0.17426,-0.00796 0.24542,0.05438 0.21713,0.30772c-0.04653,1.17252 -0.09397,2.34372 -0.1405,3.51624c-0.07116,-0.06632 -0.05474,-0.17774 -0.06204,-0.27191c-0.06386,-0.77461 -0.12864,-1.55054 -0.18429,-2.32648c-0.01368,-0.19365 -0.05748,-0.22283 -0.17426,-0.15651c-0.13594,0.07693 -0.27552,0.13927 -0.41694,0.19233c-0.08211,0.03183 -0.11039,0.09417 -0.11678,0.21222c-0.01642,0.30374 -0.04197,0.60748 -0.06478,0.91123c-0.03102,0.42179 -0.06478,0.84358 -0.09397,1.26537c-0.01095,0.1658 -0.04379,0.06765 -0.07572,0.01857c-0.00456,-0.57034 -0.05018,-1.13671 -0.09032,-1.70308c-0.00547,-0.12733 -0.01642,-0.25334 -0.01551,-0.38067c0.00182,-0.16978 -0.04105,-0.20294 -0.1478,-0.14325c-0.19615,0.10876 -0.39595,0.20426 -0.59484,0.30374c-0.05748,0.02918 -0.10218,0.05969 -0.10127,0.17243c0.00274,0.92449 0.00182,1.84898 0.00182,2.77479c-0.15053,0.10081 -0.29377,0.03979 -0.43427,-0.04908z" data-paper-data="{&quot;origPos&quot;:null}" id="XMLID_348_" fill="#39494e"/><path d="M228.89036,182.91442c-0.01368,1.07172 -0.00365,2.14476 -0.04927,3.21648c-0.60944,0.0504 -1.21887,0.0955 -1.8274,0.15253c-0.14324,0.01326 -0.17608,-0.03581 -0.14232,-0.25201c0.15145,-0.96295 0.29103,-1.92989 0.43153,-2.89682c0.02281,-0.15784 0.07299,-0.21753 0.18885,-0.21487c0.4662,0.00663 0.9324,-0.00265 1.3986,-0.00531zM228.46066,183.83758c-0.00639,-0.46423 -0.00821,-0.44434 -0.19889,-0.46954c-0.18429,-0.02387 -0.25089,0.06765 -0.22808,0.33027c0.01095,0.12468 0,0.25334 -0.00274,0.38067c-0.00182,0.07295 0.0073,0.12203 0.06751,0.14723c0.28556,0.11937 0.36858,0.03316 0.3622,-0.38863zM227.71528,183.82034c-0.01277,-0.51464 0.03923,-0.42842 -0.22991,-0.44169c-0.12955,-0.00531 -0.17608,0.05438 -0.16696,0.24273c0.00821,0.15917 -0.00274,0.31966 -0.01004,0.48015c-0.00456,0.10213 0.0146,0.14723 0.09397,0.15784c0.31475,0.04244 0.3184,0.04244 0.31293,-0.41383c0.00091,-0.00796 0.00091,-0.01592 0,-0.0252z" data-paper-data="{&quot;origPos&quot;:null}" id="XMLID_344_" fill="#728287"/><path d="M251.23243,189.23596c0.04014,-1.10753 0.08302,-2.21639 0.11769,-3.32524c0.00639,-0.20028 0.03649,-0.25997 0.18155,-0.20426c0.21349,0.08224 0.43336,0.12733 0.6514,0.18702c0.06751,0.01857 0.11587,0.04377 0.11222,0.17376c-0.03011,1.05713 -0.05565,2.11558 -0.08211,3.17271c-0.32661,-0.00133 -0.65414,-0.00265 -0.98076,-0.00398z" data-paper-data="{&quot;origPos&quot;:null}" id="XMLID_338_" fill="#757061"/><path d="M252.60823,189.24126c0.03102,-1.01601 0.06386,-2.03202 0.09306,-3.04803c0.00365,-0.11407 0.02737,-0.14988 0.10492,-0.12203c0.24907,0.08621 0.49904,0.16978 0.74994,0.24803c0.06386,0.0199 0.08667,0.06234 0.08393,0.15519c-0.02737,0.92316 -0.05383,1.845 -0.08029,2.76816c-0.31658,0 -0.63407,0 -0.95156,-0.00133z" data-paper-data="{&quot;origPos&quot;:null}" id="XMLID_337_" fill="#757061"/><path d="M246.46824,188.2173c0.03193,0.04908 0.06386,0.14723 0.07572,-0.01857c0.02828,-0.42179 0.06204,-0.84358 0.09397,-1.26537c0.02281,-0.30374 0.04835,-0.60748 0.06478,-0.91123c0.00639,-0.11937 0.03467,-0.18039 0.11678,-0.21222c0.1405,-0.05438 0.281,-0.11672 0.41694,-0.19233c0.11678,-0.06632 0.16057,-0.03714 0.17426,0.15651c0.05474,0.77593 0.12043,1.55187 0.18429,2.32648c0.00821,0.09417 -0.00912,0.20692 0.06204,0.27191c0.04197,0.20824 -0.05474,0.39659 -0.06569,0.61412c-0.16787,-0.66319 -0.33483,-1.32506 -0.50269,-1.98825c-0.01095,0.00133 -0.0219,0.00265 -0.03284,0.00398c0,0.36476 0,0.72951 0,1.09427c0,0.27987 0,0.55973 0,0.8396c0,0.0504 0.01277,0.11805 -0.00456,0.14988c-0.11222,0.20559 -0.26731,0.05173 -0.40143,0.08621c-0.06842,0.01724 -0.14871,0.00531 -0.1478,-0.14458c0,-0.27191 -0.05565,-0.53719 -0.03376,-0.81042z" data-paper-data="{&quot;origPos&quot;:null}" id="XMLID_336_" fill="#9dd46e"/><path d="M227.75178,180.93147c0.04835,-1.36352 0.09762,-2.72572 0.14871,-4.15954c0.14506,0.24936 0.30654,0.37404 0.29742,0.72951c-0.03558,1.37281 -0.05292,2.74694 -0.06478,4.12107c-0.00182,0.24671 -0.03923,0.36476 -0.21987,0.3316c-0.0739,-0.01326 -0.15053,-0.00133 -0.22626,0c-0.00091,-0.05438 -0.00091,-0.10876 -0.00182,-0.16182c0.08211,-0.27721 0.06478,-0.57034 0.0666,-0.86082z" data-paper-data="{&quot;origPos&quot;:null}" id="XMLID_335_" fill="#757061"/><path d="M245.52033,189.24259c0,-0.92449 0.00091,-1.84898 -0.00182,-2.77479c0,-0.11274 0.04379,-0.14325 0.10127,-0.17243c0.19889,-0.09948 0.39869,-0.19498 0.59484,-0.30374c0.10674,-0.05969 0.14962,-0.02653 0.1478,0.14325c-0.00091,0.12601 0.01004,0.25334 0.01551,0.38067c-0.17334,0.18835 -0.31567,0.42444 -0.45981,0.65391c-0.11039,0.17508 -0.04379,0.40455 -0.03558,0.60881c0.01733,0.43771 0.04562,0.87409 0.0739,1.31047c0.00821,0.12601 -0.04105,0.14192 -0.10492,0.14458c-0.11039,0.00265 -0.22078,0.00531 -0.33118,0.00928z" data-paper-data="{&quot;origPos&quot;:null}" id="XMLID_334_" fill="#9dd46e"/><path d="M227.75178,180.93147c-0.00182,0.29048 0.01551,0.58361 -0.0666,0.86082c-0.00274,-0.31966 -0.02463,-0.63932 0,-0.95765c0.01733,0.03979 0.02646,0.09152 0.0666,0.09683z" data-paper-data="{&quot;origPos&quot;:null}" id="XMLID_332_" fill="#9dd46e"/><path d="M243.21213,184.25672c-0.01368,0.01326 -0.02737,0.0252 -0.04105,0.03847c-0.09944,0 -0.19798,-0.00531 -0.29742,0.00265c-0.8211,0.06101 -1.64037,0.15784 -2.46238,0.18171c-1.48801,0.04112 -2.97694,0.04112 -4.46495,0.05306c-0.10401,0.00133 -0.18976,0.04112 -0.27735,0.12335c-0.53189,0.50668 -1.06651,1.0054 -1.60023,1.5081c-0.02737,0.0252 -0.06842,0.03847 -0.04927,0.1154c0.0219,0.00265 0.0447,0.00796 0.06751,0.00663c0.59393,-0.03449 1.18877,-0.05306 1.78269,-0.10876c0.29742,-0.02785 0.59484,-0.03316 0.89135,-0.04377c1.08202,-0.03847 2.16314,-0.27191 3.24699,-0.04112c0.29286,0.06234 0.59302,0.0504 0.87949,0.17243c-0.99079,0.03714 -1.98249,0.0756 -2.97329,0.11142c-1.44604,0.0504 -2.89209,0.09948 -4.33813,0.14855c-0.0447,0.00133 -0.08941,0 -0.18976,0c0.15875,-0.1459 0.2737,-0.25201 0.38957,-0.35812c0.27552,-0.25334 0.55287,-0.50535 0.82657,-0.764c0.05109,-0.04775 0.08941,-0.12733 0.1332,-0.191c0.18612,-0.03316 0.30289,-0.23212 0.43701,-0.38863c0.0146,0.03051 0.04014,0.0504 0.05383,0.01857c0.01916,-0.0451 -0.01825,-0.03979 -0.03467,-0.04908c0.21349,-0.26262 0.45617,-0.34619 0.73899,-0.34884c0.75541,-0.00928 1.509,-0.10478 2.26532,-0.0955c0.13594,0.01857 0.27279,0.02918 0.40872,0.05703c0.08941,0.01857 0.1259,-0.03051 0.12955,-0.15253c0.46073,-0.00133 0.92145,-0.00133 1.38218,-0.00265c0.01186,0.13131 0.08029,0.0955 0.13411,0.09152c0.29195,-0.02122 0.58298,-0.06101 0.87401,-0.06101c0.16513,0 0.18338,-0.09948 0.18247,-0.30374c-0.00456,-2.27475 0,-4.54949 -0.0073,-6.82291c-0.00091,-0.25334 0.04197,-0.32231 0.21622,-0.33027c2.04818,-0.09417 4.09545,-0.20161 6.14272,-0.30639c0.03558,0.05969 0.07116,0.05836 0.10492,-0.00398c0.10492,-0.00265 0.20892,-0.00398 0.31384,-0.00663c-0.2591,0.09948 -0.52824,0.10346 -0.7919,0.13396c-0.51638,0.05969 -1.03458,0.07826 -1.55187,0.1154c-0.94153,0.06897 -1.88396,0.13131 -2.82549,0.21089c-0.42971,0.03581 -0.85942,0.0955 -1.29004,0.09285c-0.15236,-0.00133 -0.1998,0.06897 -0.1998,0.2918c0.00274,2.0612 -0.00182,4.12372 -0.00365,6.18492c0,0.05969 0.00091,0.11937 0,0.17774c-0.00912,0.40985 -0.00912,0.41648 0.29651,0.42444c0.44339,0.01061 0.88679,0.00663 1.33018,0.01326c0.06204,0.00133 0.14597,-0.04244 0.17061,0.10478z" data-paper-data="{&quot;origPos&quot;:null}" id="XMLID_331_" fill="#fefefe"/><path d="M240.11386,184.24876c-0.46073,0.00133 -0.92145,0.00133 -1.38218,0.00265c0.01186,-0.8144 0.02372,-1.6288 0.03741,-2.44187c0.00912,-0.56902 0.02555,-1.13671 0.03193,-1.70573c0.00182,-0.14988 0.02919,-0.20559 0.13867,-0.20824c0.39139,-0.00928 0.78187,-0.03449 1.17326,-0.05571c0.05383,-0.00265 0.10309,-0.00398 0.14506,0.05836c0.21713,0.31833 0.43518,0.63534 0.63133,1.00672c-0.21257,-0.12468 -0.42697,-0.2414 -0.63589,-0.37669c-0.12681,-0.08224 -0.16696,-0.06632 -0.16422,0.15651c0.0146,1.18844 0.01825,2.37688 0.02463,3.56399zM239.20153,182.20745c0.48171,-0.01857 0.48171,-0.01857 0.4589,-0.67778c-0.00182,-0.04244 -0.00274,-0.08489 -0.00456,-0.12733c-0.02463,-0.56769 -0.02372,-0.56239 -0.40781,-0.46556c-0.10127,0.0252 -0.11952,0.07826 -0.06751,0.19498c0.14506,0.32231 0.17517,0.6486 0.02828,0.98816c-0.0073,0.01857 -0.00365,0.04775 -0.0073,0.08754z" data-paper-data="{&quot;origPos&quot;:null}" id="XMLID_327_" fill="#728287"/><path d="M245.77031,176.14191c-0.00091,-0.08091 -0.00182,-0.16315 -0.00274,-0.24405c0.10127,-0.65391 0.11495,-1.32373 0.17152,-1.98692c0.04835,-0.56902 0.08667,-1.14069 0.14506,-1.71369c0.16148,0.39526 0.35307,0.74543 0.32661,1.26404c-0.03923,0.79318 -0.02919,1.59299 -0.02463,2.38882c0.00091,0.22946 -0.05109,0.29976 -0.19798,0.28517c-0.13959,-0.01061 -0.27917,0.04244 -0.41785,0.00663z" data-paper-data="{&quot;origPos&quot;:null}" id="XMLID_326_" fill="#757061"/><path d="M251.86468,180.2842c-0.22991,-0.14855 -0.43062,-0.28517 -0.63498,-0.40853c-0.07664,-0.04642 -0.09123,-0.10478 -0.06842,-0.21355c0.09671,-0.46291 0.19068,-0.92582 0.28282,-1.39005c0.02281,-0.11672 0.06113,-0.12866 0.12408,-0.06632c0.00456,0.00531 0.01004,0.00928 0.01551,0.01194c0.37041,0.2613 0.37132,0.2613 0.34304,0.86745c-0.01825,0.3873 -0.04014,0.77593 -0.06204,1.19905z" data-paper-data="{&quot;origPos&quot;:null}" id="XMLID_325_" fill="#757061"/><path d="M252.73322,179.96587c0,0.23742 0,0.47485 0,0.71094c0,0.09683 -0.00365,0.17243 -0.09579,0.11009c-0.21166,-0.14325 -0.42515,-0.27987 -0.63863,-0.41383c-0.06386,-0.03979 -0.06842,-0.08887 -0.04288,-0.17774c0.11952,-0.41383 0.23721,-0.82899 0.35125,-1.2468c0.02828,-0.10478 0.05474,-0.11937 0.12773,-0.07162c0.35034,0.23212 0.35216,0.22814 0.33391,0.78257c-0.00365,0.10213 -0.0073,0.20294 -0.01095,0.30507c-0.00912,0.00133 -0.01733,0.00133 -0.02463,0.00133z" data-paper-data="{&quot;origPos&quot;:null}" id="XMLID_324_" fill="#757061"/><path d="M254.42924,181.17951c0,0.19498 -0.00547,0.38996 0.00182,0.58361c0.00639,0.15917 -0.03011,0.1711 -0.1186,0.11009c-0.21075,-0.14325 -0.42332,-0.28252 -0.63863,-0.41383c-0.07572,-0.04642 -0.09306,-0.09417 -0.06204,-0.20824c0.09853,-0.35282 0.19159,-0.70961 0.28282,-1.06641c0.02646,-0.10478 0.0593,-0.13794 0.12499,-0.06765c0.00456,0.00531 0.01004,0.00928 0.01551,0.01194c0.39595,0.14458 0.40599,0.58493 0.39413,1.0505z" data-paper-data="{&quot;origPos&quot;:null}" id="XMLID_323_" fill="#757061"/><path d="M253.52695,181.36122c-0.24359,-0.15651 -0.43244,-0.28385 -0.62495,-0.40057c-0.07207,-0.04377 -0.07846,-0.10081 -0.05109,-0.1963c0.10948,-0.382 0.21713,-0.76532 0.32388,-1.14997c0.02372,-0.08489 0.0447,-0.11407 0.11404,-0.06897c0.16513,0.10611 0.27187,0.21885 0.24542,0.54116c-0.03193,0.39924 -0.0073,0.80777 -0.0073,1.27465z" data-paper-data="{&quot;origPos&quot;:null}" id="XMLID_322_" fill="#757061"/><path d="M238.21621,179.45123c-0.52368,0.04908 -1.04827,0.09815 -1.56921,0.19365c-0.04014,0.00663 -0.06569,-0.02255 -0.09762,-0.03449c0.00274,-0.04908 0.00547,-0.09948 0.00821,-0.14855c0.40781,-0.03847 0.81654,-0.0756 1.22435,-0.11407c0.11952,0 0.23903,0 0.35763,0.00133c0.04653,-0.00133 0.09762,-0.00531 0.07664,0.10213z" data-paper-data="{&quot;origPos&quot;:null}" id="XMLID_321_" fill="#fefefe"/><path d="M237.77008,174.40965c-0.04927,-0.16182 -0.0219,-0.33425 -0.02281,-0.50005c-0.00547,-0.54116 -0.00547,-1.08233 -0.00456,-1.62482c0,-0.09019 -0.02098,-0.18702 0.02737,-0.26793c0.02098,0.79848 0.0073,1.59564 0,2.39279z" data-paper-data="{&quot;origPos&quot;:null}" id="XMLID_320_" fill="#cff9fd"/><path d="M247.76193,176.51197c-0.03376,0.06234 -0.06934,0.06367 -0.10492,0.00398c0.03558,-0.00133 0.07025,-0.00265 0.10492,-0.00398z" data-paper-data="{&quot;origPos&quot;:null}" id="XMLID_319_" fill="#728287"/><path d="M237.1424,173.26498c0,0.10213 0.00091,0.20426 0,0.30507c-0.00547,0.38863 0.04562,0.34619 -0.24633,0.32231c-0.36676,-0.03051 -0.36676,-0.03316 -0.40781,-0.57034c-0.0146,-0.18569 -0.02372,-0.37139 -0.04105,-0.55708c-0.01095,-0.12335 0.00182,-0.191 0.10401,-0.18569c0.16331,0.01061 0.32661,0.00663 0.48992,0.00133c0.07664,-0.00265 0.10401,0.03979 0.10127,0.14855c-0.00274,0.17906 0,0.3568 0,0.53586z" data-paper-data="{&quot;origPos&quot;:null}" id="XMLID_316_" fill="#39494e"/><path d="M233.11081,178.64877c0.02281,-0.01857 0.04562,-0.03847 0.06751,-0.05703c-0.0146,0.20426 0.06751,0.42975 -0.06113,0.61014c-0.00182,-0.18437 -0.00365,-0.36873 -0.00639,-0.5531z" data-paper-data="{&quot;origPos&quot;:null}" id="XMLID_315_" fill="#728287"/><path d="M242.28338,180.40888c-0.2883,-0.02918 -0.29012,-0.02918 -0.32023,-0.4576c-0.03011,-0.43903 -0.04835,-0.87939 -0.08576,-1.3171c-0.01733,-0.20824 0.01825,-0.27721 0.16696,-0.28783c0.84573,-0.06101 1.69055,-0.13529 2.53537,-0.20692c1.5911,-0.13264 3.18221,-0.26528 4.7724,-0.39924c0.26001,-0.02255 0.26001,-0.02387 0.27461,0.34353c0.00182,0.53321 0.00547,1.06774 0.00182,1.60094c-0.00091,0.08091 0.05383,0.24671 -0.06204,0.23212c-0.11039,-0.01459 -0.25728,0.16447 -0.33391,-0.09683c0.01916,-0.27987 -0.02646,-0.55575 -0.03102,-0.83429c-0.00091,-0.0756 -0.01368,-0.13396 -0.08029,-0.12335c-0.19615,0.03183 -0.40964,0.00531 -0.58298,0.11274c-0.12316,0.0756 -0.13594,0.37404 -0.20527,0.56637c-0.01095,0.02918 -0.01368,0.06367 -0.02098,0.09683c-0.01368,0.02653 -0.02555,0.07295 -0.04014,0.07428c-0.04562,0.00398 -0.03011,-0.05836 -0.03102,-0.09152c-0.00912,-0.28783 -0.01368,-0.57432 -0.0219,-0.86215c-0.01095,-0.38863 0.03923,-0.34088 -0.24998,-0.33292c-0.03467,0.00133 -0.06842,0.01194 -0.10309,0.01857c-0.14415,-0.05703 -0.20254,0.02122 -0.17334,0.23344c0.00912,0.06367 0.02007,0.12733 0.03193,0.18967c0.02372,0.12601 -0.00821,0.18967 -0.09762,0.19365c-0.24724,0.03847 -0.49357,0.07693 -0.74081,0.11407c-0.05565,0.00796 -0.09579,0.04244 -0.12408,0.11672c-0.07755,0.20559 -0.15875,0.40853 -0.23903,0.61279c-0.07846,-0.05571 -0.04197,-0.16315 -0.04562,-0.24538c-0.01095,-0.25069 -0.02372,-0.5027 -0.01368,-0.75339c0.01004,-0.2414 -0.04835,-0.34088 -0.21349,-0.30639c-0.03376,0.00663 -0.06842,0.00398 -0.10309,0.00663c-0.10036,-0.04908 -0.10857,0.04244 -0.12043,0.15121c-0.01095,0.10346 0.01916,0.24273 -0.09123,0.27987c-0.11495,0.00531 -0.23173,0.0252 -0.34577,0.01326c-0.41511,-0.04642 -0.73078,0.13131 -0.86398,0.75869c-0.01004,0.04642 -0.03376,0.08621 -0.05109,0.12999c-0.06204,-0.33823 -0.01825,-0.68176 -0.02555,-1.02264c-0.00912,-0.41383 -0.00182,-0.41516 -0.29286,-0.33557c-0.10766,-0.05173 -0.16148,-0.01326 -0.1551,0.16978c0.00365,0.09948 0.03467,0.22151 -0.052,0.29048c-0.25545,-0.00265 -0.50452,0.08621 -0.75723,0.11274c-0.07481,0.00796 -0.09306,0.08224 -0.11404,0.16182c-0.07207,0.28119 -0.14506,0.56106 -0.21805,0.84093v0.00531c-0.04014,-0.30242 -0.01277,-0.60748 -0.01642,-0.9099c-0.00547,-0.42046 -0.00091,-0.42046 -0.29286,-0.40455c-0.08758,-0.05836 -0.11952,-0.00796 -0.13411,0.12203c-0.01186,0.10346 0.03376,0.2414 -0.06934,0.30242c-0.07572,0 -0.15053,0 -0.22626,0.00133c-0.06751,0 -0.08941,0.0504 -0.08302,0.14723c0.0219,0.30242 0.04014,0.60616 0.06021,0.90857c-0.00456,0.0252 -0.00912,0.05173 -0.0146,0.07958z" data-paper-data="{&quot;origPos&quot;:null}" id="XMLID_314_" fill="#39494e"/><path d="M249.23169,179.81864c0.07755,0.2613 0.22352,0.08224 0.33391,0.09683c0.11678,0.01459 0.06113,-0.15121 0.06204,-0.23212c0.00456,-0.53321 0,-1.06774 -0.00182,-1.60094c0.20801,0.12866 0.25089,0.39791 0.26731,0.68176c0.0219,0.37935 0.03102,0.76002 0.05656,1.13804c0.01095,0.1658 -0.05474,0.16182 -0.12681,0.16049c-0.26184,-0.00398 -0.52368,0 -0.78552,-0.03581c-0.20801,-0.02785 -0.41967,-0.01326 -0.62951,-0.00928c-0.11587,0.00265 -0.1332,-0.06765 -0.08485,-0.20294c0.15418,-0.08356 0.28009,-0.23875 0.4142,-0.36741c0.10309,-0.09815 0.15692,-0.06632 0.23356,0.04775c0.07937,0.11805 0.14141,0.27191 0.26093,0.32364z" data-paper-data="{&quot;origPos&quot;:null}" id="XMLID_313_" fill="#fefefe"/><path d="M244.67551,179.93801c0.01733,-0.04244 0.04197,-0.08356 0.05109,-0.12999c0.1332,-0.62738 0.44887,-0.80511 0.86398,-0.75869c0.11404,0.01326 0.23082,-0.00796 0.34577,-0.01326c0,0.31568 0,0.63268 0,0.96959c-0.13229,-0.06499 -0.17152,-0.20692 -0.23264,-0.31037c-0.07664,-0.12999 -0.14324,-0.16049 -0.21896,-0.00928c-0.14506,0.28783 -0.3403,0.37669 -0.57751,0.32894c-0.0739,-0.01459 -0.15053,-0.00265 -0.22626,-0.00265c-0.00091,-0.02387 -0.00365,-0.04908 -0.00547,-0.07428z" data-paper-data="{&quot;origPos&quot;:null}" id="XMLID_312_" fill="#9dd46e"/><path d="M244.15001,179.03873c0.08758,-0.06897 0.05565,-0.19233 0.052,-0.29048c-0.00639,-0.18304 0.04744,-0.22018 0.1551,-0.16978c-0.00182,0.53984 0.00091,1.07968 0.03832,1.61819c0.01277,0.18039 -0.03741,0.22549 -0.15601,0.23212c-0.28921,0.01592 -0.57751,0.05438 -0.8658,0.08887c-0.28921,0.03449 -0.2883,0.03847 -0.31293,-0.3568v-0.00531c0.33118,-0.01459 0.66326,-0.03051 0.99444,-0.04112c0.09215,-0.00265 0.10036,-0.08091 0.09944,-0.18437c-0.00274,-0.29711 -0.00365,-0.59422 -0.00456,-0.89133z" data-paper-data="{&quot;origPos&quot;:null}" id="XMLID_311_" fill="#fefefe"/><path d="M244.68281,180.01229c0.07572,0 0.15236,-0.01194 0.22626,0.00265c0.23629,0.04775 0.43244,-0.04112 0.57751,-0.32894c0.07572,-0.14988 0.14141,-0.1207 0.21896,0.00928c0.06113,0.10346 0.10036,0.24671 0.23264,0.31037c0,-0.33823 0,-0.65391 0,-0.96959c0.10948,-0.03847 0.07937,-0.17774 0.09123,-0.27987c0.01186,-0.10876 0.02007,-0.20028 0.12043,-0.15121c0.02372,0.51464 -0.04379,1.02662 -0.03558,1.53993c0.00182,0.13529 -0.052,0.18304 -0.13411,0.16712c-0.37588,-0.0756 -0.75359,-0.03316 -1.12947,-0.03714c-0.14415,-0.00133 -0.1925,-0.06765 -0.16787,-0.26262z" data-paper-data="{&quot;origPos&quot;:null}" id="XMLID_310_" fill="#fefefe"/><path d="M246.52298,179.90485c0.08029,-0.20426 0.16148,-0.4072 0.23903,-0.61279c0.02828,-0.07428 0.06751,-0.10876 0.12408,-0.11672c0.24724,-0.03714 0.49357,-0.0756 0.74081,-0.11407c0,0.27191 0,0.54382 0,0.82236c-0.10309,-0.01857 -0.15692,-0.09019 -0.2071,-0.15386c-0.11313,-0.14458 -0.20163,-0.12601 -0.28556,0.04775c-0.0739,0.15386 -0.1779,0.19763 -0.30289,0.18039c-0.08576,-0.01061 -0.17334,0.00398 -0.26001,0.00796c-0.01642,-0.0199 -0.03193,-0.03979 -0.04835,-0.06101z" data-paper-data="{&quot;origPos&quot;:null}" id="XMLID_309_" fill="#9dd46e"/><path d="M246.57134,179.96719c0.08667,-0.00398 0.17426,-0.01857 0.26001,-0.00796c0.1259,0.01592 0.229,-0.02653 0.30289,-0.18039c0.08302,-0.17243 0.17152,-0.191 0.28556,-0.04775c0.04927,0.06234 0.10401,0.13529 0.2071,0.15386c0,-0.27854 0,-0.55045 0,-0.82236c0.08941,-0.00398 0.12134,-0.06897 0.09762,-0.19365c-0.01186,-0.06234 -0.02372,-0.12601 -0.03193,-0.18967c-0.02919,-0.21355 0.02919,-0.2918 0.17334,-0.23344c-0.05748,0.49341 -0.02007,0.99346 -0.06113,1.48953c-0.01368,0.1658 -0.03284,0.23875 -0.15875,0.23477c-0.30198,-0.01061 -0.60488,-0.00531 -0.90777,0.00265c-0.10401,0.00133 -0.17243,-0.03183 -0.16696,-0.20559z" data-paper-data="{&quot;origPos&quot;:null}" id="XMLID_308_" fill="#fefefe"/><path d="M249.23169,179.81864c-0.1186,-0.05306 -0.18155,-0.20559 -0.26093,-0.32364c-0.07664,-0.11274 -0.13046,-0.1459 -0.23356,-0.04775c-0.13502,0.12866 -0.26001,0.28517 -0.4142,0.36741c-0.00365,-0.05969 -0.0073,-0.11937 -0.01186,-0.17774c0.00639,-0.03183 0.01004,-0.06632 0.02098,-0.0955c0.06934,-0.19365 0.08211,-0.49076 0.20527,-0.56637c0.17426,-0.10744 0.38683,-0.08091 0.58298,-0.11274c0.06569,-0.01061 0.07846,0.04775 0.08029,0.12335c0.00365,0.27854 0.05018,0.5531 0.03102,0.83297z" data-paper-data="{&quot;origPos&quot;:null}" id="XMLID_307_" fill="#9dd46e"/><path d="M242.54704,179.26952c0.10309,-0.05969 0.05839,-0.19896 0.06934,-0.30242c0.0146,-0.12999 0.04562,-0.18039 0.13411,-0.12203c0.00912,0.48944 -0.02281,0.97887 0.02828,1.46565c0.01825,0.16978 -0.03376,0.25467 -0.14415,0.20028c-0.11587,-0.05703 -0.24724,0.01857 -0.35125,-0.10346c0.00456,-0.02785 0.01004,-0.05438 0.0146,-0.08224c0.19524,-0.00133 0.27461,-0.12999 0.24998,-0.42312c-0.01733,-0.20692 -0.00182,-0.42046 -0.00091,-0.63268z" data-paper-data="{&quot;origPos&quot;:null}" id="XMLID_306_" fill="#fefefe"/><path d="M232.92925,182.22204c-0.02007,0.05969 -0.04105,0.11805 -0.06113,0.17774c-0.01551,0 -0.03011,0 -0.04562,0c0,-0.28252 0.00365,-0.56637 -0.00091,-0.84889c-0.00547,-0.31303 -0.00912,-0.3117 -0.23082,-0.26793c-0.10766,-0.05969 -0.15327,-0.00796 -0.14324,0.16049c0.00365,0.06897 0.02007,0.16182 -0.0666,0.15519c-0.13867,-0.02255 -0.27461,0.01459 -0.41237,0.02785c-0.06386,0.00531 -0.10583,0.04112 -0.13685,0.12468c-0.08758,0.23344 -0.18064,0.46423 -0.27096,0.69635c-0.01186,0.00398 -0.02007,0.01459 -0.02372,0.03051c-0.06934,-0.38996 -0.02828,-0.79052 -0.04379,-1.18446c-0.01825,-0.44036 -0.01186,-0.43638 0.29286,-0.45628c1.72613,-0.11274 3.45317,-0.22549 5.1793,-0.34884c0.17061,-0.01194 0.23173,0.02785 0.22626,0.29976c-0.01186,0.56769 0.00365,1.13671 0.0146,1.70573c0.00274,0.1658 -0.02737,0.1963 -0.12043,0.10744c-0.0146,-0.01326 -0.02828,-0.02653 -0.04288,-0.03979c-0.10492,-0.09815 -0.15236,-0.23344 -0.15966,-0.41781c-0.0073,-0.19365 -0.03741,-0.38598 -0.05748,-0.5783c-0.00912,-0.08356 -0.00912,-0.17641 -0.09488,-0.16978c-0.16878,0.01061 -0.35398,-0.03847 -0.49996,0.0504c-0.10766,0.06499 -0.09032,0.34486 -0.13594,0.52657c-0.01825,0.0703 -0.02919,0.14458 -0.04379,0.21753c-0.06751,-0.28385 -0.03284,-0.57963 -0.04744,-0.86878c-0.01916,-0.36343 -0.01186,-0.36343 -0.26093,-0.33292c-0.11313,-0.04908 -0.15692,0.00796 -0.14415,0.18039c0.00821,0.10611 -0.00091,0.21487 -0.00182,0.32098c-0.28921,0.00398 -0.57842,0.01326 -0.86671,0.01061c-0.08576,0 -0.13867,0.02387 -0.16239,0.16049c-0.04744,0.2666 -0.10674,0.52923 -0.16057,0.79318l-0.00091,0.00531c-0.05748,-0.32231 -0.03284,-0.65523 -0.052,-0.98152c-0.02098,-0.34619 -0.01368,-0.34619 -0.26184,-0.31435c-0.12955,-0.05173 -0.19798,-0.00928 -0.16422,0.21222c0.01095,0.06765 0.03376,0.1459 -0.01368,0.21089c-0.17426,0.01326 -0.34851,0.0199 -0.52185,0.04112c-0.3549,0.04377 -0.3549,0.04775 -0.45799,0.54647c-0.00456,0.01326 -0.00456,0.03051 -0.00547,0.04775z" data-paper-data="{&quot;origPos&quot;:null}" id="XMLID_305_" fill="#39494e"/><path d="M236.05125,182.18756c0.0146,-0.07295 0.02555,-0.14723 0.04379,-0.21753c0.04562,-0.18039 0.02828,-0.46158 0.13594,-0.52657c0.14597,-0.08754 0.33118,-0.03847 0.49996,-0.0504c0.08576,-0.00531 0.08667,0.08621 0.09488,0.16978c0.02007,0.19233 0.05018,0.38465 0.05748,0.5783c0.0073,0.18437 0.05474,0.31966 0.15966,0.41781c-0.11404,-0.01857 -0.22808,-0.03714 -0.34212,-0.05703c-0.06842,-0.01194 -0.12316,-0.05969 -0.13867,-0.16182c-0.03284,-0.22283 -0.11404,-0.2162 -0.22352,-0.11009c-0.05292,0.05173 -0.10948,0.09285 -0.16331,0.1406c-0.06934,0.06234 -0.10766,0.03449 -0.11678,-0.08224c-0.00274,-0.03316 -0.00456,-0.06632 -0.0073,-0.10081z" data-paper-data="{&quot;origPos&quot;:null}" id="XMLID_304_" fill="#9dd46e"/><path d="M235.596,181.48723c0.00091,-0.10744 0.01004,-0.2162 0.00182,-0.32098c-0.01277,-0.17243 0.03193,-0.22946 0.14415,-0.18039c-0.02281,0.54647 -0.04744,1.09161 -0.06751,1.63808c-0.00365,0.10876 -0.03649,0.14723 -0.10766,0.14723c-0.34851,-0.00133 -0.69702,-0.00265 -1.04462,0c-0.17882,0.00133 -0.08393,-0.20426 -0.11769,-0.31303l0.00091,-0.00531c0.15875,-0.00928 0.32661,0.08621 0.4735,-0.0504c0.09579,-0.08887 0.16604,-0.26926 0.27826,-0.28783c0.12773,-0.0199 0.19706,0.18437 0.29742,0.27854c0.07846,0.07295 0.10948,0.0756 0.11222,-0.0756c0.0073,-0.27721 0.02007,-0.55443 0.02919,-0.83032z" data-paper-data="{&quot;origPos&quot;:null}" id="XMLID_303_" fill="#fefefe"/><path d="M233.91366,181.58273c0.04744,-0.06367 0.02463,-0.14192 0.01368,-0.21089c-0.03467,-0.22151 0.03467,-0.26395 0.16422,-0.21222c-0.01095,0.48148 -0.02555,0.96295 -0.03011,1.44443c-0.00182,0.17774 -0.06113,0.23079 -0.16331,0.20426c-0.23721,-0.06101 -0.47624,-0.02918 -0.71436,-0.03581c-0.24177,-0.00663 -0.24177,-0.00265 -0.24086,-0.35945c0.28009,-0.20294 0.56108,-0.20559 0.84391,-0.00796c0.01004,0.00663 0.02281,0.00663 0.03284,0.01326c0.07572,0.04908 0.10492,0.01194 0.10309,-0.10611c-0.00547,-0.2414 -0.00639,-0.48546 -0.00912,-0.72951z" data-paper-data="{&quot;origPos&quot;:null}" id="XMLID_302_" fill="#fefefe"/><path d="M233.91366,181.58273c0.00274,0.24405 0.00365,0.48811 0.00821,0.73084c0.00274,0.11805 -0.02737,0.15519 -0.10309,0.10611c-0.01004,-0.00663 -0.02281,-0.00663 -0.03284,-0.01326c-0.28191,-0.19763 -0.56291,-0.19498 -0.84391,0.00796c-0.00456,-0.06367 -0.00821,-0.12733 -0.01277,-0.191c0.00091,-0.01724 0,-0.03449 0.00365,-0.0504c0.10401,-0.50005 0.10401,-0.5027 0.45799,-0.54647c0.17426,-0.02387 0.34851,-0.03051 0.52277,-0.04377z" data-paper-data="{&quot;origPos&quot;:null}" id="XMLID_301_" fill="#9dd46e"/><path d="M231.53795,182.47538c0.00365,-0.01724 0.01186,-0.02653 0.02372,-0.03051c0.09762,0.00663 0.19615,0.02785 0.29286,0.01857c0.18155,-0.01592 0.42606,0.12733 0.52733,-0.06101c0.10218,-0.18967 0.02646,-0.53188 -0.00091,-0.80511c0.08667,0.00663 0.07025,-0.08621 0.0666,-0.15519c-0.01004,-0.16712 0.03558,-0.22018 0.14324,-0.16049c-0.05748,0.33955 -0.04927,0.68839 -0.06751,1.03193c-0.02463,0.46158 -0.01277,0.46556 -0.33756,0.45495c-0.19706,-0.00663 -0.39595,0.01592 -0.5921,-0.04642c-0.04288,-0.01326 -0.09671,0.02122 -0.12043,-0.06499c-0.02828,-0.0955 0.04014,-0.12203 0.06478,-0.18171z" data-paper-data="{&quot;origPos&quot;:null}" id="XMLID_300_" fill="#fefefe"/><path d="M236.05855,182.28969c0.01004,0.1154 0.04744,0.14325 0.11678,0.08224c0.05383,-0.04775 0.1113,-0.09019 0.16331,-0.1406c0.10948,-0.10611 0.18976,-0.11274 0.22352,0.11009c0.01551,0.10213 0.07025,0.14988 0.13867,0.16182c0.11404,0.0199 0.22808,0.03847 0.34212,0.05703c0.0146,0.01326 0.02828,0.02653 0.04288,0.03979c-0.0666,0.10213 -0.15327,0.05703 -0.23082,0.05969c-0.22626,0.00796 -0.45343,0.01061 -0.67969,0.00796c-0.05839,-0.00133 -0.14141,0.05173 -0.17061,-0.05969c-0.03102,-0.11142 -0.02646,-0.23477 0.05383,-0.31833z" data-paper-data="{&quot;origPos&quot;:null}" id="XMLID_299_" fill="#fefefe"/><path d="M240.88843,186.26486c-0.28738,-0.12203 -0.58663,-0.11009 -0.87949,-0.17243c-1.08294,-0.23079 -2.16405,0.00133 -3.24699,0.04112c-0.29742,0.01061 -0.59393,0.01592 -0.89135,0.04377c-0.59302,0.05571 -1.18785,0.0756 -1.78269,0.10876c-0.02281,0.00133 -0.04562,-0.00531 -0.06751,-0.00663c-0.01916,-0.07693 0.0219,-0.09019 0.04927,-0.1154c0.53371,-0.5027 1.06834,-1.00142 1.60023,-1.5081c0.08667,-0.08224 0.17243,-0.12335 0.27735,-0.12335c1.48801,-0.01326 2.97694,-0.01194 4.46495,-0.05306c0.8211,-0.02255 1.64128,-0.11937 2.46238,-0.18171c0.09853,-0.00796 0.19798,-0.00265 0.29742,-0.00265c-0.65505,0.63003 -1.31102,1.25741 -1.96516,1.88877c-0.10036,0.0955 -0.2071,0.10213 -0.3184,0.08091z" data-paper-data="{&quot;origPos&quot;:null}" id="XMLID_298_" fill="#728287"/><path d="M236.01749,187.52227c0.04014,0.21089 0.07664,0.42312 0.12225,0.63136c0.02828,0.12866 0.00274,0.16978 -0.08576,0.16447c-0.37679,-0.02122 -0.75359,-0.04244 -1.13129,-0.05969c-0.09762,-0.00398 -0.09306,-0.0955 -0.09123,-0.191c0.32023,0.01326 0.64137,0.01459 0.9616,0.04377c0.13776,0.01194 0.16787,-0.05306 0.16513,-0.23875c0,-0.11407 -0.06842,-0.27323 0.0593,-0.35017z" data-paper-data="{&quot;origPos&quot;:null}" id="XMLID_297_" fill="#fefefe"/><path d="M239.80275,187.40953c0.00365,0.22814 -0.00639,0.45628 0.02646,0.68176c0.0219,0.1459 0.00091,0.23742 -0.12864,0.23344c-0.3549,-0.01061 -0.70979,-0.00531 -1.06469,-0.00265c-0.07207,0 -0.13046,-0.00796 -0.12225,-0.14458c0.34212,-0.0199 0.68516,-0.04908 1.0282,-0.05571c0.11404,-0.00265 0.1551,-0.05571 0.15783,-0.21355c0.00274,-0.13529 0.02098,-0.26793 0.03102,-0.40322c0.00547,-0.06234 0.01186,-0.1207 0.07207,-0.0955z" data-paper-data="{&quot;origPos&quot;:null}" id="XMLID_296_" fill="#fefefe"/><path d="M237.94981,187.62042c0.00274,0.00796 0.00547,0.01459 0.00821,0.02255c0.15966,0.58759 0.1405,0.63003 -0.27644,0.63003c-0.23812,0 -0.47624,-0.00133 -0.71527,0c-0.07846,0 -0.15601,0.00663 -0.16969,-0.14855c0.31384,-0.00398 0.62768,-0.0199 0.94153,-0.00531c0.14324,0.00663 0.18247,-0.06101 0.17152,-0.25599c-0.00456,-0.07826 -0.04288,-0.18835 0.04014,-0.24273z" data-paper-data="{&quot;origPos&quot;:null}" id="XMLID_295_" fill="#fefefe"/><path d="M228.66593,187.88968c-0.18612,0 -0.37314,0 -0.55926,0c-0.03467,0 -0.09032,0.01194 -0.10036,-0.01194c-0.07664,-0.18171 0.01004,-0.37006 -0.00274,-0.55708c-0.0073,-0.10611 0.03467,-0.14723 0.10583,-0.15121c0.40234,-0.01724 0.80376,-0.03847 1.2061,-0.05571c0.02737,-0.00133 0.07664,0.01061 0.07846,0.02653c0.02646,0.22681 0.01095,0.4576 -0.02372,0.67778c-0.02281,0.14458 -0.12955,0.06632 -0.19706,0.0703c-0.16878,0.00796 -0.33847,0.00133 -0.50726,0.00133z" data-paper-data="{&quot;origPos&quot;:null}" id="XMLID_294_" fill="#39494e"/><path d="M230.42308,187.92814c-0.19159,0 -0.38409,-0.00663 -0.57568,0.00265c-0.10492,0.00531 -0.12225,-0.04775 -0.11222,-0.19233c0.03649,-0.53055 0.03284,-0.53321 0.3996,-0.55708c0.30198,-0.01857 0.60488,-0.0252 0.90686,-0.04775c0.10857,-0.00796 0.13685,0.03183 0.12681,0.1963c-0.03741,0.59555 -0.03193,0.59687 -0.44795,0.59687c-0.09944,0.00133 -0.19798,0.00133 -0.29742,0.00133z" data-paper-data="{&quot;origPos&quot;:null}" id="XMLID_293_" fill="#39494e"/><path d="M226.86864,187.9109c-0.19798,0 -0.39686,-0.00398 -0.59484,0.00265c-0.08485,0.00265 -0.10674,-0.03847 -0.10492,-0.16182c0.00821,-0.54249 0.00456,-0.54514 0.37588,-0.56769c0.30837,-0.01857 0.61765,-0.02387 0.92602,-0.04908c0.12043,-0.01061 0.14597,0.04642 0.13594,0.21355c-0.03467,0.56239 -0.03102,0.56371 -0.42332,0.56371c-0.10492,-0.00133 -0.20984,-0.00133 -0.31475,-0.00133z" data-paper-data="{&quot;origPos&quot;:null}" id="XMLID_292_" fill="#39494e"/><path d="M228.46066,183.83758c0.00639,0.42179 -0.07755,0.508 -0.36311,0.3873c-0.06021,-0.0252 -0.06842,-0.07295 -0.06751,-0.14723c0.00274,-0.12733 0.01368,-0.25599 0.00274,-0.38067c-0.02281,-0.26262 0.04379,-0.35547 0.22808,-0.33027c0.1925,0.02653 0.19341,0.00663 0.1998,0.47087z" data-paper-data="{&quot;origPos&quot;:null}" id="XMLID_291_" fill="#39494e"/><path d="M227.71619,183.82034c0,0.00796 0,0.01724 0,0.0252c0.00547,0.45495 0.00182,0.45628 -0.31293,0.41383c-0.07846,-0.01061 -0.09762,-0.05571 -0.09397,-0.15784c0.00639,-0.16049 0.01733,-0.32098 0.01004,-0.48015c-0.00912,-0.18835 0.03741,-0.24803 0.16696,-0.24273c0.26914,0.01326 0.21713,-0.07295 0.22991,0.44169z" data-paper-data="{&quot;origPos&quot;:null}" id="XMLID_290_" fill="#39494e"/><path d="M235.19001,184.79125c0.01642,0.01061 0.05383,0.00398 0.03467,0.04908c-0.01277,0.03183 -0.03923,0.01061 -0.05383,-0.01857c0.0073,-0.00928 0.01368,-0.0199 0.01916,-0.03051z" data-paper-data="{&quot;origPos&quot;:null}" id="XMLID_288_" fill="#728287"/><path d="M239.20153,182.20745c0.00274,-0.03979 -0.00091,-0.06897 0.0073,-0.08754c0.14689,-0.33955 0.11678,-0.66584 -0.02828,-0.98816c-0.052,-0.11672 -0.03467,-0.16845 0.06751,-0.19498c0.38409,-0.09683 0.38318,-0.10213 0.40781,0.46556c0.00182,0.04244 0.00365,0.08489 0.00456,0.12733c0.02372,0.65921 0.02372,0.65921 -0.4589,0.67778z" data-paper-data="{&quot;origPos&quot;:null}" id="XMLID_287_" fill="#39494e"/><path d="M244.15001,179.03873c0.00182,0.29711 0.00182,0.59422 0.00456,0.89c0.00091,0.10346 -0.0073,0.18171 -0.09944,0.18437c-0.33118,0.01061 -0.66326,0.02653 -0.99444,0.04112c0.07299,-0.28119 0.14597,-0.56106 0.21805,-0.84225c0.02098,-0.07958 0.03923,-0.15386 0.11404,-0.16182c0.25272,-0.0252 0.50178,-0.11407 0.75723,-0.11142z" data-paper-data="{&quot;origPos&quot;:null}" id="XMLID_286_" fill="#9dd46e"/><path d="M242.54704,179.26952c-0.00091,0.21089 -0.01733,0.42577 0.00091,0.63401c0.02555,0.29313 -0.05474,0.42179 -0.24998,0.42312c-0.02007,-0.30242 -0.03832,-0.60616 -0.06021,-0.90857c-0.0073,-0.0955 0.0146,-0.1459 0.08302,-0.14723c0.07572,-0.00133 0.15145,0 0.22626,-0.00133z" data-paper-data="{&quot;origPos&quot;:null}" id="XMLID_285_" fill="#9dd46e"/><path d="M235.596,181.48723c-0.01004,0.27721 -0.0219,0.5531 -0.02828,0.83032c-0.00365,0.14988 -0.03376,0.14855 -0.11222,0.0756c-0.10036,-0.09417 -0.16969,-0.29844 -0.29742,-0.27854c-0.11222,0.01724 -0.18247,0.19763 -0.27826,0.28783c-0.14689,0.13662 -0.31475,0.04112 -0.4735,0.0504c0.05474,-0.26395 0.11313,-0.52657 0.16057,-0.79318c0.02372,-0.13662 0.07664,-0.16049 0.16239,-0.16049c0.28921,0 0.57842,-0.00796 0.86671,-0.01194z" data-paper-data="{&quot;origPos&quot;:null}" id="XMLID_284_" fill="#9dd46e"/><path d="M232.38185,181.59732c0.02737,0.27323 0.10309,0.61544 0.00091,0.80511c-0.10218,0.18835 -0.34669,0.0451 -0.52733,0.06101c-0.09671,0.00928 -0.19524,-0.01194 -0.29286,-0.01857c0.09032,-0.23212 0.18338,-0.46158 0.27096,-0.69635c0.03102,-0.08356 0.07299,-0.11805 0.13685,-0.12468c0.13594,-0.01194 0.27279,-0.04908 0.41146,-0.02653z" data-paper-data="{&quot;origPos&quot;:null}" id="XMLID_283_" fill="#9dd46e"/></g></g></g></svg>