<svg version="1.1" xmlns="http://www.w3.org/2000/svg" xmlns:xlink="http://www.w3.org/1999/xlink" width="37" height="37"><defs><linearGradient x1="240" y1="164.6667" x2="240" y2="194.5197" gradientUnits="userSpaceOnUse" id="color-1"><stop offset="0" stop-color="#333333" stop-opacity="0.2"/><stop offset="1" stop-color="#000000" stop-opacity="0.2"/></linearGradient><linearGradient x1="240" y1="195.3333" x2="240" y2="165.4803" gradientUnits="userSpaceOnUse" id="color-2"><stop offset="0" stop-color="#333333" stop-opacity="0.2"/><stop offset="1" stop-color="#000000" stop-opacity="0.2"/></linearGradient></defs><g transform="translate(-221.5,-161.5)"><g data-paper-data="{&quot;isPaintingLayer&quot;:true}" fill="none" fill-rule="nonzero" stroke="none" stroke-width="1" stroke-linecap="butt" stroke-linejoin="miter" stroke-miterlimit="10" stroke-dasharray="" stroke-dashoffset="0" font-family="none" font-weight="none" font-size="none" text-anchor="none" style="mix-blend-mode: normal"><path d="M253.5,198.5h-27c-2.75,0 -5,-2.25 -5,-5v-27c0,-2.75 2.25,-5 5,-5h27c2.75,0 5,2.25 5,5v27c0,2.75 -2.25,5 -5,5z" data-paper-data="{&quot;origPos&quot;:null}" id="XMLID_1_" fill="url(#color-1)"/><path d="M258.5,166.5v27c0,2.75 -2.25,5 -5,5h-27c-2.75,0 -5,-2.25 -5,-5v-27c0,-2.75 2.25,-5 5,-5h27c2.75,0 5,2.25 5,5z" data-paper-data="{&quot;origPos&quot;:null,&quot;index&quot;:null}" id="XMLID_1_" fill="url(#color-2)"/><g data-paper-data="{&quot;origPos&quot;:null}"><path d="M249.92327,192.68025c0.00453,0.18068 -0.00407,0.2572 -0.19369,0.24942c-0.43354,-0.01815 -0.86845,0.06657 -1.30289,0.06657c-0.18103,0 -0.36204,0 -0.54307,0c-0.47518,-1.29677 -0.93542,-2.1133 -1.52147,-3.0794c-0.43535,0.10071 -0.87026,0.12881 -1.30561,0.22952c-0.79513,0.13832 -1.58981,0.27665 -2.3845,0.41497c-0.25297,0.00605 -0.50596,0.01168 -0.75893,0.01773c-0.39011,0.11888 -0.78699,0.19797 -1.19927,0.19755c-0.98792,-0.00129 -1.97539,0.00173 -2.96331,-0.00217c-0.17469,-0.00086 -0.36339,0.04582 -0.51047,-0.0964c-1.25357,-0.03112 -2.4922,-0.15821 -3.69328,-0.52605c-0.51636,-0.14524 -1.04268,-0.26195 -1.51966,-0.51352c-0.63809,-0.16858 -1.19382,-0.49925 -1.68982,-0.89174c-0.46884,-0.37088 -0.27696,-0.96868 -0.34212,-1.46059c-0.08327,-0.62808 -0.02218,-1.27299 -0.0267,-1.91058c-0.18373,-1.30413 -0.0086,-2.61906 -0.10499,-3.92273c-0.12672,-1.71779 -0.04707,-3.43991 -0.1792,-5.15597c-0.01177,-0.15258 -0.16111,-0.32506 -0.16111,-0.35532c0,-1.38323 0,-2.76645 0,-4.14968c0,-0.27665 0,-0.55329 0,-0.82994c0,0.00259 0.17876,-0.07996 0.27832,-0.15778c0.63855,-0.49752 1.29973,-0.83814 2.11748,-0.99548c1.1264,-0.21699 2.2433,-0.48111 3.36427,-0.72187c-0.00046,0.05619 -0.00815,0.09035 -0.01811,0.134c0.00996,-0.04323 0.01765,-0.11412 0.01811,-0.17031c0.25116,-0.07954 0.60235,0.1716 0.76165,-0.26066c2.13604,0 4.27209,0 6.40813,0c0.10861,0 0.21723,0 0.32584,0c0.21723,0 0.43445,0 0.65167,0c0.019,0 0.07558,0.24164 0.20274,0.24812c0.78699,0.03675 1.53189,0.32636 2.29579,0.47591c-0.02806,0.1915 -0.12988,0.27968 -0.25705,0.32592c0.12716,-0.04626 0.22854,-0.13444 0.25659,-0.32592c0.16608,0.09293 0.33715,0.16426 0.52043,0.22952c0.48739,0.17333 1.03001,0.23515 1.43369,0.59436c0.50324,0.23601 1.18342,0.28573 1.1884,1.0413c0.06516,2.28188 0.26792,4.55946 0.21677,6.84481c0.2127,0.77028 0.15432,1.57169 0.17831,2.34802c0.0534,1.71261 0.28782,3.41614 0.23759,5.13219c-0.00497,0.16426 0.18419,0.36137 0.18419,0.40417c0,1.55613 0,3.11226 0,4.66838c0,0.62245 0.01992,1.28121 0.0353,1.90366zM242.4064,170.36192c-0.00316,0 -0.00724,0.00129 -0.01086,0.00173c0.00362,-0.00044 0.00769,-0.00173 0.01086,-0.00173zM240.42648,170.10948c-0.11766,-0.02636 -0.23578,-0.03804 -0.3557,-0.00086c0,0.03804 -0.00046,0.07608 -0.00091,0.11454c0.00046,-0.03804 0.00046,-0.0765 0.00091,-0.11454c0.11993,-0.03717 0.2385,-0.02551 0.3557,0.00086zM238.27188,171.13651c-0.02489,-0.02724 -0.06516,-0.04409 -0.1145,-0.05274c-0.08462,0.00865 -0.15839,0.03285 -0.19324,0.0964c0.03485,-0.06355 0.10861,-0.08774 0.19324,-0.0964c0.04978,0.00907 0.09005,0.02594 0.1145,0.05274zM233.00372,173.03716l-0.00046,0.00086v0zM231.80809,172.62263v0c0.05295,-0.06052 0.10589,-0.1193 0.1507,-0.17809c-0.0448,0.05879 -0.0982,0.11757 -0.1507,0.17809zM237.56545,175.73358c-0.07241,0.00044 -0.14481,0.00044 -0.21723,0.00044c-0.07241,0.13832 -0.14481,0.27665 -0.21723,0.41453c0.07241,-0.13832 0.14481,-0.27622 0.21723,-0.41453c0.07241,0 0.14481,0 0.21723,-0.00044z" data-paper-data="{&quot;origPos&quot;:null}" id="XMLID_47_" fill="#878787"/><g data-paper-data="{&quot;origPos&quot;:null}" id="XMLID_2_"><path d="M249.94725,186.10821c0,1.55613 0,3.11226 0,4.66838c-0.48831,0.31641 -0.61592,0.88657 -0.98838,1.28986c-0.21134,0.22867 -0.57609,0.38947 -0.5322,0.78498c-0.18103,0 -0.36204,0 -0.54307,0c-0.47518,-1.01711 -0.93542,-2.04112 -1.52147,-3.00721c-0.00272,-0.65012 -0.33851,-1.22458 -0.57112,-1.79431c-0.37019,-0.90601 -0.89831,-1.75368 -1.29249,-2.66315c-0.5064,-1.16925 -1.13862,-2.28881 -1.71653,-3.42953c0.34258,0.08732 0.54351,0.31382 0.66389,0.61899c0.11404,0.28831 0.38512,0.36613 0.65349,0.37303c0.15568,0.0039 0.44034,-0.11757 0.21496,-0.31814c-0.39055,-0.34754 -0.09593,-0.46036 0.16835,-0.56799c0.43128,-0.1755 0.84536,-0.37606 1.22732,-0.63498c0.124,-0.0843 0.20953,-0.20965 0.18962,-0.3523c-0.0267,-0.19365 -0.23216,-0.10937 -0.34485,-0.16858c-0.24573,-0.12881 -0.40005,0.08559 -0.59918,0.10806c-0.13078,0.0147 -0.30592,0.17031 -0.391,0.00995c-0.10227,-0.19236 0.14119,-0.18587 0.24528,-0.2572c0.20274,-0.13832 0.43807,-0.23903 0.53537,-0.49062c0.11857,-0.30777 0.3367,-0.52995 0.6847,-0.6004c0.1869,-0.03804 0.27742,-0.1448 0.16157,-0.28573c-0.16111,-0.19538 -0.08961,-0.33284 0.02489,-0.5053c0.14346,-0.21569 0.143,-0.42966 -0.24754,-0.60689c0.18962,0 0.24528,-0.01427 0.28782,0.00217c0.26746,0.10374 0.40005,-0.07738 0.54532,-0.22952c0.06834,-0.07175 0.08599,-0.15431 0.00091,-0.2252c-0.17469,-0.1461 -0.35978,-0.09769 -0.55935,-0.03933c-0.1403,0.04107 -0.25796,0.11239 -0.38603,0.16641c-0.26972,0.11369 -0.53718,0.0964 -0.88384,-0.27276c0.89153,0.16209 1.22823,-0.29134 1.48527,-0.8308c0.06246,-0.13098 0.16789,-0.16124 0.27605,-0.21959c0.37154,-0.1997 0.48197,-0.58831 0.68969,-0.90515c0.04435,-0.06787 0.03258,-0.17248 -0.04208,-0.23947c-0.05793,-0.05187 -0.17242,-0.0657 -0.18826,-0.00734c-0.12672,0.46899 -0.78563,0.06743 -0.94674,0.52951c-0.02036,0.05879 -0.42676,0.24034 -0.63719,0.05706c-0.22446,-0.19582 0.04435,-0.37606 0.0973,-0.55719c0.11314,-0.38688 0.48469,-0.54205 0.8164,-0.69248c0.44259,-0.20057 0.80373,-0.68124 0.75396,-0.94578c-0.12219,-0.64969 0.04254,-1.04606 0.60416,-1.35254v0c0.15477,-0.00302 0.26339,-0.07218 0.32628,-0.20748c0.2118,-0.03329 0.43173,-0.12622 0.37335,-0.34667c-0.06381,-0.24076 -0.31135,-0.11281 -0.50053,-0.12622c-0.45165,-0.03199 -0.7992,0.11627 -1.21692,0.28227c-0.9232,0.36698 -1.94732,0.23213 -2.90447,-0.01297c-0.39734,-0.10159 -0.74038,-0.16297 -1.06757,0.06613c-0.28239,0.19755 -0.57791,0.252 -0.9128,0.24552c-0.28601,-0.00561 -0.57022,-0.00173 -0.85939,0.04884c-1.21692,0.21354 -2.44151,-0.00995 -3.66295,0.02248c-0.14255,0.0039 -0.32222,-0.0497 -0.43535,-0.17938c0.12581,-0.14005 0.30865,-0.13314 0.45436,-0.09683c0.64262,0.1608 1.302,-0.0765 1.96362,0.15648c0.42992,0.15173 0.95308,-0.04582 1.42373,-0.16209c0.15839,-0.03933 0.17423,-0.15561 0.17785,-0.28183c0.07196,-0.00692 0.14392,-0.01383 0.21587,-0.02075c0.25796,0.35272 0.72997,0.42102 0.98792,0.24596c0.65439,-0.4448 1.57624,-0.32506 2.11024,-0.97387c0.08418,-0.10244 0.22085,-0.13271 0.3453,-0.07045c0.50188,0.25157 1.02729,-0.51957 1.53189,0.03545c0.0457,0.05014 0.17785,-0.08299 0.23442,-0.17419c0.14211,-0.22823 0.28827,-0.24206 0.43853,-0.00692c0.11812,0.18501 0.2937,0.27146 0.3978,0.03458c0.12672,-0.28919 0.40005,-0.43097 0.58108,-0.6592c0.50324,0.23601 1.18523,0.28573 1.19021,1.0413c-0.29507,0.05792 -0.18373,0.28702 -0.21496,0.45906c-0.13441,0.74045 0.12672,1.47183 0.01539,2.22223c-0.15839,1.06595 0.27289,2.10855 0.24754,3.17925c-0.00769,0.32809 -0.03847,0.68168 0.17242,0.98468c0.2127,0.77071 0.16157,1.57213 0.18554,2.34802c0.0534,1.71303 0.30276,3.41614 0.25253,5.13219c-0.00453,0.16599 -0.04661,0.36267 0.21405,0.40546z" id="XMLID_140_" fill="#ededed"/><path d="M233.54634,190.15197c-0.51636,-0.1448 -1.04358,-0.26195 -1.52058,-0.51352c-0.26611,-0.41497 -0.71593,-0.654 -1.05128,-0.99894c-0.66888,-0.68858 -0.72499,-1.57601 -0.79196,-2.45004c-0.02218,-0.28746 0.05114,-0.5935 -0.22673,-0.81395c-0.18373,-1.30413 -0.02173,-2.61862 -0.11812,-3.92273c-0.12672,-1.71779 -0.07331,-3.43991 -0.205,-5.15597c-0.01177,-0.15258 0.019,-0.32506 -0.21315,-0.35532c0,-1.38323 0,-2.76645 0,-4.14968c0.27877,-0.01297 0.37381,0.32204 0.65031,0.31295c0.05838,0.2909 0.39417,0.31468 0.54488,0.51654c0.35163,0.37649 0.85577,0.54119 1.27077,0.8308c0.11042,0.07738 0.30684,0.07306 0.32403,0.23428c0.02262,0.20791 -0.18465,0.22564 -0.329,0.27707c-0.12354,0.04409 -0.24438,0.08472 -0.26247,0.2265c-0.02399,0.18458 0.15161,0.20879 0.26474,0.28312c0.23488,0.15346 0.52043,0.13746 0.77974,0.18889c0.33942,0.06787 0.35254,0.20272 0.248,0.46597c-0.09277,0.23342 -0.22174,0.39335 -0.49826,0.39725c-0.22266,0.00302 -0.50459,0.21094 -0.44485,0.27405c0.34304,0.36179 0.22446,0.66308 0.05385,1.04391c-0.03439,0.0765 0.07422,0.38903 0.01222,0.6004c-0.08599,0.29394 -0.12038,0.56756 0.18872,0.78412c0.18781,0.13141 0.13124,0.26973 -0.01358,0.43226c-0.42811,0.48023 -0.48332,1.07805 -0.13622,1.63263c0.17288,0.27622 0.0878,0.47938 -0.00272,0.7612c-0.22582,0.70414 -0.66299,1.38797 -0.28374,2.19241c0.13531,0.28746 0.20999,0.73138 0.07015,0.97992c-0.30457,0.54205 -0.46161,1.02228 -0.08599,1.57169c0.02851,0.04192 0.01131,0.15129 -0.02761,0.19062c-0.34801,0.35057 -0.24619,0.72014 -0.08192,1.10529c0.06969,0.16382 0.02534,0.32462 -0.04435,0.49667c-0.19822,0.48932 0.00407,0.96178 0.29235,1.31839c0.29959,0.37088 0.74354,0.65054 1.22642,0.81956c0.22266,0.07694 0.38466,0.18458 0.41138,0.42361z" id="XMLID_138_" fill="#d8d8d8"/><path d="M230.06984,172.10521c-0.27651,0.00865 -0.37154,-0.32636 -0.65031,-0.31338c0,-0.27665 0,-0.55329 0,-0.82994c0.13803,0.00259 0.23035,-0.07694 0.33036,-0.15475c0.639,-0.49752 1.35177,-0.83512 2.16954,-0.99246c1.12595,-0.21657 2.2433,-0.47506 3.36427,-0.71582c-0.00543,0.51915 -0.43988,0.46555 -0.77567,0.50703c-0.30773,0.03804 -0.63719,-0.03372 -0.97162,0.27665c0.84717,0 1.61108,0.04799 2.36548,-0.01427c0.69693,-0.0575 1.39567,-0.24034 2.08897,-0.13098c0.5064,0.07996 0.99019,0.03241 1.47804,-0.01815c1.13953,-0.118 2.31797,-0.35057 3.40047,0.03502c0.825,0.29351 1.58484,0.31253 2.39309,0.15994c0.26066,-0.04928 0.61094,-0.01815 0.66707,-0.40114c0.16563,0.09293 0.33761,0.16426 0.52089,0.22952c0.48739,0.17333 1.03092,0.23515 1.43459,0.59436c-0.18103,0.22823 -0.45436,0.37001 -0.58108,0.6592c-0.10408,0.23688 -0.27968,0.15043 -0.3978,-0.03458c-0.15024,-0.23515 -0.29642,-0.22132 -0.43853,0.00692c-0.05703,0.0912 -0.18872,0.22477 -0.23442,0.17419c-0.50459,-0.55502 -1.03046,0.21613 -1.53189,-0.03545c-0.12446,-0.06225 -0.26066,-0.03199 -0.3453,0.07045c-0.53401,0.64881 -1.45586,0.52908 -2.11024,0.97387c-0.25796,0.1755 -0.72997,0.1072 -0.98792,-0.24596c0.73132,-0.07867 1.42735,-0.28097 2.1039,-0.54983c0.36884,-0.02897 0.73585,-0.24249 0.51862,-0.54983c-0.19143,-0.27059 -0.61094,-0.58916 -1.10105,-0.36396c-0.07331,0.00217 -0.14662,0.00432 -0.21993,0.00692c-0.05023,-0.08516 -0.12672,-0.10115 -0.21904,-0.0765c-0.07105,-0.01168 -0.14211,-0.02334 -0.2127,-0.03502c-0.45527,-0.17248 -0.93181,-0.20879 -1.41513,-0.19797c-0.06697,-0.05879 -0.13893,-0.06009 -0.21496,-0.01729c-0.14119,-0.03933 -0.28285,-0.05792 -0.42676,-0.01383c-0.07286,-0.00649 -0.14573,-0.01253 -0.21812,-0.01902c-0.1145,-0.04192 -0.22763,-0.04884 -0.33896,0.00995c-0.32811,-0.09293 -0.64761,0.0108 -0.97073,0.03848c-0.29914,-0.03717 -0.5933,-0.03112 -0.86935,0.10634c-0.72454,-0.01556 -1.31331,0.47418 -2.03648,0.49408c-0.19415,0.00519 -0.41092,0.16772 -0.43354,0.40071c-0.02534,0.25935 0.21361,0.3376 0.40549,0.41539c0.24257,0.09855 0.47201,0.25244 0.75712,0.22305c0.20817,0.10115 0.42901,0.12103 0.65755,0.09683c0.86889,0.1111 1.73825,0.21267 2.61123,0.03502c0.35978,-0.03675 0.72227,0.11627 1.08024,-0.01729c0.10861,0.01168 0.21768,0.0229 0.32628,0.03458c-0.00316,0.12622 -0.01946,0.24249 -0.17785,0.28183c-0.47065,0.11627 -0.99381,0.31338 -1.42373,0.16209c-0.66208,-0.23342 -1.32146,0.00432 -1.96362,-0.15648c-0.14573,-0.03631 -0.32855,-0.04323 -0.45436,0.09683c-0.07241,0 -0.14481,0 -0.21723,0c-0.11631,-0.14351 -0.28374,-0.09208 -0.43445,-0.1033c-0.07241,0 -0.14481,0 -0.21723,0c-0.20681,-0.01643 -0.42901,0.05404 -0.58561,-0.16858c-0.21993,-0.31295 -0.59511,-0.35574 -0.94085,-0.45387c-0.51093,-0.14524 -1.11419,-0.05274 -1.50157,-0.52693c-0.06562,-0.0804 -0.20953,-0.06484 -0.21812,0.02378c-0.06019,0.60733 -0.5227,0.39551 -0.86935,0.39639c-0.38603,0.00129 -0.36023,0.22435 -0.17423,0.37737c0.37743,0.3108 0.15477,0.52605 -0.05612,0.76769c-0.63584,0.00346 -1.11373,-0.48067 -1.73735,-0.51784zM234.04098,170.94849c-0.03077,-0.01902 -0.06924,-0.06138 -0.11133,-0.06528c-0.08055,-0.00734 -0.13847,0.04236 -0.143,0.11973c-0.00453,0.07911 0.0457,0.13183 0.13215,0.11585c0.07739,-0.01383 0.11812,-0.07133 0.12219,-0.17031z" id="XMLID_135_" fill="#e9e9e9"/><path d="M243.43052,168.88704c0.019,0.11196 0.07558,0.19321 0.20319,0.19928c0.78699,0.03675 1.53189,0.27795 2.29579,0.42707c-0.05612,0.38298 -0.40685,0.3523 -0.66707,0.40156c-0.8087,0.15215 -1.56809,0.13356 -2.39309,-0.15994c-1.0825,-0.38515 -2.2605,-0.15302 -3.40047,-0.03502c-0.48785,0.05058 -0.97162,0.09813 -1.47804,0.01815c-0.69331,-0.10937 -1.39205,0.07348 -2.08897,0.13098c-0.7544,0.06225 -1.51831,0.01427 -2.36548,0.01427c0.33443,-0.31036 0.66435,-0.23861 0.97162,-0.27665c0.33534,-0.0415 0.77024,0.0121 0.77567,-0.50703c0.25116,-0.07954 0.60235,0.16902 0.76165,-0.21181c2.13604,0 4.27209,0 6.40813,0c0.01765,0.10374 0.04616,0.20143 0.18826,0.18414c0.10907,-0.01339 0.12309,-0.10115 0.13758,-0.18414c0.21677,-0.00086 0.434,-0.00086 0.65123,-0.00086z" id="XMLID_133_" fill="#ededed"/><path d="M248.42669,192.85143c-0.04389,-0.39551 0.32085,-0.55588 0.5322,-0.78498c0.37245,-0.40373 0.50007,-0.97344 0.98838,-1.28986c0,0.62245 -0.0095,1.24534 0.00588,1.86735c0.00453,0.18068 -0.03393,0.22089 -0.22357,0.21311c-0.43354,-0.01773 -0.86845,-0.00561 -1.30289,-0.00561z" id="XMLID_131_" fill="#fefefe"/><path d="M242.77884,168.88704c-0.01449,0.08299 -0.02806,0.17075 -0.13758,0.18414c-0.14211,0.01729 -0.17061,-0.0804 -0.18826,-0.18414c0.10861,0 0.21723,0 0.32584,0z" id="XMLID_130_" fill="#fefefe"/><path d="M242.67203,190.56133c-0.25297,0.00605 -0.50596,0.0121 -0.75893,0.01773c-0.28827,-0.22391 -0.62634,-0.07911 -0.9404,-0.10979c-0.19686,-0.01946 -0.4082,-0.0415 -0.3548,-0.27405c0.12626,-0.54897 -0.18465,-0.98901 -0.34711,-1.46535c-0.08236,-0.24206 -0.09187,-0.43097 0.19369,-0.55415c0.31588,-0.13617 0.30185,-0.29221 -0.01811,-0.39639c-0.42042,-0.13659 -0.23035,-0.60733 -0.51274,-0.81264c0.34846,-0.29048 0.11857,-0.65444 0.05612,-0.94103c-0.10408,-0.47981 0.00181,-1.07719 -0.51908,-1.39577c-0.36431,-0.22262 -0.30366,-0.39293 -0.00815,-0.55719c0.30909,-0.1716 0.2222,-0.30863 0.11042,-0.57577c-0.10363,-0.24725 -0.47111,-0.41151 -0.29551,-0.77676c0.20319,-0.42231 0.01086,-0.9073 -0.10046,-1.26348c-0.16563,-0.53168 -0.01086,-0.97302 0.09005,-1.42472c0.05431,-0.24249 0.08689,-0.40459 -0.05973,-0.60257c-0.15161,-0.20533 -0.267,-0.43614 -0.49509,-0.58138c0.36385,-0.40761 -0.00815,-0.95919 0.23261,-1.32444c0.1602,-0.24293 0.26565,-0.73916 0.79151,-0.64839c0.04661,0.36871 0.51138,0.25676 0.65167,0.51742l0.00046,0.00044c-0.00272,0.15085 0.00272,0.29697 0.21542,0.31253v0c-0.0086,0.26498 0.12626,0.48889 0.20455,0.73138c0.16473,0.51266 0.82184,0.80054 0.69603,1.43164c0.39417,0.10634 0.14799,0.6164 0.51228,0.74133c0.32131,0.41453 0.52677,0.88916 0.76346,1.34734c0.57791,1.14072 1.21012,2.26027 1.71653,3.42953c0.39372,0.90947 0.92185,1.75712 1.29249,2.66315c0.23307,0.56972 0.5684,1.14418 0.57112,1.79431c-0.43535,0.10071 -0.87026,0.20099 -1.30561,0.30172c-0.11993,-0.18285 -0.12897,-0.49147 -0.46749,-0.44048c-0.47518,0.07175 -0.84943,-0.06094 -1.13002,-0.43312c-0.20953,-0.27795 -0.58197,-0.03675 -0.57293,0.01037c0.07286,0.38298 -0.27605,0.44738 -0.45481,0.63542c-0.17559,0.18414 -0.34665,0.37088 0.08373,0.4556c0.10635,0.02161 0.13893,0.10028 0.15885,0.1876z" id="XMLID_129_" fill="#dedede"/><path d="M242.78201,181.95767c-0.23669,-0.45819 -0.44215,-0.93281 -0.76346,-1.34734c-0.05204,-0.5239 0.02173,-1.05859 -0.50097,-1.47313c-0.22945,-0.18199 -0.44305,-0.55978 -0.34801,-0.87921c0.17016,-0.57187 -0.13486,-0.59436 -0.56388,-0.552v0c0.00316,-0.15129 -0.00316,-0.29653 -0.21542,-0.31253l-0.00046,-0.00044c-0.07422,-0.31209 -0.15024,-0.62418 -0.22085,-0.93671c-0.0258,-0.11454 -0.06562,-0.20057 -0.20862,-0.13314c-0.09413,0.04409 -0.19641,0.13054 -0.26836,-0.00173c-0.0706,-0.12924 0.08055,-0.15475 0.14799,-0.22347c0.21587,-0.21872 0.6209,-0.14912 0.76662,-0.46728c0.03576,-0.00044 0.07196,-0.00129 0.1077,-0.00173c0.67113,-0.16426 1.29836,-0.41712 1.84823,-0.82863c0.1792,0.00086 0.34212,-0.01858 0.51003,-0.11325c0.68924,-0.38859 1.35358,-0.82605 2.12835,-1.06076c0.07331,-0.02248 0.12354,-0.11498 0.18419,-0.17463c0.53084,-0.08299 0.98475,-0.32462 1.41196,-0.62245c0.40458,0.03241 0.68154,-0.34365 1.08612,-0.31123c-0.56207,0.30604 -0.72635,0.70285 -0.60416,1.35254c0.04978,0.26454 -0.3109,0.74479 -0.75396,0.94578c-0.33217,0.15043 -0.70327,0.3056 -0.8164,0.69248c-0.05295,0.18111 -0.32177,0.36137 -0.0973,0.55719c0.20999,0.18328 0.61638,0.00173 0.63719,-0.05706c0.16111,-0.46209 0.82003,-0.06052 0.94674,-0.52951c0.01584,-0.05836 0.13034,-0.04453 0.18826,0.00734c0.07466,0.06699 0.08643,0.17204 0.04208,0.23947c-0.20772,0.31685 -0.31815,0.70544 -0.68969,0.90515c-0.10861,0.05836 -0.21405,0.08862 -0.27605,0.21959c-0.25705,0.53946 -0.59374,0.99289 -1.48527,0.8308c0.34665,0.36915 0.61411,0.386 0.88384,0.27276c0.12807,-0.05404 0.24573,-0.12535 0.38603,-0.16641c0.19912,-0.05836 0.38422,-0.10676 0.55935,0.03933c0.08508,0.07089 0.06743,0.15346 -0.00091,0.2252c-0.14527,0.15215 -0.27787,0.33328 -0.54532,0.22952c-0.04254,-0.01643 -0.0982,-0.00217 -0.28782,-0.00217c0.39055,0.17765 0.391,0.3912 0.24754,0.60689c-0.11495,0.17248 -0.186,0.30992 -0.02489,0.5053c0.11585,0.14049 0.02534,0.24769 -0.16157,0.28573c-0.34801,0.07045 -0.56615,0.29263 -0.6847,0.6004c-0.09685,0.25157 -0.33217,0.3523 -0.53537,0.49062c-0.10454,0.07133 -0.34757,0.06484 -0.24528,0.2572c0.08508,0.16036 0.26022,0.00476 0.391,-0.00995c0.19958,-0.02248 0.35389,-0.23688 0.59918,-0.10806c0.11314,0.05921 0.31815,-0.02551 0.34485,0.16858c0.01992,0.14265 -0.06562,0.26844 -0.18962,0.3523c-0.38196,0.25893 -0.79604,0.4595 -1.22732,0.63498c-0.26474,0.10764 -0.5589,0.22001 -0.16835,0.56799c0.22538,0.20057 -0.05973,0.32204 -0.21496,0.31814c-0.26881,-0.00692 -0.53989,-0.08472 -0.65349,-0.37303c-0.12173,-0.30604 -0.32222,-0.5321 -0.6648,-0.61942z" id="XMLID_128_" fill="#f3f3f3"/><path d="M247.88362,172.51802c-0.40458,-0.03241 -0.68154,0.34365 -1.08612,0.31123c-0.0448,-0.25115 -0.24257,-0.22477 -0.41635,-0.18804c-0.27877,0.05879 -0.55257,0.14049 -0.82636,0.21916c-0.38059,0.10937 -0.43943,0.30863 -0.16926,0.59089c-0.06109,0.06009 -0.11088,0.15258 -0.18419,0.17463c-0.77523,0.23515 -1.43912,0.67259 -2.12835,1.06076c-0.16835,0.09467 -0.33081,0.11412 -0.51003,0.11325c-0.50053,-0.12622 -1.01597,0.00432 -1.50428,-0.04495c-1.22189,-0.1232 -2.44016,-0.20706 -3.66793,-0.18501c-0.16338,0.00302 -0.32222,-0.07608 -0.41318,-0.21354c-0.07649,-0.11542 -0.0887,-0.23559 0.12173,-0.2373c0.66616,-0.00561 1.33005,0.00995 1.99485,-0.08862c0.80645,-0.11973 1.62194,-0.18414 2.43382,-0.27017c0.13666,-0.01427 0.25569,-0.04365 0.25388,-0.2036c-0.00272,-0.19538 -0.15613,-0.20748 -0.30501,-0.20706c-0.52361,0.00044 -1.05354,-0.04409 -1.56946,0.01773c-1.6147,0.19321 -3.21447,0.01168 -4.82058,-0.09423c-0.70009,-0.04626 -1.37032,-0.31123 -2.08355,-0.23601l0.00046,-0.00086c0.00181,-0.18155 -0.01992,-0.35964 -0.24845,-0.39941c-0.21723,-0.0376 -0.34032,-0.10676 -0.22989,-0.34148c0.09187,-0.19494 0.19596,-0.29048 0.45617,-0.22737c0.33172,0.0804 0.67339,0.08169 0.97299,-0.15215c0.18781,-0.14653 0.30501,-0.03026 0.49238,0.0925c0.46884,0.30733 1.05354,0.30517 1.60566,0.36223c0.02715,0.00302 0.06743,-0.10676 0.10138,-0.16426c0.07241,0 0.14481,0 0.21723,0c0.081,0.27968 0.24301,0.24681 0.43445,0.1033c0.07241,0 0.14481,0 0.21723,0c0.11359,0.1301 0.29326,0.18328 0.43535,0.17938c1.22143,-0.03241 2.4465,0.19106 3.66295,-0.02248c0.28963,-0.05058 0.57338,-0.05489 0.85939,-0.04884c0.33489,0.00692 0.63085,-0.04799 0.9128,-0.24552c0.32765,-0.2291 0.67069,-0.16772 1.06757,-0.06613c0.95715,0.2451 1.98127,0.37996 2.90447,0.01297c0.41726,-0.16599 0.76527,-0.31382 1.21692,-0.28227c0.18916,0.01339 0.43671,-0.11412 0.50053,0.12622c0.05838,0.22045 -0.16111,0.31338 -0.37335,0.34667c-0.15793,-0.00086 -0.31045,0.00561 -0.32584,0.20835z" id="XMLID_127_" fill="#efefef"/><path d="M242.5598,170.4488c0.07331,-0.00217 0.14662,-0.00432 0.21949,-0.00692c0.32992,0.22564 0.92049,0.29956 0.58243,0.91379c-0.67701,0.26886 -1.37259,0.47116 -2.1039,0.54983c-0.07196,0.00692 -0.14392,0.01383 -0.21587,0.02075c-0.10861,-0.01168 -0.21768,-0.0229 -0.32628,-0.03458c0.05884,-0.18631 -0.24257,-0.46467 0.12309,-0.5628c0.44485,-0.11973 0.27515,-0.33716 0.01674,-0.68124c0.31678,0.15302 0.51003,-0.01512 0.67657,0.05101c0.41182,0.16382 0.49238,-0.10071 0.59601,-0.36179c0.07105,0.01168 0.14211,0.02334 0.2127,0.03502c0.03439,0.12708 0.08146,0.21916 0.21904,0.07694z" id="XMLID_126_" fill="#6a6a6a"/><path d="M249.07519,171.37859c0.06516,2.28188 0.27153,4.55988 0.22039,6.84481c-0.21089,-0.30302 -0.18012,-0.65659 -0.17242,-0.98468c0.02489,-1.07071 -0.40593,-2.1133 -0.24754,-3.17925c0.11133,-0.74996 -0.1498,-1.48178 -0.01539,-2.22223c0.03123,-0.1716 -0.08055,-0.40071 0.21496,-0.45862z" id="XMLID_125_" fill="#e6e6e6"/><path d="M247.88362,172.51802c0.01539,-0.20272 0.16789,-0.20921 0.32628,-0.20748c-0.06291,0.13529 -0.17151,0.20445 -0.32628,0.20748z" id="XMLID_124_" fill="#f3f3f3"/><path d="M233.54634,190.15197c-0.0267,-0.23903 -0.18872,-0.34667 -0.41092,-0.42448c-0.48288,-0.16858 -0.92728,-0.44868 -1.22642,-0.81956c-0.28782,-0.35662 -0.49057,-0.82907 -0.29235,-1.31839c0.06969,-0.17204 0.11404,-0.33284 0.04435,-0.49667c-0.16427,-0.38471 -0.26611,-0.75472 0.08192,-1.10529c0.03892,-0.03933 0.05657,-0.1487 0.02761,-0.19062c-0.37562,-0.54983 -0.21858,-1.02964 0.08599,-1.57169c0.13984,-0.24854 0.06516,-0.6929 -0.07015,-0.97992c-0.37924,-0.80444 0.05793,-1.48827 0.28374,-2.19241c0.09051,-0.28139 0.17559,-0.48499 0.00272,-0.7612c-0.34711,-0.55415 -0.29189,-1.15196 0.13622,-1.63263c0.14481,-0.16253 0.20139,-0.30041 0.01358,-0.43226c-0.30909,-0.21657 -0.2747,-0.49018 -0.18872,-0.78412c0.062,-0.21138 -0.04661,-0.5239 -0.01222,-0.6004c0.17061,-0.38039 0.28919,-0.68168 -0.05385,-1.04391c-0.05973,-0.06267 0.2222,-0.27102 0.44485,-0.27405c0.27651,-0.00346 0.40549,-0.16382 0.49826,-0.39725c0.10454,-0.26281 0.09142,-0.3981 -0.248,-0.46597c-0.25931,-0.05187 -0.54488,-0.03545 -0.77974,-0.18889c-0.11359,-0.07391 -0.28873,-0.09813 -0.26474,-0.28312c0.01855,-0.14222 0.13939,-0.18285 0.26247,-0.2265c0.14436,-0.05143 0.35163,-0.06916 0.329,-0.27707c-0.01765,-0.16124 -0.21361,-0.15734 -0.32403,-0.23428c-0.41454,-0.28961 -0.91913,-0.45431 -1.27077,-0.8308c0.29778,-0.00346 0.56207,0.12147 0.82862,0.21657c0.77703,0.27707 1.57578,0.57275 2.13332,1.16277c0.36928,0.39076 0.75666,0.74133 1.26035,0.81827c0.78201,0.1193 1.51243,0.44004 2.30077,0.48974c0.32811,0.02075 0.46793,0.11498 0.42766,0.42534c-0.07241,0 -0.14481,0 -0.21723,0.00044c-0.28963,-0.14049 -0.58017,-0.2719 -0.91596,-0.13832c-0.28963,0.11542 -0.577,0.08213 -0.88836,0.06355c-0.61819,-0.03717 -1.23954,-0.24681 -1.86904,-0.03372c-0.16292,0.05533 -0.329,0.07781 -0.32131,0.27622c0.00678,0.17377 0.14753,0.32419 0.30185,0.31987c0.52723,-0.01512 0.98249,0.3523 1.52058,0.23818c0.57247,0.18155 1.20197,0.11671 1.75952,0.39898c0.16789,0.08516 0.4073,0.07867 0.46793,0.2827c0.06291,0.21138 -0.205,0.25373 -0.29823,0.39378c-0.16699,0.25071 -0.39961,0.14265 -0.62996,0.08601c-0.50459,-0.12363 -0.88384,0.07348 -1.0997,0.52951c-0.14934,0.31555 -0.04616,0.54119 0.29507,0.53859c0.35389,-0.00259 0.33761,0.15821 0.31226,0.38384c-0.08055,0.71799 -0.10319,0.73484 -0.87432,0.56409c-0.10319,-0.0229 -0.20184,-0.08732 -0.33715,0.03848c0.31724,0.12017 0.26158,0.48326 0.51138,0.6579c0.59239,0.41368 0.66118,0.6203 0.33262,1.17488c-0.23397,0.39422 0.04345,0.74738 0.04208,1.11955c-0.00091,0.17809 0.66932,0.46121 -0.08915,0.5507c-0.11631,0.01383 -0.07241,0.25027 0.03032,0.36093c0.11903,0.12839 0.24981,0.24985 0.38919,0.35791c0.10816,0.08386 0.21361,0.18026 0.1145,0.29782c-0.23126,0.27449 -0.14165,0.62072 -0.23939,0.90947c-0.23669,0.0389 -0.08146,-0.53556 -0.42132,-0.23774c-0.2575,0.22564 -0.22627,1.08929 0.06834,1.30067c0.25659,0.18414 0.1593,0.36483 0.05431,0.4703c-0.267,0.26844 -0.15568,0.536 -0.01222,0.75732c0.19505,0.30041 0.18916,0.4664 -0.19505,0.54292c-0.24392,0.04841 -0.34123,0.19928 -0.27243,0.41539c0.081,0.25459 -0.05612,0.44955 -0.10907,0.67519c-0.05928,0.25157 -0.43581,0.64276 0.04073,0.81395c0.42631,0.15302 0.80192,0.42924 1.30651,0.4396c0.31678,0.00649 0.71323,0.05489 0.91777,0.39681c-1.25493,-0.03199 -2.49355,-0.15907 -3.69463,-0.52693z" id="XMLID_123_" fill="#dedede"/><path d="M237.24007,190.67846c-0.20455,-0.34191 -0.60144,-0.39032 -0.91777,-0.39681c-0.50415,-0.00995 -0.88021,-0.28658 -1.30651,-0.4396c-0.47699,-0.17117 -0.10001,-0.56236 -0.04073,-0.81395c0.05295,-0.22564 0.19007,-0.42058 0.10907,-0.67519c-0.06878,-0.21613 0.02806,-0.36698 0.27243,-0.41539c0.38466,-0.0765 0.39011,-0.24249 0.19505,-0.54292c-0.14346,-0.22089 -0.25478,-0.48845 0.01222,-0.75732c0.10499,-0.10547 0.2023,-0.28615 -0.05431,-0.4703c-0.29416,-0.21138 -0.32584,-1.07503 -0.06834,-1.30067c0.33986,-0.29782 0.18509,0.27622 0.42132,0.23774c0.09776,-0.28831 0.00815,-0.63498 0.23939,-0.90947c0.09911,-0.11757 -0.00634,-0.21396 -0.1145,-0.29782c-0.13939,-0.10806 -0.27017,-0.2291 -0.38919,-0.35791c-0.10273,-0.11066 -0.14662,-0.34711 -0.03032,-0.36093c0.75893,-0.08947 0.0887,-0.37261 0.08915,-0.5507c0.00135,-0.37218 -0.27605,-0.72533 -0.04208,-1.11955c0.329,-0.55458 0.26022,-0.7612 -0.33262,-1.17488c-0.24981,-0.17463 -0.19415,-0.53773 -0.51138,-0.6579c0.13531,-0.12578 0.23397,-0.06138 0.33715,-0.03848c0.7707,0.17075 0.79377,0.15431 0.87432,-0.56409c0.02534,-0.22564 0.04163,-0.38644 -0.31226,-0.38384c-0.34123,0.00259 -0.4444,-0.22305 -0.29507,-0.53859c0.21587,-0.4556 0.59511,-0.65315 1.0997,-0.52951c0.23035,0.05662 0.46296,0.1647 0.62996,-0.08601c0.09323,-0.14005 0.36114,-0.18241 0.29823,-0.39378c-0.06065,-0.20403 -0.29959,-0.19755 -0.46793,-0.2827c-0.55754,-0.28183 -1.18704,-0.21699 -1.75952,-0.39898c-0.08146,-0.17248 -0.16745,-0.49018 0.06607,-0.44653c0.5942,0.11022 1.21509,-0.18977 1.77943,0.13529c0.01811,0.09423 -0.0258,0.27017 0.10589,0.24769c0.16111,-0.02766 0.01674,-0.15994 0.00362,-0.24725c0.07241,-0.13832 0.14481,-0.27622 0.21723,-0.41453c0.07241,0 0.14481,0 0.21723,-0.00044c0.65167,-0.13659 1.30335,0.03848 1.95502,0.00044c0.01131,0.25893 -0.11947,0.36698 -0.38965,0.37822c-0.53808,0.0229 -1.02142,0.23169 -1.51424,0.46728c0.52586,0.11585 1.00602,0.46684 1.58302,0.19019c0.14481,-0.06916 0.29189,-0.13961 0.44577,-0.1837c0.11314,-0.03241 0.22311,0.02551 0.25569,0.13702c0.03439,0.11671 -0.07377,0.13444 -0.16292,0.15215c-0.52586,-0.0912 -0.63131,0.40502 -0.79151,0.64839c-0.24076,0.36525 0.13078,0.91639 -0.23261,1.32444c0.22808,0.14524 0.34349,0.37649 0.49509,0.58138c0.14662,0.19797 0.11404,0.36008 0.05973,0.60257c-0.10092,0.4517 -0.25569,0.89347 -0.09005,1.42472c0.11088,0.35574 0.30366,0.84117 0.10046,1.26348c-0.17604,0.36525 0.19188,0.52995 0.29551,0.77676c0.11178,0.26756 0.19866,0.40417 -0.11042,0.57577c-0.29551,0.16426 -0.35616,0.33457 0.00815,0.55719c0.52089,0.31858 0.41499,0.91596 0.51908,1.39577c0.062,0.28658 0.29235,0.65054 -0.05612,0.94103c0.28239,0.20533 0.09232,0.67605 0.51274,0.81264c0.3195,0.10374 0.33399,0.26022 0.01811,0.39639c-0.28601,0.1232 -0.27651,0.31209 -0.19369,0.55415c0.16246,0.47635 0.47338,0.91639 0.34711,1.46535c-0.0534,0.23255 0.15749,0.25459 0.3548,0.27405c0.31362,0.0307 0.65167,-0.11412 0.9404,0.10979c-0.39011,0.1193 -0.78743,0.19797 -1.19927,0.19755c-0.98792,-0.00129 -1.97539,0.00129 -2.96331,-0.00217c-0.17559,0 -0.36476,0.04668 -0.51184,-0.09552z" id="XMLID_122_" fill="#e6e6e6"/><path d="M242.67203,190.56133c-0.02036,-0.08732 -0.05295,-0.16599 -0.15793,-0.18674c-0.43038,-0.08472 -0.25931,-0.27146 -0.08373,-0.4556c0.17876,-0.18804 0.52767,-0.25244 0.45481,-0.63542c-0.00905,-0.04711 0.36339,-0.28831 0.57293,-0.01037c0.28058,0.37174 0.65484,0.50488 1.13002,0.43312c0.33851,-0.05101 0.34757,0.25763 0.46749,0.44048c-0.79377,0.1379 -1.5889,0.27622 -2.38359,0.41453z" id="XMLID_121_" fill="#d5d5d5"/><path d="M229.95579,185.37552c0.27787,0.22045 0.20455,0.52649 0.22673,0.81395c0.06697,0.87403 0.12309,1.76146 0.79196,2.45004c0.33534,0.34538 0.78518,0.58441 1.05128,0.99894c-0.63809,-0.16858 -1.19519,-0.49969 -1.69119,-0.89174c-0.46884,-0.37088 -0.28012,-0.96868 -0.3453,-1.46059c-0.08373,-0.62808 -0.02896,-1.27299 -0.03349,-1.91058z" id="XMLID_120_" fill="#cecece"/><path d="M239.52047,175.73444c-0.65167,0.0376 -1.30335,-0.13702 -1.95502,-0.00044c0.04027,-0.3108 -0.09957,-0.40502 -0.42766,-0.42534c-0.78789,-0.04928 -1.51877,-0.37045 -2.30077,-0.48974c-0.50369,-0.07694 -0.89108,-0.42707 -1.26035,-0.81827c-0.55754,-0.5896 -1.3563,-0.88526 -2.13332,-1.16277c-0.267,-0.0951 -0.5313,-0.22001 -0.82862,-0.21657c-0.1507,-0.20187 -0.48695,-0.22564 -0.54488,-0.51654c0.62362,0.0376 1.10151,0.5213 1.73825,0.51742c0.41318,0.09986 0.70643,0.51439 1.19565,0.4141l-0.00046,0.00086c0.03258,0.05879 0.04933,0.14783 0.09957,0.17117c0.73269,0.34235 1.53098,0.58182 2.01159,1.29245c0.10589,0.15648 0.31815,0.20748 0.53355,0.19928c0.1593,-0.00649 0.3367,-0.00951 0.47835,0.04799c0.78111,0.31814 1.61199,0.32721 2.43336,0.35574c0.91324,0.03199 1.82831,0.00734 2.74201,0.00734c-0.07015,0.28961 -0.52315,0.20662 -0.58742,0.51742c-0.03576,0.00044 -0.07196,0.00086 -0.1077,0.00173c-0.20139,-0.14005 -0.40774,-0.08774 -0.59918,0.00734c-0.15704,0.07781 -0.30366,0.15994 -0.48695,0.09683z" id="XMLID_119_" fill="#e1e1e1"/><path d="M236.36664,171.77756c-0.28511,0.02897 -0.51455,-0.12449 -0.75712,-0.22305c-0.19188,-0.07823 -0.43128,-0.15604 -0.40549,-0.41539c0.02308,-0.23298 0.23939,-0.39551 0.43354,-0.40071c0.72273,-0.01988 1.31194,-0.50964 2.03648,-0.49408c0.06562,0.18587 -0.0457,0.57923 0.36747,0.38688c0.19143,-0.08905 0.44124,-0.23213 0.50234,-0.4932c0.32266,-0.02766 0.64262,-0.13141 0.97073,-0.03848c0.03847,0.14956 0.07693,0.29912 0.1154,0.44868c-0.20953,0.24337 -0.51184,0.45777 -0.60777,0.73657c-0.15523,0.45085 0.50459,0.32031 0.61411,0.62462c-0.87343,0.17765 -1.74232,0.07608 -2.61123,-0.03502c-0.05431,-0.38384 -0.40096,-0.29048 -0.63222,-0.31123c-0.18284,-0.01685 -0.03847,0.13573 -0.02624,0.2144zM238.15693,171.08335c-0.11223,0.01168 -0.20636,0.05143 -0.21361,0.17377c-0.00543,0.08905 0.07693,0.10461 0.14481,0.10806c0.0887,0.00476 0.17966,-0.00951 0.205,-0.11152c0.02534,-0.1033 -0.03666,-0.15173 -0.13622,-0.17031z" id="XMLID_116_" fill="#7f7f7f"/><path d="M239.63542,171.90939c-0.10951,-0.30431 -0.76934,-0.17377 -0.61411,-0.62462c0.09593,-0.27924 0.39824,-0.4932 0.60777,-0.73657c0.23442,0 0.73947,0.33499 0.44078,-0.32506c0.00046,-0.03804 0.00046,-0.0765 0.00091,-0.11454c0.14392,-0.04453 0.28557,-0.02594 0.42631,0.01339c0.06291,0.10591 0.13305,0.12968 0.21496,0.01729c0.48332,-0.01037 0.95986,0.02551 1.41513,0.19797c-0.10363,0.26066 -0.18419,0.52563 -0.59601,0.36179c-0.16608,-0.06613 -0.35932,0.10159 -0.67657,-0.05101c0.25886,0.34408 0.42811,0.56194 -0.01674,0.68124c-0.36566,0.09813 -0.06426,0.37693 -0.12309,0.5628c-0.35707,0.13356 -0.72001,-0.01946 -1.07934,0.01729z" id="XMLID_115_" fill="#787878"/><path d="M233.00372,173.03673c-0.4892,0.10028 -0.78246,-0.31468 -1.19565,-0.4141c0.21043,-0.24164 0.43309,-0.45689 0.05612,-0.76769c-0.186,-0.15302 -0.2118,-0.37606 0.17423,-0.37737c0.34665,-0.00129 0.80916,0.21094 0.86935,-0.39639c0.0086,-0.08862 0.15251,-0.10418 0.21812,-0.02378c0.38738,0.47462 0.99063,0.38212 1.50157,0.52693c0.34574,0.09813 0.72092,0.14092 0.94085,0.45387c0.15658,0.22262 0.37834,0.15215 0.58561,0.16858c-0.03393,0.0575 -0.07422,0.16729 -0.10138,0.16426c-0.55211,-0.05706 -1.13681,-0.05489 -1.60566,-0.36223c-0.18735,-0.12276 -0.30457,-0.23903 -0.49238,-0.0925c-0.29959,0.23386 -0.64127,0.23255 -0.97299,0.15215c-0.26022,-0.06311 -0.36476,0.03241 -0.45617,0.22737c-0.11042,0.23471 0.01267,0.30345 0.22989,0.34148c0.22854,0.04019 0.25026,0.21786 0.24845,0.39941z" id="XMLID_114_" fill="#ededed"/><path d="M243.36172,171.3561c0.33805,-0.61423 -0.25253,-0.68815 -0.58243,-0.91379c0.49011,-0.2252 0.90963,0.09293 1.10105,0.36396c0.21768,0.30733 -0.1498,0.52088 -0.51862,0.54983z" id="XMLID_113_" fill="#e7e7e7"/><path d="M238.54342,170.13757c-0.06109,0.26151 -0.3109,0.40417 -0.50234,0.4932c-0.41318,0.19236 -0.30185,-0.20143 -0.36747,-0.38688c0.27605,-0.13746 0.57022,-0.14351 0.86981,-0.10634z" id="XMLID_112_" fill="#878787"/><path d="M240.07032,170.22316c0.29823,0.66005 -0.20681,0.32462 -0.44078,0.32506c-0.03847,-0.14956 -0.07693,-0.29956 -0.1154,-0.44868c0.11133,-0.05836 0.22446,-0.05187 0.33851,-0.00995c0.02942,0.1072 0.10907,0.14178 0.21768,0.13356z" id="XMLID_111_" fill="#878787"/><path d="M236.36664,171.77756c-0.01222,-0.07867 -0.15613,-0.23125 0.02534,-0.2144c0.23126,0.02119 0.57791,-0.07262 0.63222,0.31123c-0.22854,0.02421 -0.44984,0.00432 -0.65755,-0.09683z" id="XMLID_110_" fill="#878787"/><path d="M236.80516,172.3101c-0.19143,0.14351 -0.35344,0.17636 -0.43445,-0.1033c0.1507,0.01124 0.31815,-0.04019 0.43445,0.1033z" id="XMLID_109_" fill="#ededed"/><path d="M234.04098,170.94849c-0.00453,0.09898 -0.0448,0.15648 -0.12219,0.17075c-0.08643,0.01556 -0.13666,-0.03675 -0.13215,-0.11585c0.00453,-0.07738 0.06246,-0.12708 0.143,-0.11973c0.04254,0.00346 0.081,0.04582 0.11133,0.06484z" id="XMLID_108_" fill="#ededed"/><path d="M242.5598,170.4488c-0.13712,0.14222 -0.18465,0.05014 -0.21904,-0.0765c0.09187,-0.02463 0.1688,-0.00865 0.21904,0.0765z" id="XMLID_107_" fill="#787878"/><path d="M240.71249,170.1393c-0.08192,0.11239 -0.15205,0.08862 -0.21496,-0.01729c0.07603,-0.04323 0.14799,-0.0415 0.21496,0.01729z" id="XMLID_106_" fill="#7f7f7f"/><path d="M240.07032,170.22316c-0.10861,0.00822 -0.18781,-0.02594 -0.21768,-0.134c0.07286,0.00649 0.14573,0.01253 0.21812,0.01902c0,0.03848 -0.00046,0.0765 -0.00046,0.11498z" id="XMLID_105_" fill="#7f7f7f"/><path d="M239.52047,175.73444c0.18328,0.06311 0.32946,-0.01902 0.48695,-0.09683c0.19188,-0.09467 0.3978,-0.14739 0.59918,-0.00734c-0.14573,0.31814 -0.5512,0.24854 -0.76662,0.46728c-0.06788,0.06872 -0.21858,0.09379 -0.14799,0.22347c0.07196,0.13227 0.17469,0.04626 0.26836,0.00173c0.143,-0.06743 0.18284,0.01858 0.20862,0.13314c0.07105,0.31295 0.14708,0.62462 0.22085,0.93671c-0.1403,-0.26108 -0.60507,-0.14912 -0.65167,-0.51742c0.08915,-0.01773 0.19731,-0.03545 0.16292,-0.15215c-0.03258,-0.1111 -0.143,-0.16945 -0.25569,-0.13702c-0.15387,0.04453 -0.30139,0.11454 -0.44577,0.1837c-0.57655,0.27665 -1.05716,-0.07435 -1.58302,-0.19019c0.49282,-0.23559 0.97616,-0.44436 1.51424,-0.46728c0.27017,-0.0108 0.40096,-0.11888 0.38965,-0.37779z" id="XMLID_104_" fill="#ededed"/><path d="M240.60569,177.70598c0.42901,-0.04236 0.73404,-0.01988 0.56388,0.552c-0.09504,0.31943 0.11857,0.69724 0.34801,0.87921c0.5227,0.41453 0.44893,0.94924 0.50097,1.47313c-0.36476,-0.12493 -0.11857,-0.63498 -0.51228,-0.74133c0.12581,-0.63067 -0.53084,-0.91854 -0.69603,-1.43164c-0.0783,-0.24249 -0.21315,-0.4664 -0.20455,-0.73138z" id="XMLID_103_" fill="#ededed"/><path d="M240.39028,177.39345c0.2118,0.016 0.21858,0.16124 0.21542,0.31253c-0.21224,-0.01556 -0.21812,-0.16166 -0.21542,-0.31253z" id="XMLID_102_" fill="#ededed"/><path d="M240.71475,175.62897c0.06381,-0.3108 0.51727,-0.22779 0.58742,-0.51742c-0.91324,0 -1.82877,0.02463 -2.74201,-0.00734c-0.82138,-0.02853 -1.65227,-0.0376 -2.43336,-0.35574c-0.14165,-0.0575 -0.31905,-0.05404 -0.47835,-0.04799c-0.21542,0.00865 -0.42811,-0.0428 -0.53355,-0.19928c-0.48107,-0.71063 -1.27936,-0.94968 -2.01159,-1.29245c-0.05023,-0.02378 -0.06743,-0.11281 -0.09957,-0.17117c0.71277,-0.07521 1.38346,0.19019 2.08355,0.23601c1.60566,0.10591 3.20587,0.28746 4.82058,0.09423c0.51591,-0.06182 1.04585,-0.01729 1.56946,-0.01773c0.14889,0 0.30276,0.01168 0.30501,0.20706c0.00227,0.15994 -0.1172,0.18933 -0.25388,0.2036c-0.81188,0.08601 -1.62738,0.15043 -2.43382,0.27017c-0.66524,0.09855 -1.32915,0.08299 -1.99485,0.08862c-0.21043,0.00173 -0.19822,0.1219 -0.12173,0.2373c0.09096,0.13746 0.24981,0.21657 0.41318,0.21354c1.22777,-0.02204 2.44604,0.06225 3.66793,0.18501c0.48831,0.04928 1.00376,-0.08126 1.50428,0.04495c-0.55031,0.41151 -1.178,0.66439 -1.84867,0.82863z" id="XMLID_101_" fill="#e7e7e7"/><path d="M245.38554,173.4517c-0.26972,-0.28227 -0.21089,-0.48154 0.16926,-0.59089c0.2738,-0.07867 0.54758,-0.16036 0.82636,-0.21916c0.17332,-0.03675 0.37154,-0.06311 0.41635,0.18804c-0.4272,0.29739 -0.88112,0.53902 -1.41196,0.62201z" id="XMLID_100_" fill="#ededed"/><path d="M237.02193,176.14855c-0.56388,-0.32462 -1.18523,-0.02463 -1.77943,-0.13529c-0.23397,-0.04323 -0.14799,0.27405 -0.06607,0.44653c-0.53808,0.11412 -0.99335,-0.2533 -1.52058,-0.23818c-0.15477,0.00432 -0.29507,-0.1461 -0.30185,-0.31987c-0.00815,-0.1984 0.15839,-0.22089 0.32131,-0.27622c0.6295,-0.21311 1.25085,-0.00346 1.86904,0.03372c0.31135,0.01858 0.59873,0.05187 0.88836,-0.06355c0.3358,-0.13356 0.62634,-0.00217 0.91596,0.13832c-0.07241,0.13832 -0.14481,0.27622 -0.21723,0.41453c-0.03666,0 -0.07331,0 -0.10951,0z" id="XMLID_99_" fill="#e1e1e1"/><path d="M237.02193,176.14855c0.0362,0 0.07286,0 0.10907,0.00044c0.01312,0.08732 0.15749,0.21959 -0.00362,0.24725c-0.13124,0.02248 -0.08734,-0.15346 -0.10545,-0.24769z" id="XMLID_98_" fill="#ededed"/><path d="M238.15739,171.08379c0.09911,0.01815 0.16111,0.06613 0.13531,0.16987c-0.02534,0.10201 -0.11631,0.11671 -0.205,0.11152c-0.06788,-0.0039 -0.15024,-0.01902 -0.14481,-0.10806c0.00769,-0.12232 0.10182,-0.16166 0.21451,-0.17333z" id="XMLID_96_" fill="#878787"/></g></g></g></g></svg>