<svg version="1.1" xmlns="http://www.w3.org/2000/svg" xmlns:xlink="http://www.w3.org/1999/xlink" width="37" height="37"><defs><linearGradient x1="240" y1="164.6667" x2="240" y2="194.5197" gradientUnits="userSpaceOnUse" id="color-1"><stop offset="0" stop-color="#333333" stop-opacity="0.2"/><stop offset="1" stop-color="#000000" stop-opacity="0.2"/></linearGradient><linearGradient x1="240" y1="195.3333" x2="240" y2="165.4803" gradientUnits="userSpaceOnUse" id="color-2"><stop offset="0" stop-color="#333333" stop-opacity="0.2"/><stop offset="1" stop-color="#000000" stop-opacity="0.2"/></linearGradient></defs><g transform="translate(-221.5,-161.5)"><g data-paper-data="{&quot;isPaintingLayer&quot;:true}" fill="none" fill-rule="nonzero" stroke="none" stroke-width="1" stroke-linecap="butt" stroke-linejoin="miter" stroke-miterlimit="10" stroke-dasharray="" stroke-dashoffset="0" font-family="none" font-weight="none" font-size="none" text-anchor="none" style="mix-blend-mode: normal"><path d="M253.5,198.5h-27c-2.75,0 -5,-2.25 -5,-5v-27c0,-2.75 2.25,-5 5,-5h27c2.75,0 5,2.25 5,5v27c0,2.75 -2.25,5 -5,5z" data-paper-data="{&quot;origPos&quot;:null}" id="XMLID_1_" fill="url(#color-1)"/><path d="M258.5,166.5v27c0,2.75 -2.25,5 -5,5h-27c-2.75,0 -5,-2.25 -5,-5v-27c0,-2.75 2.25,-5 5,-5h27c2.75,0 5,2.25 5,5z" data-paper-data="{&quot;origPos&quot;:null,&quot;index&quot;:null}" id="XMLID_1_" fill="url(#color-2)"/><path d="M241.293,192.282c-1.671,0 -3.341,0.022 -5.011,-0.008c-1.061,-0.019 -2.122,-0.04 -3.182,-0.027c-1.01,0.012 -1.691,-0.481 -2.156,-1.324c-0.238,-0.429 -0.343,-0.903 -0.344,-1.394c-0.002,-2.7 -0.004,-5.4 0.002,-8.1c0.001,-0.588 0.022,-1.176 0.051,-1.763c0.054,-1.11 1.054,-2.214 2.248,-2.456c0.317,-0.064 0.438,-0.179 0.488,-0.515c0.193,-1.31 0.435,-2.61 1.116,-3.782c1.122,-1.93 2.835,-2.892 5.014,-3.09c1.759,-0.16 3.36,0.268 4.744,1.384c1.249,1.008 1.926,2.359 2.244,3.908c0.103,0.504 0.189,1.012 0.2,1.528c0.006,0.275 0.099,0.416 0.403,0.479c1.385,0.288 2.431,1.597 2.427,2.997c-0.005,2.059 -0.008,4.118 -0.02,6.178c-0.007,1.145 -0.03,2.289 -0.046,3.434c-0.006,0.413 -0.14,0.791 -0.376,1.119c-0.66,0.918 -1.561,1.436 -2.695,1.454c-1.702,0.026 -3.404,0.007 -5.106,0.007c-0.001,-0.011 -0.001,-0.02 -0.001,-0.029zM240.157,177.194c0,0.002 0,0.004 0,0.007c1.113,0 2.227,-0.002 3.34,0.002c0.21,0.001 0.35,-0.041 0.326,-0.296c-0.059,-0.617 -0.113,-1.231 -0.307,-1.827c-0.719,-2.205 -3.493,-3.181 -5.425,-1.871c-1.219,0.827 -1.621,2.09 -1.677,3.494c-0.016,0.415 0.076,0.491 0.499,0.491c1.08,0 2.162,0 3.244,0zM241.891,183.729c0.01,-0.768 -0.524,-1.498 -1.327,-1.711c-0.826,-0.219 -1.73,0.158 -2.133,0.892c-0.393,0.716 -0.228,1.686 0.413,2.238c0.249,0.215 0.336,0.474 0.35,0.773c0.017,0.356 0.016,0.713 -0.038,1.068c-0.046,0.295 -0.02,0.587 0.065,0.872c0.123,0.411 0.428,0.597 0.928,0.578c0.431,-0.016 0.63,-0.192 0.728,-0.636c0.062,-0.28 0.062,-0.562 0.028,-0.845c-0.048,-0.398 -0.049,-0.796 0.03,-1.19c0.042,-0.209 0.119,-0.396 0.296,-0.538c0.444,-0.36 0.66,-0.831 0.66,-1.501z" data-paper-data="{&quot;origPos&quot;:null}" fill="#000000"/></g></g></svg>