<svg version="1.1" xmlns="http://www.w3.org/2000/svg" xmlns:xlink="http://www.w3.org/1999/xlink" width="37" height="37"><defs><linearGradient x1="240" y1="164.6667" x2="240" y2="194.5197" gradientUnits="userSpaceOnUse" id="color-1"><stop offset="0" stop-color="#333333" stop-opacity="0.2"/><stop offset="1" stop-color="#000000" stop-opacity="0.2"/></linearGradient><linearGradient x1="241.91665" y1="179.47878" x2="250.55011" y2="168.9538" gradientUnits="userSpaceOnUse" id="color-2"><stop offset="0" stop-color="#fcee21"/><stop offset="0.1569" stop-color="#fbd320" stop-opacity="0.7799"/><stop offset="0.3927" stop-color="#f9b01f" stop-opacity="0.4492"/><stop offset="0.5866" stop-color="#f79b1e" stop-opacity="0.1773"/><stop offset="0.713" stop-color="#f7931e" stop-opacity="0"/></linearGradient><linearGradient x1="243.03844" y1="181.46638" x2="256.2653" y2="179.08108" gradientUnits="userSpaceOnUse" id="color-3"><stop offset="0" stop-color="#fcee21"/><stop offset="0.1569" stop-color="#fbd320" stop-opacity="0.7799"/><stop offset="0.3927" stop-color="#f9b01f" stop-opacity="0.4492"/><stop offset="0.5866" stop-color="#f79b1e" stop-opacity="0.1773"/><stop offset="0.713" stop-color="#f7931e" stop-opacity="0"/></linearGradient><linearGradient x1="242.64923" y1="183.72664" x2="254.28049" y2="190.59673" gradientUnits="userSpaceOnUse" id="color-4"><stop offset="0" stop-color="#fcee21"/><stop offset="0.1569" stop-color="#fbd320" stop-opacity="0.7799"/><stop offset="0.3927" stop-color="#f9b01f" stop-opacity="0.4492"/><stop offset="0.5866" stop-color="#f79b1e" stop-opacity="0.1773"/><stop offset="0.713" stop-color="#f7931e" stop-opacity="0"/></linearGradient><linearGradient x1="240.93052" y1="185.20203" x2="245.52393" y2="198.11368" gradientUnits="userSpaceOnUse" id="color-5"><stop offset="0" stop-color="#fcee21"/><stop offset="0.1569" stop-color="#fbd320" stop-opacity="0.7799"/><stop offset="0.3927" stop-color="#f9b01f" stop-opacity="0.4492"/><stop offset="0.5866" stop-color="#f79b1e" stop-opacity="0.1773"/><stop offset="0.713" stop-color="#f7931e" stop-opacity="0"/></linearGradient><linearGradient x1="238.68697" y1="185.20223" x2="234.09357" y2="198.11385" gradientUnits="userSpaceOnUse" id="color-6"><stop offset="0" stop-color="#fcee21"/><stop offset="0.1569" stop-color="#fbd320" stop-opacity="0.7799"/><stop offset="0.3927" stop-color="#f9b01f" stop-opacity="0.4492"/><stop offset="0.5866" stop-color="#f79b1e" stop-opacity="0.1773"/><stop offset="0.713" stop-color="#f7931e" stop-opacity="0"/></linearGradient><linearGradient x1="236.9683" y1="183.72693" x2="225.33704" y2="190.59702" gradientUnits="userSpaceOnUse" id="color-7"><stop offset="0" stop-color="#fcee21"/><stop offset="0.1569" stop-color="#fbd320" stop-opacity="0.7799"/><stop offset="0.3927" stop-color="#f9b01f" stop-opacity="0.4492"/><stop offset="0.5866" stop-color="#f79b1e" stop-opacity="0.1773"/><stop offset="0.713" stop-color="#f7931e" stop-opacity="0"/></linearGradient><linearGradient x1="236.57852" y1="181.46636" x2="223.35166" y2="179.08107" gradientUnits="userSpaceOnUse" id="color-8"><stop offset="0" stop-color="#fcee21"/><stop offset="0.1569" stop-color="#fbd320" stop-opacity="0.7799"/><stop offset="0.3927" stop-color="#f9b01f" stop-opacity="0.4492"/><stop offset="0.5866" stop-color="#f79b1e" stop-opacity="0.1773"/><stop offset="0.713" stop-color="#f7931e" stop-opacity="0"/></linearGradient><linearGradient x1="237.70034" y1="179.47854" x2="229.06689" y2="168.95356" gradientUnits="userSpaceOnUse" id="color-9"><stop offset="0" stop-color="#fcee21"/><stop offset="0.1569" stop-color="#fbd320" stop-opacity="0.7799"/><stop offset="0.3927" stop-color="#f9b01f" stop-opacity="0.4492"/><stop offset="0.5866" stop-color="#f79b1e" stop-opacity="0.1773"/><stop offset="0.713" stop-color="#f7931e" stop-opacity="0"/></linearGradient><linearGradient x1="239.80879" y1="178.59965" x2="239.80879" y2="164.85947" gradientUnits="userSpaceOnUse" id="color-10"><stop offset="0" stop-color="#fcee21"/><stop offset="0.1569" stop-color="#fbd320" stop-opacity="0.7799"/><stop offset="0.3927" stop-color="#f9b01f" stop-opacity="0.4492"/><stop offset="0.5866" stop-color="#f79b1e" stop-opacity="0.1773"/><stop offset="0.713" stop-color="#f7931e" stop-opacity="0"/></linearGradient></defs><g transform="translate(-221.5,-161.5)"><g data-paper-data="{&quot;isPaintingLayer&quot;:true}" fill="none" fill-rule="nonzero" stroke="none" stroke-width="1" stroke-linecap="butt" stroke-linejoin="miter" stroke-miterlimit="10" stroke-dasharray="" stroke-dashoffset="0" font-family="none" font-weight="none" font-size="none" text-anchor="none" style="mix-blend-mode: normal"><g fill="url(#color-1)"><path d="M253.5,198.5h-27c-2.75,0 -5,-2.25 -5,-5v-27c0,-2.75 2.25,-5 5,-5h27c2.75,0 5,2.25 5,5v27c0,2.75 -2.25,5 -5,5z" data-paper-data="{&quot;origPos&quot;:null}" id="XMLID_1_"/><path d="M253.5,198.5h-27c-2.75,0 -5,-2.25 -5,-5v-27c0,-2.75 2.25,-5 5,-5h27c2.75,0 5,2.25 5,5v27c0,2.75 -2.25,5 -5,5z" data-paper-data="{&quot;origPos&quot;:null}" id="XMLID_1_"/></g><g data-paper-data="{&quot;origPos&quot;:null}"><path d="M244.687,163.78483c0.259,-0.071 0.519,-0.142 0.778,-0.212c0.207,-0.043 0.423,-0.039 0.625,-0.11c0.053,0 0.105,0 0.158,0c0.531,0.016 1.055,0.084 1.564,0.24c0.26,0.118 0.52,0.236 0.78,0.354c0.057,0.087 0.157,0.11 0.241,0.156c0.18,0.142 0.36,0.285 0.541,0.427c0.101,0.134 0.221,0.248 0.349,0.355c0.144,0.205 0.289,0.41 0.433,0.615c-0.001,0.071 0.054,0.114 0.086,0.168c0.103,0.259 0.206,0.518 0.309,0.777c0.047,0.351 0.126,0.698 0.115,1.055c-0.038,0.068 -0.032,0.163 -0.119,0.203c-0.322,-0.215 -0.561,-0.516 -0.825,-0.792c-0.019,-0.16 -0.054,-0.316 -0.128,-0.461c-0.051,-0.157 -0.076,-0.326 -0.217,-0.438c-0.029,-0.139 -0.117,-0.242 -0.208,-0.342c-0.146,-0.241 -0.339,-0.438 -0.576,-0.591c-0.068,-0.096 -0.154,-0.167 -0.27,-0.197c-0.134,-0.166 -0.323,-0.236 -0.515,-0.302c-0.243,-0.132 -0.498,-0.23 -0.778,-0.243c-0.253,-0.113 -0.52,-0.071 -0.783,-0.067c-0.133,-0.021 -0.261,0.012 -0.39,0.038c-0.013,-0.004 -0.025,-0.002 -0.037,0.005c-0.105,0.024 -0.21,0.047 -0.315,0.071c-0.683,0.143 -1.266,0.466 -1.749,0.969c-0.153,0.179 -0.342,0.332 -0.403,0.575c-0.058,0.014 -0.077,0.064 -0.101,0.109c-0.183,0.341 -0.315,0.701 -0.395,1.079c-0.055,0.296 -0.153,0.586 -0.113,0.893c-0.071,0.26 -0.044,0.523 -0.023,0.786c-0.032,0.103 -0.006,0.203 0.018,0.303c-0.303,-0.001 -0.606,-0.001 -0.91,-0.002c-0.003,-0.114 -0.006,-0.228 -0.009,-0.342c0.002,-0.21 0.003,-0.42 0.005,-0.63c0.041,-0.338 0.081,-0.676 0.122,-1.014c0.085,-0.401 0.215,-0.789 0.361,-1.171c0.087,-0.193 0.251,-0.35 0.268,-0.575c0.172,-0.125 0.263,-0.316 0.386,-0.48c0.055,-0.028 0.093,-0.072 0.12,-0.126c0.033,-0.01 0.041,-0.036 0.044,-0.066v0c0.235,-0.195 0.471,-0.389 0.706,-0.584c0.025,-0.014 0.049,-0.028 0.074,-0.042c0.261,-0.131 0.521,-0.261 0.781,-0.391z" data-paper-data="{&quot;origPos&quot;:null}" id="XMLID_3016_ 1" fill="#d6c88c"/><path d="M249.722,167.01983c0.264,0.276 0.503,0.577 0.825,0.792c-0.011,0.07 0.044,0.104 0.083,0.145c0.309,0.316 0.615,0.636 0.928,0.947c0.454,0.451 0.91,0.899 1.061,1.556c0.001,0.081 0.056,0.157 0.017,0.241c-0.021,-0.014 -0.051,-0.023 -0.061,-0.042c-0.236,-0.475 -0.647,-0.621 -1.143,-0.621c-7.619,0.001 -15.239,0.001 -22.858,0.001c-0.046,0 -0.091,-0.003 -0.137,0c-0.402,0.027 -0.746,0.161 -0.97,0.521c-0.025,0.041 -0.039,0.101 -0.106,0.102c-0.027,-0.066 -0.003,-0.131 0.003,-0.196c0.064,-0.162 0.125,-0.326 0.193,-0.487c0.2,-0.478 0.608,-0.789 0.95,-1.147c0.833,-0.874 1.693,-1.721 2.533,-2.589c0.328,-0.339 0.696,-0.599 1.154,-0.723c0.258,-0.039 0.518,-0.05 0.778,-0.054c0.26,0 0.52,0 0.78,0c0.261,0 0.521,0 0.782,0c0.26,0 0.52,0 0.78,0c0.261,0 0.521,0 0.782,0c0.26,0 0.52,0 0.78,0c0.261,0 0.521,0 0.782,0c0.26,0 0.52,0 0.78,0c0.261,0 0.521,0 0.782,0c0.26,0 0.52,0 0.78,0c0.261,0 0.521,0 0.782,0c0.26,0 0.52,0 0.78,0c0.261,0 0.521,0 0.782,0c0.077,0.003 0.155,0.005 0.232,0.008c-0.017,0.226 -0.182,0.382 -0.269,0.575c-0.533,0.001 -1.067,0.004 -1.6,0.004c-2.68,0 -5.359,0.001 -8.039,-0.002c-0.134,0 -0.233,0.035 -0.323,0.135c-0.186,0.208 -0.38,0.409 -0.575,0.61c-0.62,0.639 -1.243,1.276 -1.862,1.916c-0.149,0.154 -0.289,0.318 -0.453,0.5c0.399,0 0.756,0 1.114,0c0.339,-0.001 0.678,-0.001 1.017,-0.002c0.436,0.001 0.873,0.002 1.309,0.004c0.026,-0.004 0.053,-0.007 0.079,-0.011c0.259,0 0.518,0 0.777,0c0.262,0 0.523,0 0.785,0c0.259,0 0.518,0 0.777,0c0.262,0 0.523,0 0.785,0c0.259,0 0.518,0 0.777,0c0.262,0 0.523,0 0.785,0c0.259,0 0.518,0 0.777,0c0.262,0 0.523,0 0.785,0c0.259,0 0.518,0 0.777,0c0.262,0 0.523,0 0.785,0c0.259,0 0.518,0 0.777,0c0.09,0.001 0.179,0.002 0.269,0.003c0.303,0.001 0.606,0.001 0.91,0.002c0.128,-0.001 0.256,-0.003 0.383,-0.004c0.262,0 0.524,0 0.785,0c0.259,0 0.518,0 0.777,0c0.262,0 0.523,0 0.785,0c0.259,0 0.518,0 0.777,0c0.275,0.003 0.55,0.007 0.825,0.01c0.505,-0.001 1.01,-0.002 1.515,-0.003c0.264,0 0.527,0 0.791,0c0.379,0 0.757,0 1.136,0c0.009,-0.018 0.017,-0.036 0.026,-0.054c-0.064,-0.054 -0.134,-0.103 -0.193,-0.162c-0.91,-0.911 -1.826,-1.818 -2.723,-2.742c-0.154,-0.159 -0.299,-0.205 -0.505,-0.204c-1.177,0.007 -2.355,0.004 -3.532,0.003c-0.077,0 -0.155,-0.01 -0.232,-0.015c0.061,-0.243 0.25,-0.396 0.403,-0.575c0.31,0.001 0.62,0.002 0.93,0.003c0.261,0 0.521,0 0.782,0c0.26,0 0.52,0 0.78,0c0.261,0 0.521,0 0.782,0c0.259,-0.003 0.517,0.021 0.774,0.051c0.496,0.143 0.891,0.436 1.235,0.813c0.217,0.238 0.453,0.461 0.681,0.691z" data-paper-data="{&quot;origPos&quot;:null}" id="XMLID_2868_ 1" fill="#91989e"/><path d="M230.569,169.20983c-0.357,0 -0.715,0 -1.114,0c0.164,-0.182 0.304,-0.346 0.453,-0.5c0.619,-0.64 1.242,-1.277 1.862,-1.916c0.194,-0.2 0.389,-0.402 0.575,-0.61c0.09,-0.101 0.189,-0.136 0.323,-0.135c2.68,0.003 5.359,0.003 8.039,0.002c0.533,0 1.067,-0.003 1.6,-0.004c-0.145,0.383 -0.276,0.77 -0.36,1.171c-0.388,0.001 -0.777,0.002 -1.165,0.003c-0.26,0 -0.52,0 -0.78,0c-0.261,0 -0.521,0 -0.782,0c-0.26,0 -0.52,0 -0.78,0c-0.261,0 -0.521,0 -0.782,0c-0.26,0 -0.52,0 -0.78,0c-0.261,0 -0.521,0 -0.782,0c-0.26,0 -0.52,0 -0.781,0c-0.261,0 -0.521,0 -0.782,0c-0.26,0 -0.52,0 -0.78,0c-0.287,-0.001 -0.574,-0.001 -0.86,-0.002c-0.252,-0.019 -0.472,0.009 -0.651,0.235c-0.204,0.257 -0.447,0.482 -0.674,0.721c-0.341,0.337 -0.69,0.667 -0.999,1.035z" data-paper-data="{&quot;origPos&quot;:null}" id="XMLID_2867_ 1" fill="#595e62"/><path d="M243.354,166.03583c0.077,0.005 0.155,0.015 0.232,0.015c1.178,0.001 2.355,0.004 3.532,-0.003c0.206,-0.001 0.35,0.045 0.505,0.204c0.897,0.924 1.812,1.831 2.723,2.742c0.059,0.059 0.128,0.108 0.193,0.162c-0.009,0.018 -0.017,0.036 -0.026,0.054c-0.379,0 -0.757,0 -1.136,0c-0.251,-0.27 -0.497,-0.546 -0.786,-0.778c-0.291,-0.31 -0.591,-0.612 -0.87,-0.933c-0.178,-0.205 -0.373,-0.326 -0.65,-0.279c-0.274,0.001 -0.548,0.001 -0.821,0.002c-0.261,0 -0.521,0 -0.782,0c-0.26,0 -0.52,0 -0.78,0c-0.261,0 -0.521,0 -0.782,0c-0.349,0 -0.699,0.001 -1.048,0.001c0.08,-0.378 0.212,-0.738 0.395,-1.079c0.024,-0.045 0.044,-0.094 0.101,-0.108z" data-paper-data="{&quot;origPos&quot;:null}" id="XMLID_2866_ 1" fill="#595e62"/><path d="M227.362,170.66083c0.067,-0.001 0.081,-0.062 0.106,-0.102c0.224,-0.36 0.568,-0.494 0.97,-0.521c0.045,-0.003 0.091,0 0.137,0c7.619,0 15.239,0 22.858,-0.001c0.496,0 0.907,0.146 1.143,0.621c0.01,0.019 0.04,0.028 0.061,0.042c0.02,0.181 0.039,0.361 0.059,0.542c0,0.26 0,0.52 0,0.78c0,0.261 0,0.521 0,0.782c0,0.26 0,0.52 0,0.78c0,0.261 0,0.521 0,0.782c0,0.26 0,0.52 0,0.78c0,0.261 0,0.521 0,0.782c0,0.26 0,0.52 0,0.78c0,0.261 0,0.521 0,0.782c0,0.26 0,0.52 0,0.78c0,0.261 0,0.521 0,0.782c0,0.26 0,0.52 0,0.78c0,0.261 0,0.521 0,0.782c0,0.26 0,0.52 0,0.78c0,0.261 0,0.521 0,0.782c0,0.26 0,0.52 0,0.78c0,0.261 0,0.521 0,0.782c0,0.26 0,0.52 0,0.78c0,0.261 0,0.521 0,0.782c0,0.26 0,0.52 0,0.78c0,0.261 0,0.521 0,0.782c0,0.26 0,0.52 0,0.78c0,0.261 0,0.521 0,0.782c0,0.26 0,0.52 0,0.78c0,0.261 0,0.521 0,0.782c0,0.26 0,0.52 0,0.78c-0.002,0.26 -0.003,0.521 -0.005,0.781c-0.034,0.19 -0.108,0.366 -0.2,0.535c-0.08,0.08 -0.16,0.161 -0.24,0.241c-0.163,0.107 -0.346,0.161 -0.534,0.204c-0.261,0.001 -0.521,0.001 -0.782,0.002c-0.26,0 -0.52,0 -0.78,0c-0.261,0 -0.521,0 -0.782,0c-0.26,0 -0.52,0 -0.78,0c-0.261,0 -0.521,0 -0.782,0c-0.26,0 -0.52,0 -0.78,0c-0.261,0 -0.521,0 -0.782,0c-0.26,0 -0.52,0 -0.78,0c-0.261,0 -0.521,0 -0.782,0c-0.26,0 -0.52,0 -0.78,0c-0.261,0 -0.521,0 -0.782,0c-0.26,0 -0.52,0 -0.78,0c-0.261,0 -0.521,0 -0.782,0c-0.26,0 -0.52,0 -0.78,0c-0.261,0 -0.521,0 -0.782,0c-0.26,0 -0.52,0 -0.78,0c-0.261,0 -0.521,0 -0.782,0c-0.26,0 -0.52,0 -0.78,0c-0.261,0 -0.521,0 -0.782,0c-0.26,0 -0.52,0 -0.78,0c-0.261,0 -0.521,0 -0.782,0c-0.26,0 -0.52,0 -0.78,0c-0.261,0 -0.521,0 -0.782,0c-0.26,0 -0.52,0 -0.78,0c-0.261,0 -0.521,0 -0.782,0c-0.26,0 -0.52,0 -0.78,0c-0.261,0 -0.521,0 -0.782,0c-0.26,0 -0.52,0 -0.78,0c-0.261,0 -0.521,0 -0.782,0c-0.26,0 -0.52,-0.001 -0.78,-0.001c-0.55,-0.104 -0.888,-0.42 -0.982,-0.981c0,-0.26 -0.001,-0.52 -0.001,-0.779c0,-0.261 0,-0.522 0,-0.783c0,-0.26 0,-0.52 0,-0.779c0,-0.261 0,-0.522 0,-0.783c0,-0.26 0,-0.52 0,-0.779c0,-0.261 0,-0.522 0,-0.783c0,-0.26 0,-0.52 0,-0.779c0,-0.261 0,-0.522 0,-0.783c0,-0.26 0,-0.52 0,-0.779c0,-0.261 0,-0.522 0,-0.783c0,-0.26 0,-0.52 0,-0.779c0,-0.261 0,-0.522 0,-0.783c0,-0.26 0,-0.52 0,-0.779c0,-0.261 0,-0.522 0,-0.783c0,-0.26 0,-0.52 0,-0.779c0,-0.261 0,-0.522 0,-0.783c0,-0.26 0,-0.52 0,-0.779c0,-0.261 0,-0.522 0,-0.783c0,-0.26 0,-0.52 0,-0.779c0,-0.261 0,-0.522 0,-0.783c0,-0.26 0,-0.52 0,-0.779c0,-0.261 0,-0.522 0,-0.783c0,-0.26 0,-0.52 0,-0.779c0,-0.261 0,-0.522 0,-0.783c0,-0.26 0,-0.52 0,-0.779c0.001,-0.261 0.001,-0.522 0.002,-0.782c0.015,-0.194 0.004,-0.391 0.056,-0.581zM250.158,172.27983c-0.142,-0.047 -0.287,-0.025 -0.432,-0.017c-0.377,-0.002 -0.754,-0.003 -1.131,-0.005c-0.508,0 -1.017,-0.001 -1.525,-0.001c-0.274,0.001 -0.548,0.003 -0.821,0.004c-0.26,0 -0.52,0 -0.78,0c-0.261,0 -0.521,0 -0.782,0c-0.26,0 -0.52,0 -0.78,0c-0.261,0 -0.521,0 -0.782,0c-0.26,0 -0.52,0 -0.78,0c-0.024,0.002 -0.047,0.005 -0.071,0.007c-0.341,-0.003 -0.682,-0.006 -1.024,-0.009c-0.156,0.001 -0.312,0.002 -0.467,0.002c-0.261,0 -0.521,0 -0.782,0c-0.26,0 -0.52,0 -0.78,0c-0.261,0 -0.521,0 -0.782,0c-0.26,0 -0.52,0 -0.78,0c-0.261,0 -0.521,0 -0.782,0c-0.26,0 -0.52,0 -0.78,0c-0.261,0 -0.521,0 -0.782,0c-0.26,0 -0.52,0 -0.78,0c-0.261,0 -0.521,0 -0.782,0c-0.26,0 -0.52,0 -0.78,0c-0.025,-0.001 -0.049,-0.002 -0.074,-0.003c-0.438,0 -0.876,0.001 -1.314,0.001c-0.395,0 -0.791,0 -1.186,0c-0.183,-0.003 -0.367,-0.027 -0.548,0.015c-0.281,0.081 -0.398,0.234 -0.402,0.527c-0.027,0.26 -0.026,0.521 -0.001,0.782c-0.026,0.261 -0.026,0.523 0,0.784c-0.025,0.259 -0.025,0.519 0,0.778c-0.026,0.261 -0.026,0.523 0,0.784c-0.025,0.259 -0.024,0.519 0,0.778c-0.026,0.261 -0.026,0.523 0,0.784c-0.025,0.259 -0.025,0.519 0,0.778c-0.026,0.261 -0.026,0.523 0,0.784c-0.025,0.259 -0.024,0.519 0,0.778c-0.026,0.261 -0.026,0.523 0,0.784c-0.025,0.259 -0.024,0.517 0,0.776c-0.025,0.263 -0.025,0.525 0,0.788c-0.036,0.371 -0.001,0.744 -0.013,1.115c-0.005,0.058 -0.01,0.115 -0.015,0.173c0.001,1.184 0.008,2.369 0,3.553c-0.003,0.418 0.207,0.704 0.699,0.703c6.579,-0.009 13.158,-0.009 19.738,-0.002c0.529,0.001 0.717,-0.233 0.722,-0.722c0.012,-1.171 0.003,-2.343 0.002,-3.514c-0.004,-0.077 -0.011,-0.154 -0.013,-0.231c-0.007,-0.36 -0.013,-0.72 -0.019,-1.08c0.016,-0.26 0.016,-0.52 0,-0.78c0.026,-0.261 0.026,-0.521 0,-0.782c0.016,-0.26 0.016,-0.52 0,-0.78c0.026,-0.261 0.026,-0.521 0,-0.782c0.016,-0.26 0.016,-0.52 0,-0.78c0.026,-0.261 0.026,-0.521 0,-0.782c0.016,-0.26 0.016,-0.52 0,-0.78c0.026,-0.261 0.026,-0.521 0,-0.782c0.016,-0.26 0.016,-0.52 0,-0.78c0.026,-0.261 0.026,-0.521 0,-0.782c0.016,-0.26 0.016,-0.52 0,-0.78c0.026,-0.261 0.026,-0.521 0,-0.782c-0.002,-0.279 -0.116,-0.433 -0.391,-0.522zM239.37,188.65783c-0.748,0 -1.497,0.019 -2.244,-0.008c-0.407,-0.015 -0.729,0.278 -0.718,0.728c0.015,0.637 0.004,1.275 0.004,1.913c0,0.449 0.277,0.723 0.732,0.723c0.657,0 1.314,0 1.971,0c0.82,0 1.639,0.001 2.459,0c0.484,-0.001 0.732,-0.248 0.732,-0.721c0,-0.651 -0.02,-1.302 0.007,-1.951c0.018,-0.455 -0.305,-0.699 -0.699,-0.688c-0.747,0.019 -1.496,0.004 -2.244,0.004zM245.058,189.16583c-0.52,0 -1.04,0 -1.56,0c-0.279,0 -0.41,0.133 -0.411,0.419c-0.001,0.501 -0.001,1.001 0,1.502c0.001,0.258 0.15,0.417 0.405,0.418c1.047,0.003 2.093,0.004 3.14,0c0.263,-0.001 0.429,-0.164 0.433,-0.425c0.006,-0.507 0.006,-1.014 0,-1.521c-0.003,-0.254 -0.153,-0.392 -0.408,-0.393c-0.533,-0.001 -1.066,0 -1.599,0zM234.303,190.31883c0.001,0.312 0.288,0.598 0.601,0.6c0.287,0.001 0.61,-0.326 0.602,-0.61c-0.009,-0.325 -0.282,-0.594 -0.602,-0.594c-0.344,-0.001 -0.602,0.26 -0.601,0.604zM233.509,190.88483c0.334,0.002 0.591,-0.242 0.593,-0.563c0.002,-0.319 -0.271,-0.601 -0.589,-0.608c-0.32,-0.007 -0.578,0.25 -0.58,0.578c-0.001,0.352 0.231,0.591 0.576,0.593z" data-paper-data="{&quot;origPos&quot;:null}" id="XMLID_2758_ 1" fill="#595e62"/><path d="M247.071,167.21983c0.277,-0.047 0.472,0.074 0.65,0.279c0.279,0.321 0.579,0.623 0.871,0.932c-0.002,0.259 -0.003,0.518 -0.005,0.778c-0.505,0.001 -1.01,0.002 -1.515,0.003c-0.003,-0.104 -0.007,-0.209 -0.01,-0.313c0,-0.26 0,-0.52 0,-0.78c0.016,-0.261 0.016,-0.522 0,-0.782c0.003,-0.039 0.006,-0.078 0.009,-0.117z" data-paper-data="{&quot;origPos&quot;:null}" id="XMLID_2732_ 1" fill="#2f3334"/><path d="M231.569,168.17583c0.226,-0.239 0.47,-0.464 0.674,-0.721c0.179,-0.225 0.399,-0.254 0.651,-0.235c0.004,0.3 0.009,0.599 0.013,0.899c0,0.26 0,0.519 0,0.779c-0.003,0.104 -0.007,0.209 -0.01,0.313c-0.436,-0.001 -0.873,-0.002 -1.309,-0.004c-0.017,-0.343 0.017,-0.688 -0.019,-1.031z" data-paper-data="{&quot;origPos&quot;:null}" id="XMLID_2731_ 1" fill="#2f3334"/><path d="M231.569,168.17583c0.037,0.344 0.003,0.688 0.018,1.032c-0.339,0.001 -0.678,0.001 -1.017,0.002c0.308,-0.368 0.657,-0.698 0.999,-1.034z" data-paper-data="{&quot;origPos&quot;:null}" id="XMLID_2730_ 1" fill="#d6c88c"/><path d="M248.587,169.20883c0.002,-0.259 0.003,-0.518 0.005,-0.778c0.289,0.232 0.535,0.508 0.786,0.778c-0.264,0 -0.528,0 -0.791,0z" data-paper-data="{&quot;origPos&quot;:null}" id="XMLID_2723_ 1" fill="#d6c88c"/><path d="M250.579,183.48583c0.001,1.171 0.01,2.343 -0.002,3.514c-0.005,0.489 -0.193,0.723 -0.722,0.722c-6.579,-0.006 -13.158,-0.007 -19.738,0.002c-0.492,0.001 -0.702,-0.285 -0.699,-0.703c0.008,-1.184 0.001,-2.369 0,-3.553c0.067,-0.026 0.095,-0.075 0.089,-0.145c0.13,-0.264 0.285,-0.516 0.389,-0.792c0.08,-0.109 0.135,-0.23 0.182,-0.356c0.136,-0.234 0.261,-0.474 0.367,-0.724c0.281,-0.533 0.565,-1.065 0.805,-1.618c0.026,-0.26 0.019,-0.52 0.004,-0.781c0.017,-0.26 0.017,-0.521 0,-0.781c0.017,-0.26 0.017,-0.521 0,-0.781c0.017,-0.26 0.017,-0.521 0,-0.781c0.017,-0.26 0.017,-0.521 0,-0.781c0.017,-0.26 0.017,-0.521 0,-0.781c0.002,-0.155 0.004,-0.311 0.006,-0.466c0.072,-0.023 0.123,0.027 0.178,0.056c0.25,0.133 0.518,0.194 0.799,0.204c0.219,0.008 0.438,0.008 0.657,0.011c0.004,0.325 0.008,0.651 0.013,0.976c0,0.26 0,0.519 0,0.779c0,0.261 0,0.522 0,0.783c0,0.26 0,0.519 0,0.779c-0.003,0.481 -0.005,0.961 -0.012,1.442c-0.001,0.09 0.023,0.127 0.12,0.123c0.247,-0.008 0.493,-0.007 0.74,-0.01c0.26,0 0.52,0 0.78,0c0.261,0 0.522,0 0.782,0c0.26,0 0.52,0 0.78,0c0.261,0 0.522,0 0.782,0c0.26,0 0.52,0 0.78,0c0.261,0 0.522,0 0.782,0c0.26,0 0.52,0 0.78,0c0.261,0 0.522,0 0.783,0c0.26,0 0.52,0 0.78,0c0.261,0 0.522,0 0.782,0c0.26,0 0.52,0 0.78,0c0.261,0 0.522,0 0.782,0c0.26,0 0.52,0 0.78,0c0.261,0 0.522,0 0.782,0c0.26,0 0.52,0 0.78,0c0.261,0 0.522,0 0.783,0c0.233,0.003 0.466,0.002 0.699,0.009c0.094,0.003 0.124,-0.029 0.121,-0.122c-0.007,-0.22 -0.006,-0.44 -0.008,-0.66c0.016,-0.261 0.016,-0.522 0,-0.782c0,-0.26 0,-0.52 0,-0.78c0.016,-0.261 0.016,-0.522 0,-0.782c0,-0.26 0,-0.52 0,-0.78c0,-0.261 0.049,-0.525 -0.026,-0.784c-0.011,-0.068 -0.007,-0.133 0.033,-0.192c0.541,-0.036 1.094,0.056 1.617,-0.161c0.005,-0.002 0.012,0.003 0.019,0.005c0.002,0.117 0.004,0.233 0.006,0.35c-0.016,0.26 -0.016,0.52 0,0.781c-0.016,0.26 -0.016,0.521 0,0.781c-0.016,0.26 -0.016,0.52 0,0.781c-0.016,0.26 -0.016,0.521 0,0.781c-0.016,0.26 -0.016,0.52 0,0.781c-0.001,0.279 -0.048,0.56 0.027,0.837c0.122,0.241 0.245,0.483 0.367,0.724c0.065,0.149 0.125,0.301 0.224,0.432c0.036,0.126 0.098,0.239 0.168,0.349c0.311,0.624 0.621,1.249 0.936,1.872c0.037,0.08 0.047,0.181 0.143,0.222zM230.051,186.62283c0.104,0.053 0.216,0.041 0.326,0.041c1.132,0.001 2.264,0 3.397,0c5.271,0 10.541,0 15.812,-0.001c0.135,0 0.276,0.023 0.393,-0.074c0.087,0.01 0.148,-0.041 0.208,-0.091c0.296,-0.249 0.381,-0.656 0.205,-1.006c-0.676,-1.341 -1.356,-2.681 -2.03,-4.024c-0.197,-0.392 -0.489,-0.59 -0.943,-0.59c-4.952,0.006 -9.904,0.007 -14.857,-0.001c-0.464,-0.001 -0.759,0.201 -0.958,0.598c-0.662,1.327 -1.328,2.653 -1.991,3.979c-0.038,0.075 -0.073,0.154 -0.095,0.234c-0.104,0.383 0.157,0.837 0.533,0.935z" data-paper-data="{&quot;origPos&quot;:null}" id="XMLID_2610_ 2" fill="#2f3334"/><path d="M250.579,183.48583c0.001,1.171 0.01,2.343 -0.002,3.514c-0.005,0.489 -0.193,0.723 -0.722,0.722c-6.579,-0.006 -13.158,-0.007 -19.738,0.002c-0.492,0.001 -0.702,-0.285 -0.699,-0.703c0.008,-1.184 0.001,-2.369 0,-3.553c0.067,-0.026 0.095,-0.075 0.089,-0.145c0.13,-0.264 0.285,-0.516 0.389,-0.792c0.08,-0.109 0.135,-0.23 0.182,-0.356c0.136,-0.234 0.261,-0.474 0.367,-0.724c0.281,-0.533 0.565,-1.065 0.805,-1.618c0.026,-0.26 0.019,-0.52 0.004,-0.781c0.017,-0.26 0.017,-0.521 0,-0.781c0.017,-0.26 0.017,-0.521 0,-0.781c0.017,-0.26 0.017,-0.521 0,-0.781c0.017,-0.26 0.017,-0.521 0,-0.781c0.017,-0.26 0.017,-0.521 0,-0.781c0.002,-0.155 0.004,-0.311 0.006,-0.466c0.072,-0.023 0.123,0.027 0.178,0.056c0.25,0.133 0.518,0.194 0.799,0.204c0.219,0.008 0.438,0.008 0.657,0.011c0.004,0.325 0.008,0.651 0.013,0.976c0,0.26 0,0.519 0,0.779c0,0.261 0,0.522 0,0.783c0,0.26 0,0.519 0,0.779c-0.003,0.481 -0.005,0.961 -0.012,1.442c-0.001,0.09 0.023,0.127 0.12,0.123c0.247,-0.008 0.493,-0.007 0.74,-0.01c0.26,0 0.52,0 0.78,0c0.261,0 0.522,0 0.782,0c0.26,0 0.52,0 0.78,0c0.261,0 0.522,0 0.782,0c0.26,0 0.52,0 0.78,0c0.261,0 0.522,0 0.782,0c0.26,0 0.52,0 0.78,0c0.261,0 0.522,0 0.783,0c0.26,0 0.52,0 0.78,0c0.261,0 0.522,0 0.782,0c0.26,0 0.52,0 0.78,0c0.261,0 0.522,0 0.782,0c0.26,0 0.52,0 0.78,0c0.261,0 0.522,0 0.782,0c0.26,0 0.52,0 0.78,0c0.261,0 0.522,0 0.783,0c0.233,0.003 0.466,0.002 0.699,0.009c0.094,0.003 0.124,-0.029 0.121,-0.122c-0.007,-0.22 -0.006,-0.44 -0.008,-0.66c0.016,-0.261 0.016,-0.522 0,-0.782c0,-0.26 0,-0.52 0,-0.78c0.016,-0.261 0.016,-0.522 0,-0.782c0,-0.26 0,-0.52 0,-0.78c0,-0.261 0.049,-0.525 -0.026,-0.784c-0.011,-0.068 -0.007,-0.133 0.033,-0.192c0.541,-0.036 1.094,0.056 1.617,-0.161c0.005,-0.002 0.012,0.003 0.019,0.005c0.002,0.117 0.004,0.233 0.006,0.35c-0.016,0.26 -0.016,0.52 0,0.781c-0.016,0.26 -0.016,0.521 0,0.781c-0.016,0.26 -0.016,0.52 0,0.781c-0.016,0.26 -0.016,0.521 0,0.781c-0.016,0.26 -0.016,0.52 0,0.781c-0.001,0.279 -0.048,0.56 0.027,0.837c0.122,0.241 0.245,0.483 0.367,0.724c0.065,0.149 0.125,0.301 0.224,0.432c0.036,0.126 0.098,0.239 0.168,0.349c0.311,0.624 0.621,1.249 0.936,1.872c0.037,0.08 0.047,0.181 0.143,0.222zM230.051,186.62283c0.104,0.053 0.216,0.041 0.326,0.041c1.132,0.001 2.264,0 3.397,0c5.271,0 10.541,0 15.812,-0.001c0.135,0 0.276,0.023 0.393,-0.074c0.087,0.01 0.148,-0.041 0.208,-0.091c0.296,-0.249 0.381,-0.656 0.205,-1.006c-0.676,-1.341 -1.356,-2.681 -2.03,-4.024c-0.197,-0.392 -0.489,-0.59 -0.943,-0.59c-4.952,0.006 -9.904,0.007 -14.857,-0.001c-0.464,-0.001 -0.759,0.201 -0.958,0.598c-0.662,1.327 -1.328,2.653 -1.991,3.979c-0.038,0.075 -0.073,0.154 -0.095,0.234c-0.104,0.383 0.157,0.837 0.533,0.935z" data-paper-data="{&quot;origPos&quot;:null}" id="XMLID_2610_ 1 1" fill="#2f3334"/><path d="M248.705,174.79683c-0.006,-0.002 -0.014,-0.007 -0.018,-0.005c-0.523,0.217 -1.076,0.125 -1.617,0.161c-0.274,-0.001 -0.548,-0.002 -0.822,-0.003c-0.259,0 -0.518,0 -0.777,0c-0.262,0 -0.523,0 -0.785,0c-0.259,0 -0.518,0 -0.777,0c-0.25,-0.003 -0.5,-0.018 -0.749,0.008c-0.032,-0.002 -0.065,-0.006 -0.097,-0.006c-2.18,0 -4.36,0 -6.541,-0.002c-0.074,0 -0.14,0.014 -0.206,0.043c-0.071,-0.004 -0.142,-0.007 -0.213,-0.011c-0.26,-0.079 -0.526,-0.022 -0.788,-0.033c-0.259,0 -0.518,0 -0.777,0c-0.262,0 -0.523,0 -0.785,0c-0.286,0.001 -0.572,0.002 -0.858,0.003c-0.219,-0.003 -0.438,-0.003 -0.657,-0.011c-0.28,-0.01 -0.549,-0.072 -0.799,-0.204c-0.055,-0.029 -0.105,-0.08 -0.178,-0.056c-0.104,-0.135 -0.238,-0.236 -0.382,-0.325c-0.058,-0.122 -0.106,-0.252 -0.239,-0.319c0.006,-0.165 -0.109,-0.295 -0.132,-0.453c-0.011,-0.107 -0.024,-0.214 -0.033,-0.321c-0.013,-0.153 -0.024,-0.307 -0.037,-0.46c-0.015,-0.181 0.033,-0.367 -0.038,-0.545c0.395,0 0.791,0 1.186,0c0,0.279 -0.007,0.558 0.002,0.837c0.013,0.421 0.304,0.698 0.724,0.705c0.188,0.003 0.375,0.008 0.563,0.011c0.033,-0.001 0.066,-0.002 0.099,-0.002c0.26,0 0.52,0 0.78,0c0.261,0 0.522,0 0.783,0c0.26,0 0.52,0 0.779,0c0.261,0 0.522,0 0.782,0c0.121,0.003 0.243,0.014 0.363,0.006c0.135,-0.009 0.283,0.007 0.385,-0.117c0.015,0.133 0.119,0.074 0.181,0.075c0.826,0.004 1.652,0.003 2.479,0.002c0.261,0 0.433,-0.16 0.595,-0.336c0.167,-0.025 0.261,-0.161 0.373,-0.261c0.3,-0.27 0.596,-0.548 0.777,-0.92c0.341,0.003 0.682,0.006 1.024,0.009c-0.052,0.199 -0.208,0.345 -0.277,0.536c-0.153,0.211 -0.349,0.39 -0.464,0.629c-0.148,0.082 -0.241,0.221 -0.389,0.338c0.527,0 1.02,0 1.513,0c0.152,0.056 0.309,0.056 0.467,0.039c0.261,0 0.522,0 0.782,0c0.26,0 0.52,0 0.78,0c0.261,0 0.522,0 0.783,0c0.26,0 0.52,0 0.78,0c0.281,0.001 0.561,0.002 0.842,0.002c0.259,-0.004 0.518,-0.007 0.778,-0.012c0.433,-0.009 0.717,-0.295 0.721,-0.725c0.003,-0.273 0.004,-0.545 0.006,-0.818c0.377,0.002 0.754,0.003 1.131,0.005c0.002,0.181 0.003,0.361 0.005,0.542c-0.007,0.26 -0.01,0.521 -0.051,0.779c-0.095,0.157 -0.131,0.34 -0.233,0.497c-0.196,0.301 -0.462,0.516 -0.744,0.718zM240.133,173.97683c-2.309,0 -4.618,0 -6.928,0c-0.228,0 -0.455,-0.003 -0.683,0.001c-0.177,0.003 -0.26,0.097 -0.252,0.271c0.008,0.166 0.108,0.232 0.356,0.232c5.009,0 10.017,0 15.026,0c0.071,0 0.143,0.01 0.21,-0.026c0.101,-0.054 0.203,-0.12 0.175,-0.25c-0.028,-0.127 -0.114,-0.216 -0.256,-0.226c-0.052,-0.004 -0.104,-0.001 -0.156,-0.001c-2.496,-0.001 -4.994,-0.001 -7.492,-0.001z" data-paper-data="{&quot;origPos&quot;:null}" id="XMLID_2607_ 1" fill="#d6c88c"/><path d="M239.37,188.65783c0.748,0 1.497,0.014 2.244,-0.006c0.394,-0.011 0.717,0.234 0.699,0.688c-0.026,0.65 -0.007,1.301 -0.007,1.951c0,0.474 -0.248,0.72 -0.732,0.721c-0.82,0.002 -1.639,0 -2.459,0c-0.657,0 -1.314,0 -1.971,0c-0.455,0 -0.732,-0.274 -0.732,-0.723c0,-0.638 0.011,-1.275 -0.004,-1.913c-0.011,-0.45 0.311,-0.742 0.718,-0.728c0.747,0.03 1.496,0.01 2.244,0.01zM239.354,191.67883c0.761,0 1.522,0.001 2.282,-0.001c0.259,-0.001 0.367,-0.11 0.368,-0.368c0.002,-0.65 0.002,-1.301 0,-1.951c-0.001,-0.282 -0.108,-0.391 -0.387,-0.391c-1.496,-0.001 -2.991,-0.001 -4.487,0c-0.244,0 -0.404,0.161 -0.405,0.408c-0.001,0.631 -0.001,1.262 0,1.892c0,0.314 0.095,0.41 0.405,0.411c0.741,0 1.482,0 2.224,0z" data-paper-data="{&quot;origPos&quot;:null}" id="XMLID_2604_ 1" fill="#2f3334"/><path d="M245.058,189.16583c0.533,0 1.066,-0.001 1.599,0c0.255,0.001 0.405,0.139 0.408,0.393c0.006,0.507 0.006,1.014 0,1.521c-0.003,0.261 -0.169,0.424 -0.433,0.425c-1.047,0.004 -2.093,0.003 -3.14,0c-0.256,-0.001 -0.404,-0.16 -0.405,-0.418c-0.001,-0.501 -0.001,-1.001 0,-1.502c0.001,-0.287 0.131,-0.419 0.411,-0.419c0.52,-0.001 1.04,0 1.56,0zM245.162,191.26683c0.256,0 0.513,0 0.769,0c0.068,0.001 0.136,0.002 0.205,0.003c0.155,0.001 0.309,0.003 0.464,0.002c0.162,-0.001 0.253,-0.081 0.255,-0.246c0.002,-0.187 -0.002,-0.373 -0.003,-0.56c0.02,-0.072 0.022,-0.145 0.001,-0.217c0.001,-0.207 0.003,-0.415 0.002,-0.622c-0.001,-0.167 -0.086,-0.251 -0.254,-0.247c-0.161,0.004 -0.323,0.008 -0.484,0.012c-0.062,-0.038 -0.126,-0.03 -0.19,-0.007c-0.253,0 -0.505,0 -0.758,0c-0.064,-0.023 -0.128,-0.031 -0.191,0.007c-0.249,-0.003 -0.498,-0.006 -0.748,-0.009c-0.072,-0.022 -0.145,-0.022 -0.217,0c-0.148,-0.001 -0.297,-0.003 -0.445,-0.002c-0.2,0.002 -0.263,0.062 -0.266,0.268c-0.004,0.2 0.001,0.4 0.001,0.6c-0.022,0.072 -0.022,0.145 0,0.217c-0.001,0.181 -0.006,0.361 -0.003,0.542c0.003,0.195 0.073,0.262 0.274,0.265c0.148,0.002 0.297,-0.002 0.445,-0.004c0.068,0 0.137,0.001 0.205,0.001c0.245,0.001 0.489,0.001 0.734,0.002c0.067,-0.002 0.136,-0.004 0.204,-0.005z" data-paper-data="{&quot;origPos&quot;:null}" id="XMLID_2601_ 1" fill="#2f3334"/><path d="M248.596,172.25783c-0.002,0.273 -0.003,0.545 -0.006,0.818c-0.004,0.43 -0.289,0.716 -0.721,0.725c-0.259,0.005 -0.518,0.008 -0.778,0.012c-0.01,-0.076 -0.019,-0.153 -0.029,-0.229c0,-0.26 0,-0.52 0,-0.78c0.003,-0.183 0.005,-0.365 0.008,-0.548c0.509,0.002 1.017,0.002 1.526,0.002z" data-paper-data="{&quot;origPos&quot;:null}" id="XMLID_2600_ 1" fill="#2f3334"/><path d="M232.874,173.81383c-0.188,-0.004 -0.375,-0.008 -0.563,-0.011c-0.42,-0.007 -0.71,-0.284 -0.724,-0.705c-0.009,-0.279 -0.002,-0.558 -0.002,-0.837c0.438,0 0.876,-0.001 1.314,-0.001c0.002,0.182 0.005,0.364 0.007,0.547c0,0.26 0,0.519 0,0.779c-0.023,0.073 0.014,0.156 -0.032,0.228z" data-paper-data="{&quot;origPos&quot;:null}" id="XMLID_2599_ 1" fill="#2f3334"/><path d="M234.303,190.31883c-0.001,-0.344 0.257,-0.605 0.6,-0.604c0.32,0 0.593,0.269 0.602,0.594c0.008,0.285 -0.314,0.611 -0.602,0.61c-0.312,-0.002 -0.599,-0.288 -0.6,-0.6zM234.894,190.70583c0.221,0.003 0.394,-0.164 0.4,-0.386c0.006,-0.229 -0.169,-0.412 -0.396,-0.415c-0.219,-0.003 -0.406,0.187 -0.404,0.41c0.001,0.214 0.179,0.388 0.4,0.391z" data-paper-data="{&quot;origPos&quot;:null}" id="XMLID_2595_ 1" fill="#2f3334"/><path d="M233.509,190.88483c-0.345,-0.002 -0.577,-0.241 -0.576,-0.593c0.001,-0.327 0.259,-0.585 0.58,-0.578c0.318,0.007 0.591,0.288 0.589,0.608c-0.002,0.321 -0.259,0.565 -0.593,0.563zM233.516,190.69783c0.221,-0.002 0.392,-0.176 0.39,-0.395c-0.002,-0.211 -0.19,-0.394 -0.401,-0.391c-0.219,0.004 -0.388,0.179 -0.385,0.401c0.003,0.226 0.169,0.387 0.396,0.385z" data-paper-data="{&quot;origPos&quot;:null}" id="XMLID_2592_ 1" fill="#2f3334"/><path d="M229.434,183.29483c0.025,0.009 0.049,0.019 0.074,0.028c0.006,0.07 -0.022,0.119 -0.089,0.145c0.005,-0.057 0.01,-0.115 0.015,-0.173z" data-paper-data="{&quot;origPos&quot;:null}" id="XMLID_2492_ 1" fill="#91989e"/><path d="M230.051,186.62283c-0.375,-0.098 -0.637,-0.552 -0.533,-0.932c0.022,-0.081 0.057,-0.159 0.095,-0.234c0.663,-1.327 1.329,-2.652 1.991,-3.979c0.198,-0.397 0.493,-0.599 0.958,-0.598c4.952,0.008 9.904,0.007 14.857,0.001c0.454,-0.001 0.746,0.198 0.943,0.59c0.674,1.342 1.354,2.682 2.03,4.024c0.176,0.35 0.092,0.758 -0.205,1.006c-0.06,0.05 -0.121,0.101 -0.208,0.091c-0.163,-0.013 -0.319,0.042 -0.483,0.042c-6.318,-0.004 -12.635,-0.003 -18.953,-0.003c-0.116,0 -0.233,0.012 -0.347,-0.031c-0.046,-0.019 -0.104,-0.026 -0.145,0.023zM240.001,186.43083c3.183,0 6.365,-0.006 9.548,0.006c0.472,0.002 0.845,-0.401 0.57,-0.924c-0.69,-1.312 -1.347,-2.642 -2.01,-3.968c-0.146,-0.292 -0.378,-0.42 -0.689,-0.42c-4.959,-0.002 -9.919,-0.001 -14.878,-0.001c-0.297,0 -0.53,0.123 -0.666,0.394c-0.689,1.372 -1.377,2.745 -2.062,4.119c-0.103,0.206 -0.054,0.445 0.104,0.614c0.147,0.158 0.338,0.179 0.537,0.179c3.181,0.001 6.364,0.001 9.546,0.001z" data-paper-data="{&quot;origPos&quot;:null}" id="XMLID_2441_ 1" fill="#595e62"/><path d="M230.051,186.62283c0.041,-0.049 0.099,-0.042 0.144,-0.025c0.114,0.043 0.231,0.03 0.347,0.031c6.318,0.001 12.635,0 18.953,0.003c0.164,0 0.32,-0.055 0.483,-0.042c-0.118,0.096 -0.258,0.074 -0.393,0.074c-5.271,0.001 -10.541,0.001 -15.812,0.001c-1.132,0 -2.264,0 -3.397,0c-0.11,-0.001 -0.222,0.011 -0.325,-0.042z" data-paper-data="{&quot;origPos&quot;:null}" id="XMLID_2438_ 1" fill="#91989e"/><path d="M240.133,173.97683c2.498,0 4.996,0 7.494,0c0.052,0 0.104,-0.003 0.156,0.001c0.142,0.01 0.228,0.099 0.256,0.226c0.028,0.131 -0.073,0.196 -0.175,0.25c-0.067,0.036 -0.14,0.026 -0.21,0.026c-5.009,0 -10.017,0 -15.026,0c-0.249,0 -0.348,-0.065 -0.356,-0.232c-0.009,-0.174 0.074,-0.268 0.252,-0.271c0.228,-0.004 0.455,-0.001 0.683,-0.001c2.308,0.001 4.617,0.001 6.926,0.001z" data-paper-data="{&quot;origPos&quot;:null}" id="XMLID_2391_ 1" fill="#ececec"/><path d="M236.315,174.99383c0.066,-0.029 0.132,-0.043 0.206,-0.043c2.18,0.002 4.36,0.002 6.541,0.002c0.032,0 0.065,0.004 0.097,0.006c-0.002,0.074 0.028,0.137 0.069,0.197c0.079,0.252 0.246,0.48 0.207,0.763c-0.118,-0.181 -0.285,-0.233 -0.499,-0.232c-2.062,0.006 -4.124,0.006 -6.186,0.001c-0.253,-0.001 -0.493,0.003 -0.677,0.207c0.013,-0.16 0.041,-0.315 0.105,-0.464c0.058,-0.142 0.122,-0.283 0.137,-0.437z" data-paper-data="{&quot;origPos&quot;:null}" id="XMLID_2390_ 1" fill="#595e62"/><path d="M240.001,173.43083c0.033,0.003 0.067,0.007 0.1,0.01c-0.162,0.176 -0.334,0.336 -0.595,0.337c-0.826,0 -1.652,0.002 -2.479,-0.002c-0.062,0 -0.167,0.058 -0.182,-0.075c0.012,-0.037 0.025,-0.075 0.037,-0.112c0.012,-0.013 0.025,-0.026 0.037,-0.039c0.099,-0.079 0.211,-0.11 0.338,-0.108c0.134,0.002 0.268,-0.006 0.401,-0.01c0.26,0.018 0.52,0.018 0.78,0c0.261,0.018 0.521,0.018 0.782,0c0.261,0.017 0.521,0.017 0.781,-0.001z" data-paper-data="{&quot;origPos&quot;:null}" id="XMLID_2389_ 1" fill="#595e62"/><path d="M242.658,173.77183c-0.493,0 -0.986,0 -1.513,0c0.148,-0.116 0.241,-0.256 0.388,-0.338c0.27,-0.001 0.541,-0.002 0.811,-0.003c0.005,0.009 0.012,0.012 0.022,0.009c0.015,0.023 0.037,0.032 0.064,0.026c0.09,0.021 0.12,0.111 0.184,0.162c0.014,0.049 0.029,0.097 0.044,0.144z" data-paper-data="{&quot;origPos&quot;:null}" id="XMLID_2385_ 1" fill="#595e62"/><path d="M239.354,191.67883c-0.741,0 -1.483,0.001 -2.224,0c-0.31,0 -0.404,-0.097 -0.405,-0.411c-0.001,-0.631 -0.001,-1.262 0,-1.892c0,-0.247 0.16,-0.408 0.405,-0.408c1.496,0 2.991,-0.001 4.487,0c0.279,0 0.387,0.109 0.387,0.391c0.002,0.65 0.002,1.301 0,1.951c-0.001,0.259 -0.109,0.368 -0.368,0.368c-0.761,0.002 -1.522,0.001 -2.282,0.001z" data-paper-data="{&quot;origPos&quot;:null}" id="XMLID_2362_ 1" fill="#91989e"/><path d="M244.013,189.38283c0.072,-0.022 0.145,-0.022 0.217,0c-0.003,0.246 -0.002,0.492 -0.009,0.738c-0.003,0.099 0.029,0.141 0.133,0.137c0.155,-0.006 0.311,-0.007 0.467,0c0.113,0.005 0.143,-0.041 0.144,-0.148c0.001,-0.239 -0.02,-0.48 0.013,-0.718c0.062,-0.038 0.126,-0.03 0.191,-0.007c-0.001,0.246 0,0.491 -0.006,0.737c-0.002,0.098 0.029,0.14 0.132,0.137c0.168,-0.006 0.336,-0.006 0.504,0c0.104,0.004 0.135,-0.039 0.132,-0.137c-0.006,-0.245 -0.004,-0.491 -0.005,-0.737c0.064,-0.022 0.128,-0.031 0.19,0.007c0.034,0.238 0.012,0.478 0.014,0.717c0.001,0.105 0.027,0.154 0.142,0.149c0.194,-0.009 0.388,-0.007 0.582,-0.009c0.021,0.072 0.019,0.145 -0.001,0.217c-0.194,-0.003 -0.389,-0.001 -0.583,-0.01c-0.119,-0.006 -0.141,0.051 -0.138,0.152c0.006,0.22 0.004,0.441 0.006,0.662c-0.068,-0.001 -0.136,-0.002 -0.205,-0.003c-0.001,-0.071 0.002,-0.143 -0.002,-0.214c-0.013,-0.192 0.086,-0.449 -0.041,-0.56c-0.132,-0.116 -0.385,-0.022 -0.585,-0.037c-0.115,-0.009 -0.144,0.043 -0.141,0.148c0.005,0.221 0.001,0.442 0,0.662c-0.068,0.001 -0.136,0.002 -0.205,0.003c0.002,-0.22 -0.002,-0.441 0.007,-0.661c0.005,-0.122 -0.041,-0.16 -0.158,-0.153c-0.136,0.008 -0.273,0.009 -0.408,0c-0.132,-0.009 -0.186,0.03 -0.179,0.171c0.011,0.213 0.004,0.428 0.004,0.642c-0.068,0 -0.137,-0.001 -0.205,-0.001c0.001,-0.22 -0.002,-0.44 0.004,-0.66c0.003,-0.101 -0.019,-0.158 -0.137,-0.152c-0.194,0.009 -0.388,0.007 -0.582,0.009c-0.022,-0.072 -0.022,-0.145 0,-0.217c0.195,0.003 0.389,0.002 0.584,0.009c0.102,0.004 0.138,-0.034 0.135,-0.135c-0.009,-0.245 -0.009,-0.491 -0.011,-0.738z" data-paper-data="{&quot;origPos&quot;:null}" id="XMLID_2361_ 1" fill="#91989e"/><path d="M245.926,189.38483c0.001,0.246 0,0.491 0.005,0.737c0.002,0.098 -0.028,0.141 -0.132,0.137c-0.168,-0.006 -0.336,-0.006 -0.504,0c-0.104,0.004 -0.135,-0.038 -0.132,-0.137c0.006,-0.245 0.004,-0.491 0.006,-0.737c0.252,0 0.504,0 0.757,0z" data-paper-data="{&quot;origPos&quot;:null}" id="XMLID_2360_ 1" fill="#ececec"/><path d="M244.977,189.39283c-0.033,0.239 -0.012,0.479 -0.013,0.718c-0.001,0.107 -0.031,0.153 -0.144,0.148c-0.155,-0.007 -0.311,-0.007 -0.467,0c-0.104,0.004 -0.136,-0.038 -0.133,-0.137c0.007,-0.246 0.007,-0.492 0.009,-0.738c0.25,0.002 0.499,0.005 0.748,0.009z" data-paper-data="{&quot;origPos&quot;:null}" id="XMLID_2359_ 1" fill="#ececec"/><path d="M245.162,191.26683c0.001,-0.221 0.005,-0.442 0,-0.662c-0.003,-0.106 0.026,-0.157 0.141,-0.148c0.199,0.015 0.453,-0.079 0.585,0.037c0.127,0.111 0.028,0.368 0.041,0.56c0.005,0.071 0.002,0.143 0.002,0.214c-0.256,-0.001 -0.513,-0.001 -0.769,-0.001z" data-paper-data="{&quot;origPos&quot;:null}" id="XMLID_2358_ 1" fill="#ececec"/><path d="M244.013,189.38283c0.003,0.247 0.002,0.493 0.009,0.74c0.003,0.101 -0.034,0.139 -0.135,0.135c-0.194,-0.008 -0.389,-0.007 -0.584,-0.009c-0.001,-0.2 -0.005,-0.4 -0.001,-0.6c0.004,-0.206 0.066,-0.266 0.266,-0.268c0.148,-0.001 0.297,0.001 0.445,0.002z" data-paper-data="{&quot;origPos&quot;:null}" id="XMLID_2357_ 1" fill="#ececec"/><path d="M246.853,190.24883c-0.194,0.003 -0.388,0 -0.582,0.009c-0.115,0.005 -0.141,-0.044 -0.142,-0.149c-0.002,-0.239 0.021,-0.479 -0.014,-0.717c0.161,-0.004 0.323,-0.008 0.484,-0.012c0.169,-0.004 0.253,0.08 0.254,0.247c0.003,0.208 0,0.415 0,0.622z" data-paper-data="{&quot;origPos&quot;:null}" id="XMLID_2356_ 1" fill="#ececec"/><path d="M244.223,191.26883c-0.001,-0.214 0.007,-0.428 -0.004,-0.642c-0.008,-0.142 0.047,-0.181 0.179,-0.171c0.136,0.01 0.273,0.008 0.408,0c0.117,-0.007 0.163,0.031 0.158,0.153c-0.009,0.22 -0.005,0.441 -0.007,0.661c-0.244,0 -0.489,0 -0.734,-0.001z" data-paper-data="{&quot;origPos&quot;:null}" id="XMLID_2355_ 1" fill="#ececec"/><path d="M243.303,190.46583c0.194,-0.003 0.388,0 0.582,-0.009c0.119,-0.006 0.14,0.051 0.137,0.152c-0.006,0.22 -0.003,0.44 -0.004,0.66c-0.148,0.001 -0.297,0.006 -0.445,0.004c-0.201,-0.003 -0.271,-0.069 -0.274,-0.265c-0.002,-0.181 0.003,-0.362 0.004,-0.542z" data-paper-data="{&quot;origPos&quot;:null}" id="XMLID_2354_ 1" fill="#ececec"/><path d="M246.136,191.27083c-0.001,-0.221 0,-0.441 -0.006,-0.662c-0.003,-0.102 0.02,-0.158 0.138,-0.152c0.194,0.01 0.389,0.007 0.583,0.01c0.001,0.187 0.005,0.373 0.003,0.56c-0.002,0.165 -0.093,0.245 -0.255,0.246c-0.154,0 -0.308,-0.002 -0.463,-0.002z" data-paper-data="{&quot;origPos&quot;:null}" id="XMLID_2353_ 1" fill="#ececec"/><path d="M234.894,190.70583c-0.221,-0.003 -0.399,-0.177 -0.4,-0.391c-0.001,-0.223 0.186,-0.413 0.404,-0.41c0.227,0.003 0.402,0.186 0.396,0.415c-0.006,0.222 -0.179,0.389 -0.4,0.386z" data-paper-data="{&quot;origPos&quot;:null}" id="XMLID_2350_ 1" fill="#d6c88c"/><path d="M233.516,190.69783c-0.227,0.002 -0.393,-0.159 -0.396,-0.385c-0.003,-0.221 0.166,-0.397 0.385,-0.401c0.211,-0.004 0.399,0.18 0.401,0.391c0.002,0.219 -0.169,0.393 -0.39,0.395z" data-paper-data="{&quot;origPos&quot;:null}" id="XMLID_2349_ 1" fill="#d6c88c"/><path d="M240.001,186.43083c-3.183,0 -6.365,0 -9.548,0c-0.199,0 -0.389,-0.021 -0.537,-0.179c-0.158,-0.169 -0.207,-0.408 -0.104,-0.614c0.685,-1.374 1.373,-2.747 2.062,-4.119c0.136,-0.271 0.369,-0.394 0.666,-0.394c4.959,-0.001 9.919,-0.001 14.878,0.001c0.31,0 0.543,0.128 0.689,0.42c0.663,1.326 1.32,2.656 2.01,3.968c0.275,0.523 -0.098,0.926 -0.57,0.924c-3.18,-0.012 -6.363,-0.007 -9.546,-0.007z" data-paper-data="{&quot;origPos&quot;:null}" id="XMLID_2315_ 1" fill="#d6c88c"/><g data-paper-data="{&quot;origPos&quot;:null}"><path d="M251.31858,173.20078l-11.50979,8.8484l6.51921,-13.13237z" data-paper-data="{&quot;origPos&quot;:null}" id="XMLID_116_" fill="url(#color-2)"/><path d="M254.18562,182.83966l-14.37683,-0.79047l13.24539,-5.77305z" data-paper-data="{&quot;origPos&quot;:null}" id="XMLID_114_" fill="url(#color-3)"/><path d="M250.32535,192.10852l-10.51656,-10.05934l13.77402,4.28767z" data-paper-data="{&quot;origPos&quot;:null}" id="XMLID_112_" fill="url(#color-4)"/><path d="M241.5444,196.67063l-1.73561,-14.62145l7.85739,12.34213z" data-paper-data="{&quot;origPos&quot;:null}" id="XMLID_110_" fill="url(#color-5)"/><path d="M231.9514,194.39131l7.85739,-12.34213l-1.73561,14.62145z" data-paper-data="{&quot;origPos&quot;:null}" id="XMLID_108_" fill="url(#color-6)"/><path d="M226.03478,186.33685l13.77402,-4.28767l-10.51656,10.05934z" data-paper-data="{&quot;origPos&quot;:null}" id="XMLID_105_" fill="url(#color-7)"/><path d="M226.5634,176.27613l13.24539,5.77305l-14.37683,0.79047z" data-paper-data="{&quot;origPos&quot;:null}" id="XMLID_103_" fill="url(#color-8)"/><path d="M233.28958,168.91681l6.51921,13.13237l-11.50979,-8.8484z" data-paper-data="{&quot;origPos&quot;:null}" id="XMLID_101_" fill="url(#color-9)"/><path d="M243.06625,167.60799l-3.25746,14.34701l-3.25746,-14.34701z" data-paper-data="{&quot;origPos&quot;:null}" id="XMLID_99_" fill="url(#color-10)"/></g><g data-paper-data="{&quot;origPos&quot;:null}"><path d="M242.52768,184.9419c0.00114,0.04466 -0.00103,0.06357 -0.04894,0.06165c-0.10953,-0.00449 -0.21941,0.01645 -0.32917,0.01645c-0.04574,0 -0.09147,0 -0.13721,0c-0.12005,-0.32052 -0.23633,-0.52233 -0.3844,-0.76112c-0.10999,0.02489 -0.21987,0.03184 -0.32986,0.05673c-0.20089,0.03419 -0.40166,0.06838 -0.60244,0.10257c-0.06391,0.0015 -0.12783,0.00289 -0.19174,0.00438c-0.09856,0.02938 -0.19883,0.04893 -0.30299,0.04883c-0.2496,-0.00032 -0.49908,0.00043 -0.74867,-0.00054c-0.04413,-0.00021 -0.09181,0.01133 -0.12897,-0.02383c-0.31671,-0.00769 -0.62965,-0.0391 -0.9331,-0.13002c-0.13046,-0.0359 -0.26343,-0.06474 -0.38394,-0.12692c-0.16121,-0.04167 -0.30162,-0.1234 -0.42693,-0.22041c-0.11845,-0.09167 -0.06997,-0.23942 -0.08644,-0.36101c-0.02104,-0.15524 -0.0056,-0.31464 -0.00675,-0.47223c-0.04642,-0.32234 -0.00217,-0.64734 -0.02653,-0.96956c-0.03202,-0.42458 -0.01189,-0.85023 -0.04527,-1.27438c-0.00297,-0.03771 -0.0407,-0.08034 -0.0407,-0.08782c0,-0.34189 0,-0.68377 0,-1.02566c0,-0.06838 0,-0.13675 0,-0.20513c0,0.00064 0.04516,-0.01976 0.07032,-0.039c0.16133,-0.12297 0.32837,-0.20716 0.53498,-0.24605c0.28458,-0.05363 0.56676,-0.11891 0.84997,-0.17842c-0.00012,0.01389 -0.00206,0.02233 -0.00458,0.03312c0.00252,-0.01068 0.00446,-0.02821 0.00458,-0.04209c0.06345,-0.01966 0.15218,0.04241 0.19243,-0.06443c0.53966,0 1.07933,0 1.619,0c0.02744,0 0.05488,0 0.08232,0c0.05488,0 0.10976,0 0.16464,0c0.0048,0 0.0191,0.05972 0.05122,0.06133c0.19883,0.00908 0.38703,0.08066 0.58003,0.11763c-0.00709,0.04733 -0.03281,0.06913 -0.06494,0.08056c0.03213,-0.01143 0.05774,-0.03323 0.06483,-0.08056c0.04196,0.02297 0.08518,0.0406 0.13149,0.05673c0.12314,0.04284 0.26023,0.05812 0.36222,0.14691c0.12714,0.05833 0.29899,0.07062 0.30025,0.25737c0.01646,0.564 0.06769,1.12694 0.05477,1.6918c0.05374,0.19039 0.03899,0.38847 0.04505,0.58035c0.01349,0.4233 0.07272,0.84435 0.06003,1.2685c-0.00126,0.0406 0.04654,0.08932 0.04654,0.0999c0,0.38462 0,0.76924 0,1.15386c0,0.15385 0.00503,0.31667 0.00892,0.47052zM240.62857,179.42558c-0.0008,0 -0.00183,0.00032 -0.00274,0.00043c0.00091,-0.00011 0.00194,-0.00043 0.00274,-0.00043zM240.12834,179.36319c-0.02973,-0.00652 -0.05957,-0.0094 -0.08987,-0.00021c0,0.0094 -0.00012,0.0188 -0.00023,0.02831c0.00012,-0.0094 0.00012,-0.01891 0.00023,-0.02831c0.0303,-0.00919 0.06026,-0.00631 0.08987,0.00021zM239.58399,179.61703c-0.00629,-0.00673 -0.01646,-0.0109 -0.02893,-0.01304c-0.02138,0.00214 -0.04002,0.00812 -0.04882,0.02383c0.0088,-0.01571 0.02744,-0.02169 0.04882,-0.02383c0.01258,0.00224 0.02275,0.00641 0.02893,0.01304zM238.253,180.08681l-0.00012,0.00021v0zM237.95093,179.98435v0c0.01338,-0.01496 0.02675,-0.02949 0.03807,-0.04402c-0.01132,0.01453 -0.02481,0.02906 -0.03807,0.04402zM239.40551,180.75327c-0.01829,0.00011 -0.03659,0.00011 -0.05488,0.00011c-0.01829,0.03419 -0.03659,0.06838 -0.05488,0.10246c0.01829,-0.03419 0.03659,-0.06827 0.05488,-0.10246c0.01829,0 0.03659,0 0.05488,-0.00011z" data-paper-data="{&quot;origPos&quot;:null}" id="XMLID_47_ 1" fill="#878787"/><g data-paper-data="{&quot;origPos&quot;:null}" id="XMLID_2_ 1"><path d="M242.53374,183.31752c0,0.38462 0,0.76924 0,1.15386c-0.12337,0.07821 -0.15561,0.21913 -0.24971,0.31881c-0.05339,0.05652 -0.14555,0.09626 -0.13446,0.19402c-0.04574,0 -0.09147,0 -0.13721,0c-0.12005,-0.25139 -0.23633,-0.50449 -0.3844,-0.74328c-0.00069,-0.16069 -0.08552,-0.30267 -0.14429,-0.44349c-0.09353,-0.22393 -0.22696,-0.43345 -0.32654,-0.65824c-0.12794,-0.289 -0.28767,-0.56571 -0.43368,-0.84766c0.08655,0.02158 0.13732,0.07757 0.16773,0.15299c0.02881,0.07126 0.0973,0.09049 0.1651,0.0922c0.03933,0.00096 0.11125,-0.02906 0.05431,-0.07863c-0.09867,-0.0859 -0.02424,-0.11378 0.04253,-0.14039c0.10896,-0.04338 0.21358,-0.09295 0.31008,-0.15694c0.03133,-0.02084 0.05294,-0.05182 0.04791,-0.08708c-0.00675,-0.04786 -0.05865,-0.02703 -0.08713,-0.04167c-0.06208,-0.03184 -0.10107,0.02115 -0.15138,0.02671c-0.03304,0.00363 -0.07729,0.04209 -0.09879,0.00246c-0.02584,-0.04754 0.03567,-0.04594 0.06197,-0.06357c0.05122,-0.03419 0.11068,-0.05908 0.13526,-0.12126c0.02996,-0.07607 0.08507,-0.13099 0.17299,-0.1484c0.04722,-0.0094 0.07009,-0.03579 0.04082,-0.07062c-0.0407,-0.04829 -0.02264,-0.08227 0.00629,-0.12489c0.03624,-0.05331 0.03613,-0.1062 -0.06254,-0.15c0.04791,0 0.06197,-0.00353 0.07272,0.00054c0.06757,0.02564 0.10107,-0.01913 0.13777,-0.05673c0.01727,-0.01773 0.02173,-0.03814 0.00023,-0.05566c-0.04413,-0.03611 -0.0909,-0.02415 -0.14132,-0.00972c-0.03545,0.01015 -0.06517,0.02778 -0.09753,0.04113c-0.06814,0.0281 -0.13572,0.02383 -0.2233,-0.06742c0.22524,0.04006 0.31031,-0.07201 0.37525,-0.20534c0.01578,-0.03237 0.04242,-0.03985 0.06974,-0.05427c0.09387,-0.04936 0.12177,-0.14541 0.17425,-0.22372c0.0112,-0.01678 0.00823,-0.04263 -0.01063,-0.05919c-0.01464,-0.01282 -0.04356,-0.01624 -0.04756,-0.00181c-0.03202,0.11592 -0.19849,0.01667 -0.23919,0.13088c-0.00514,0.01453 -0.10782,0.0594 -0.16098,0.0141c-0.05671,-0.0484 0.0112,-0.09295 0.02458,-0.13772c0.02858,-0.09562 0.12246,-0.13398 0.20626,-0.17116c0.11182,-0.04957 0.20306,-0.16838 0.19049,-0.23376c-0.03087,-0.16058 0.01075,-0.25855 0.15264,-0.3343v0c0.0391,-0.00075 0.06654,-0.01784 0.08243,-0.05128c0.05351,-0.00823 0.10908,-0.0312 0.09433,-0.08568c-0.01612,-0.05951 -0.07866,-0.02788 -0.12646,-0.0312c-0.11411,-0.00791 -0.20192,0.02874 -0.30745,0.06977c-0.23324,0.0907 -0.49199,0.05737 -0.73381,-0.00321c-0.10039,-0.02511 -0.18706,-0.04028 -0.26972,0.01635c-0.07135,0.04883 -0.14601,0.06229 -0.23062,0.06068c-0.07226,-0.00139 -0.14406,-0.00043 -0.21712,0.01207c-0.30745,0.05278 -0.61684,-0.00246 -0.92543,0.00556c-0.03601,0.00096 -0.08141,-0.01228 -0.10999,-0.04434c0.03179,-0.03462 0.07798,-0.03291 0.11479,-0.02393c0.16236,0.03974 0.32895,-0.01891 0.4961,0.03868c0.10862,0.0375 0.24079,-0.01133 0.3597,-0.04006c0.04002,-0.00972 0.04402,-0.03846 0.04493,-0.06966c0.01818,-0.00171 0.03636,-0.00342 0.05454,-0.00513c0.06517,0.08718 0.18442,0.10406 0.2496,0.06079c0.16533,-0.10994 0.39823,-0.08034 0.53315,-0.24071c0.02127,-0.02532 0.0558,-0.0328 0.08724,-0.01741c0.1268,0.06218 0.25954,-0.12842 0.38703,0.00876c0.01155,0.01239 0.04493,-0.02051 0.05923,-0.04305c0.0359,-0.05641 0.07283,-0.05983 0.11079,-0.00171c0.02984,0.04573 0.0742,0.0671 0.1005,0.00855c0.03202,-0.07148 0.10107,-0.10652 0.14681,-0.16293c0.12714,0.05833 0.29945,0.07062 0.3007,0.25737c-0.07455,0.01432 -0.04642,0.07094 -0.05431,0.11346c-0.03396,0.18301 0.03202,0.36379 0.00389,0.54926c-0.04002,0.26347 0.06894,0.52116 0.06254,0.7858c-0.00194,0.08109 -0.00972,0.16849 0.04356,0.24338c0.05374,0.19049 0.04082,0.38858 0.04688,0.58035c0.01349,0.4234 0.07649,0.84435 0.0638,1.2685c-0.00114,0.04103 -0.01178,0.08964 0.05408,0.10022z" id="XMLID_140_ 1" fill="#ededed"/><path d="M238.3901,184.31699c-0.13046,-0.03579 -0.26366,-0.06474 -0.38417,-0.12692c-0.06723,-0.10257 -0.18088,-0.16165 -0.2656,-0.2469c-0.16899,-0.17019 -0.18317,-0.38953 -0.20009,-0.60556c-0.0056,-0.07105 0.01292,-0.14669 -0.05728,-0.20118c-0.04642,-0.32234 -0.00549,-0.64723 -0.02984,-0.96956c-0.03202,-0.42458 -0.01852,-0.85023 -0.05179,-1.27438c-0.00297,-0.03771 0.0048,-0.08034 -0.05385,-0.08782c0,-0.34189 0,-0.68377 0,-1.02566c0.07043,-0.00321 0.09444,0.0796 0.1643,0.07735c0.01475,0.0719 0.09959,0.07778 0.13766,0.12767c0.08884,0.09306 0.21621,0.13376 0.32106,0.20534c0.0279,0.01913 0.07752,0.01806 0.08187,0.05791c0.00571,0.05139 -0.04665,0.05577 -0.08312,0.06848c-0.03121,0.0109 -0.06174,0.02094 -0.06631,0.05598c-0.00606,0.04562 0.0383,0.05161 0.06689,0.06998c0.05934,0.03793 0.13149,0.03398 0.197,0.04669c0.08575,0.01678 0.08907,0.05011 0.06266,0.11517c-0.02344,0.05769 -0.05602,0.09722 -0.12588,0.09819c-0.05625,0.00075 -0.12748,0.05214 -0.11239,0.06774c0.08667,0.08942 0.05671,0.16389 0.01361,0.25802c-0.00869,0.01891 0.01875,0.09615 0.00309,0.1484c-0.02173,0.07265 -0.03041,0.14028 0.04768,0.19381c0.04745,0.03248 0.03316,0.06667 -0.00343,0.10684c-0.10816,0.1187 -0.12211,0.26646 -0.03442,0.40353c0.04368,0.06827 0.02218,0.11849 -0.00069,0.18814c-0.05705,0.17404 -0.1675,0.34306 -0.07169,0.54189c0.03419,0.07105 0.05305,0.18077 0.01772,0.2422c-0.07695,0.13398 -0.11662,0.25267 -0.02173,0.38847c0.0072,0.01036 0.00286,0.03739 -0.00698,0.04711c-0.08792,0.08665 -0.0622,0.17799 -0.0207,0.27319c0.01761,0.04049 0.0064,0.08023 -0.0112,0.12276c-0.05008,0.12094 0.00103,0.23772 0.07386,0.32586c0.07569,0.09167 0.18785,0.16079 0.30985,0.20257c0.05625,0.01902 0.09718,0.04562 0.10393,0.1047z" id="XMLID_138_ 1" fill="#d8d8d8"/><path d="M237.51177,179.85646c-0.06986,0.00214 -0.09387,-0.08066 -0.1643,-0.07746c0,-0.06838 0,-0.13675 0,-0.20513c0.03487,0.00064 0.0582,-0.01902 0.08346,-0.03825c0.16144,-0.12297 0.34152,-0.20641 0.54813,-0.2453c0.28447,-0.05353 0.56676,-0.11742 0.84997,-0.17693c-0.00137,0.12832 -0.11113,0.11507 -0.19597,0.12532c-0.07775,0.0094 -0.16098,-0.00833 -0.24548,0.06838c0.21404,0 0.40704,0.01186 0.59763,-0.00353c0.17608,-0.01421 0.35261,-0.0594 0.52777,-0.03237c0.12794,0.01976 0.25017,0.00801 0.37342,-0.00449c0.2879,-0.02917 0.58563,-0.08665 0.85912,0.00866c0.20843,0.07255 0.40041,0.07725 0.60461,0.03953c0.06586,-0.01218 0.15435,-0.00449 0.16853,-0.09915c0.04185,0.02297 0.0853,0.0406 0.1316,0.05673c0.12314,0.04284 0.26046,0.05812 0.36245,0.14691c-0.04574,0.05641 -0.11479,0.09145 -0.14681,0.16293c-0.0263,0.05855 -0.07066,0.03718 -0.1005,-0.00855c-0.03796,-0.05812 -0.07489,-0.0547 -0.11079,0.00171c-0.01441,0.02254 -0.04768,0.05556 -0.05923,0.04305c-0.12748,-0.13718 -0.26034,0.05342 -0.38703,-0.00876c-0.03144,-0.01539 -0.06586,-0.00791 -0.08724,0.01741c-0.13492,0.16036 -0.36782,0.13077 -0.53315,0.24071c-0.06517,0.04338 -0.18442,0.0265 -0.2496,-0.06079c0.18477,-0.01944 0.36062,-0.06945 0.53154,-0.1359c0.09319,-0.00716 0.18591,-0.05994 0.13103,-0.1359c-0.04836,-0.06688 -0.15435,-0.14562 -0.27818,-0.08996c-0.01852,0.00054 -0.03704,0.00107 -0.05556,0.00171c-0.01269,-0.02105 -0.03202,-0.025 -0.05534,-0.01891c-0.01795,-0.00289 -0.0359,-0.00577 -0.05374,-0.00866c-0.11502,-0.04263 -0.23542,-0.05161 -0.35753,-0.04893c-0.01692,-0.01453 -0.0351,-0.01485 -0.05431,-0.00427c-0.03567,-0.00972 -0.07146,-0.01432 -0.10782,-0.00342c-0.01841,-0.0016 -0.03682,-0.0031 -0.05511,-0.0047c-0.02893,-0.01036 -0.05751,-0.01207 -0.08564,0.00246c-0.0829,-0.02297 -0.16362,0.00267 -0.24525,0.00951c-0.07558,-0.00919 -0.1499,-0.00769 -0.21964,0.02628c-0.18305,-0.00385 -0.3318,0.1172 -0.51451,0.12212c-0.04905,0.00128 -0.10382,0.04145 -0.10953,0.09904c-0.0064,0.0641 0.05397,0.08344 0.10245,0.10267c0.06128,0.02436 0.11925,0.06239 0.19128,0.05513c0.05259,0.025 0.10839,0.02991 0.16613,0.02393c0.21952,0.02746 0.43916,0.05256 0.65972,0.00866c0.0909,-0.00908 0.18248,0.02874 0.27292,-0.00427c0.02744,0.00289 0.055,0.00566 0.08243,0.00855c-0.0008,0.0312 -0.00492,0.05994 -0.04493,0.06966c-0.11891,0.02874 -0.25108,0.07746 -0.3597,0.04006c-0.16727,-0.05769 -0.33386,0.00107 -0.4961,-0.03868c-0.03682,-0.00897 -0.08301,-0.01068 -0.11479,0.02393c-0.01829,0 -0.03659,0 -0.05488,0c-0.02939,-0.03547 -0.07169,-0.02276 -0.10976,-0.02553c-0.01829,0 -0.03659,0 -0.05488,0c-0.05225,-0.00406 -0.10839,0.01336 -0.14795,-0.04167c-0.05556,-0.07735 -0.15035,-0.08793 -0.2377,-0.11218c-0.12909,-0.0359 -0.2815,-0.01304 -0.37937,-0.13024c-0.01658,-0.01987 -0.05294,-0.01603 -0.05511,0.00588c-0.01521,0.15011 -0.13206,0.09776 -0.21964,0.09797c-0.09753,0.00032 -0.09101,0.05545 -0.04402,0.09327c0.09536,0.07682 0.0391,0.13002 -0.01418,0.18975c-0.16064,0.00086 -0.28138,-0.1188 -0.43894,-0.12799zM238.51507,179.57056c-0.00777,-0.0047 -0.01749,-0.01517 -0.02813,-0.01613c-0.02035,-0.00181 -0.03498,0.01047 -0.03613,0.02959c-0.00114,0.01955 0.01155,0.03258 0.03339,0.02863c0.01955,-0.00342 0.02984,-0.01763 0.03087,-0.04209z" id="XMLID_135_ 1" fill="#e9e9e9"/><path d="M240.88731,179.06104c0.0048,0.02767 0.0191,0.04775 0.05134,0.04926c0.19883,0.00908 0.38703,0.0687 0.58003,0.10556c-0.01418,0.09466 -0.10279,0.08708 -0.16853,0.09925c-0.20432,0.03761 -0.39617,0.03301 -0.60461,-0.03953c-0.27349,-0.0952 -0.57111,-0.03782 -0.85912,-0.00866c-0.12325,0.0125 -0.24548,0.02425 -0.37342,0.00449c-0.17516,-0.02703 -0.3517,0.01816 -0.52777,0.03237c-0.1906,0.01539 -0.3836,0.00353 -0.59763,0.00353c0.08449,-0.07671 0.16785,-0.05898 0.24548,-0.06838c0.08472,-0.01026 0.1946,0.00299 0.19597,-0.12532c0.06345,-0.01966 0.15218,0.04178 0.19243,-0.05235c0.53966,0 1.07933,0 1.619,0c0.00446,0.02564 0.01166,0.04979 0.04756,0.04551c0.02756,-0.00331 0.0311,-0.025 0.03476,-0.04551c0.05477,-0.00021 0.10965,-0.00021 0.16453,-0.00021z" id="XMLID_133_ 1" fill="#ededed"/><path d="M242.14958,184.98421c-0.01109,-0.09776 0.08106,-0.13739 0.13446,-0.19402c0.0941,-0.09979 0.12634,-0.2406 0.24971,-0.31881c0,0.15385 -0.0024,0.3078 0.00149,0.46154c0.00114,0.04466 -0.00857,0.0546 -0.05648,0.05267c-0.10953,-0.00438 -0.21941,-0.00139 -0.32917,-0.00139z" id="XMLID_131_ 1" fill="#fefefe"/><path d="M240.72266,179.06104c-0.00366,0.02051 -0.00709,0.0422 -0.03476,0.04551c-0.0359,0.00427 -0.0431,-0.01987 -0.04756,-0.04551c0.02744,0 0.05488,0 0.08232,0z" id="XMLID_130_ 1" fill="#fefefe"/><path d="M240.69568,184.41817c-0.06391,0.0015 -0.12783,0.00299 -0.19174,0.00438c-0.07283,-0.05534 -0.15824,-0.01955 -0.23759,-0.02714c-0.04974,-0.00481 -0.10313,-0.01026 -0.08964,-0.06774c0.0319,-0.13569 -0.04665,-0.24445 -0.0877,-0.36218c-0.02081,-0.05983 -0.02321,-0.10652 0.04894,-0.13697c0.07981,-0.03366 0.07626,-0.07222 -0.00458,-0.09797c-0.10622,-0.03376 -0.0582,-0.15011 -0.12954,-0.20086c0.08804,-0.0718 0.02996,-0.16175 0.01418,-0.23259c-0.0263,-0.11859 0.00046,-0.26624 -0.13114,-0.34499c-0.09204,-0.05502 -0.07672,-0.09712 -0.00206,-0.13772c0.07809,-0.04241 0.05614,-0.07628 0.0279,-0.14231c-0.02618,-0.06111 -0.11902,-0.10171 -0.07466,-0.19199c0.05134,-0.10438 0.00274,-0.22425 -0.02538,-0.31229c-0.04185,-0.13141 -0.00274,-0.2405 0.02275,-0.35214c0.01372,-0.05994 0.02195,-0.1 -0.01509,-0.14893c-0.0383,-0.05075 -0.06746,-0.1078 -0.12508,-0.1437c0.09193,-0.10075 -0.00206,-0.23708 0.05877,-0.32736c0.04047,-0.06004 0.06712,-0.18269 0.19997,-0.16026c0.01178,0.09113 0.1292,0.06346 0.16464,0.12789l0.00012,0.00011c-0.00069,0.03728 0.00069,0.0734 0.05443,0.07725v0c-0.00217,0.06549 0.0319,0.12084 0.05168,0.18077c0.04162,0.12671 0.20764,0.19787 0.17585,0.35385c0.09959,0.02628 0.03739,0.15235 0.12943,0.18323c0.08118,0.10246 0.13309,0.21977 0.19289,0.33302c0.14601,0.28195 0.30573,0.55866 0.43368,0.84766c0.09947,0.22479 0.2329,0.4343 0.32654,0.65824c0.05888,0.14081 0.1436,0.2828 0.14429,0.44349c-0.10999,0.02489 -0.21987,0.04968 -0.32986,0.07457c-0.0303,-0.04519 -0.03258,-0.12147 -0.11811,-0.10887c-0.12005,0.01773 -0.21461,-0.01506 -0.2855,-0.10705c-0.05294,-0.0687 -0.14703,-0.00908 -0.14475,0.00256c0.01841,0.09466 -0.06974,0.11058 -0.11491,0.15705c-0.04436,0.04551 -0.08758,0.09167 0.02115,0.11261c0.02687,0.00534 0.0351,0.02479 0.04013,0.04637z" id="XMLID_129_ 1" fill="#dedede"/><path d="M240.72346,182.29165c-0.0598,-0.11325 -0.11171,-0.23056 -0.19289,-0.33302c-0.01315,-0.12949 0.00549,-0.26165 -0.12657,-0.36411c-0.05797,-0.04498 -0.11194,-0.13836 -0.08792,-0.21731c0.04299,-0.14135 -0.03407,-0.14691 -0.14246,-0.13644v0c0.0008,-0.03739 -0.0008,-0.07329 -0.05443,-0.07725l-0.00012,-0.00011c-0.01875,-0.07714 -0.03796,-0.15428 -0.0558,-0.23152c-0.00652,-0.02831 -0.01658,-0.04957 -0.05271,-0.03291c-0.02378,0.0109 -0.04962,0.03226 -0.0678,-0.00043c-0.01784,-0.03194 0.02035,-0.03825 0.03739,-0.05523c0.05454,-0.05406 0.15687,-0.03686 0.19368,-0.1155c0.00903,-0.00011 0.01818,-0.00032 0.02721,-0.00043c0.16956,-0.0406 0.32803,-0.1031 0.46695,-0.20481c0.04527,0.00021 0.08644,-0.00459 0.12886,-0.02799c0.17413,-0.09605 0.34198,-0.20417 0.53772,-0.26218c0.01852,-0.00556 0.03121,-0.02842 0.04654,-0.04316c0.13412,-0.02051 0.24879,-0.08023 0.35673,-0.15385c0.10222,0.00801 0.17219,-0.08494 0.27441,-0.07693c-0.14201,0.07564 -0.18351,0.17372 -0.15264,0.3343c0.01258,0.06539 -0.07855,0.18409 -0.19049,0.23376c-0.08392,0.03718 -0.17768,0.07553 -0.20626,0.17116c-0.01338,0.04476 -0.08129,0.08932 -0.02458,0.13772c0.05305,0.0453 0.15573,0.00043 0.16098,-0.0141c0.0407,-0.11421 0.20718,-0.01496 0.23919,-0.13088c0.004,-0.01442 0.03293,-0.01101 0.04756,0.00181c0.01886,0.01656 0.02184,0.04252 0.01063,0.05919c-0.05248,0.07831 -0.08038,0.17436 -0.17425,0.22372c-0.02744,0.01442 -0.05408,0.0219 -0.06974,0.05427c-0.06494,0.13334 -0.15001,0.24541 -0.37525,0.20534c0.08758,0.09124 0.15515,0.09541 0.2233,0.06742c0.03236,-0.01336 0.06208,-0.03098 0.09753,-0.04113c0.05031,-0.01442 0.09707,-0.02639 0.14132,0.00972c0.0215,0.01752 0.01704,0.03793 -0.00023,0.05566c-0.0367,0.03761 -0.0702,0.08238 -0.13777,0.05673c-0.01075,-0.00406 -0.02481,-0.00054 -0.07272,-0.00054c0.09867,0.04391 0.09879,0.09669 0.06254,0.15c-0.02904,0.04263 -0.04699,0.0766 -0.00629,0.12489c0.02927,0.03472 0.0064,0.06122 -0.04082,0.07062c-0.08792,0.01741 -0.14304,0.07233 -0.17299,0.1484c-0.02447,0.06218 -0.08392,0.08708 -0.13526,0.12126c-0.02641,0.01763 -0.08781,0.01603 -0.06197,0.06357c0.0215,0.03964 0.06574,0.00118 0.09879,-0.00246c0.05042,-0.00556 0.08941,-0.05855 0.15138,-0.02671c0.02858,0.01463 0.08038,-0.00631 0.08713,0.04167c0.00503,0.03526 -0.01658,0.06635 -0.04791,0.08708c-0.0965,0.064 -0.20112,0.11357 -0.31008,0.15694c-0.06689,0.0266 -0.1412,0.05438 -0.04253,0.14039c0.05694,0.04957 -0.01509,0.0796 -0.05431,0.07863c-0.06791,-0.00171 -0.1364,-0.02094 -0.1651,-0.0922c-0.03075,-0.07564 -0.08141,-0.13152 -0.16796,-0.1531z" id="XMLID_128_ 1" fill="#f3f3f3"/><path d="M242.01237,179.9585c-0.10222,-0.00801 -0.17219,0.08494 -0.27441,0.07693c-0.01132,-0.06208 -0.06128,-0.05556 -0.10519,-0.04648c-0.07043,0.01453 -0.13961,0.03472 -0.20878,0.05417c-0.09616,0.02703 -0.11102,0.07628 -0.04276,0.14605c-0.01543,0.01485 -0.02801,0.03771 -0.04654,0.04316c-0.19586,0.05812 -0.36359,0.16624 -0.53772,0.26218c-0.04253,0.0234 -0.08358,0.02821 -0.12886,0.02799c-0.12646,-0.0312 -0.25668,0.00107 -0.38005,-0.01111c-0.30871,-0.03045 -0.6165,-0.05118 -0.92669,-0.04573c-0.04128,0.00075 -0.08141,-0.0188 -0.10439,-0.05278c-0.01932,-0.02853 -0.02241,-0.05823 0.03075,-0.05865c0.1683,-0.00139 0.33603,0.00246 0.50399,-0.0219c0.20375,-0.02959 0.40978,-0.04551 0.6149,-0.06678c0.03453,-0.00353 0.0646,-0.01079 0.06414,-0.05032c-0.00069,-0.04829 -0.03945,-0.05128 -0.07706,-0.05118c-0.13229,0.00011 -0.26617,-0.0109 -0.39652,0.00438c-0.40795,0.04775 -0.81213,0.00289 -1.21791,-0.02329c-0.17688,-0.01143 -0.34621,-0.07693 -0.5264,-0.05833l0.00012,-0.00021c0.00046,-0.04487 -0.00503,-0.08889 -0.06277,-0.09872c-0.05488,-0.00929 -0.08598,-0.02639 -0.05808,-0.0844c0.02321,-0.04818 0.04951,-0.0718 0.11525,-0.0562c0.08381,0.01987 0.17013,0.02019 0.24582,-0.03761c0.04745,-0.03622 0.07706,-0.00748 0.1244,0.02286c0.11845,0.07596 0.26617,0.07543 0.40567,0.08953c0.00686,0.00075 0.01704,-0.02639 0.02561,-0.0406c0.01829,0 0.03659,0 0.05488,0c0.02046,0.06913 0.0614,0.061 0.10976,0.02553c0.01829,0 0.03659,0 0.05488,0c0.0287,0.03216 0.07409,0.0453 0.10999,0.04434c0.30859,-0.00801 0.6181,0.04722 0.92543,-0.00556c0.07317,-0.0125 0.14486,-0.01357 0.21712,-0.01207c0.08461,0.00171 0.15938,-0.01186 0.23062,-0.06068c0.08278,-0.05663 0.16945,-0.04145 0.26972,-0.01635c0.24182,0.06058 0.50056,0.09391 0.73381,0.00321c0.10542,-0.04103 0.19334,-0.07757 0.30745,-0.06977c0.04779,0.00331 0.11033,-0.02821 0.12646,0.0312c0.01475,0.05449 -0.0407,0.07746 -0.09433,0.08568c-0.0399,-0.00021 -0.07843,0.00139 -0.08232,0.0515z" id="XMLID_127_ 1" fill="#efefef"/><path d="M240.66732,179.44706c0.01852,-0.00054 0.03704,-0.00107 0.05545,-0.00171c0.08335,0.05577 0.23256,0.07404 0.14715,0.22586c-0.17104,0.06645 -0.34678,0.11645 -0.53154,0.1359c-0.01818,0.00171 -0.03636,0.00342 -0.05454,0.00513c-0.02744,-0.00289 -0.055,-0.00566 -0.08243,-0.00855c0.01487,-0.04605 -0.06128,-0.11485 0.0311,-0.1391c0.11239,-0.02959 0.06952,-0.08333 0.00423,-0.16838c0.08003,0.03782 0.12886,-0.00374 0.17093,0.01261c0.10405,0.04049 0.1244,-0.02489 0.15058,-0.08942c0.01795,0.00289 0.0359,0.00577 0.05374,0.00866c0.00869,0.03141 0.02058,0.05417 0.05534,0.01902z" id="XMLID_126_ 1" fill="#6a6a6a"/><path d="M242.31342,179.67687c0.01646,0.564 0.0686,1.12704 0.05568,1.6918c-0.05328,-0.0749 -0.04551,-0.16229 -0.04356,-0.24338c0.00629,-0.26464 -0.10256,-0.52233 -0.06254,-0.7858c0.02813,-0.18536 -0.03785,-0.36624 -0.00389,-0.54926c0.00789,-0.04241 -0.02035,-0.09904 0.05431,-0.11335z" id="XMLID_125_ 1" fill="#e6e6e6"/><path d="M242.01237,179.9585c0.00389,-0.05011 0.04242,-0.05171 0.08243,-0.05128c-0.01589,0.03344 -0.04333,0.05053 -0.08243,0.05128z" id="XMLID_124_ 1" fill="#f3f3f3"/><path d="M238.3901,184.31699c-0.00675,-0.05908 -0.04768,-0.08568 -0.10382,-0.10492c-0.122,-0.04167 -0.23427,-0.1109 -0.30985,-0.20257c-0.07272,-0.08814 -0.12394,-0.20492 -0.07386,-0.32586c0.01761,-0.04252 0.02881,-0.08227 0.0112,-0.12276c-0.0415,-0.09509 -0.06723,-0.18654 0.0207,-0.27319c0.00983,-0.00972 0.01429,-0.03675 0.00698,-0.04711c-0.0949,-0.1359 -0.05522,-0.25449 0.02173,-0.38847c0.03533,-0.06143 0.01646,-0.17126 -0.01772,-0.2422c-0.09581,-0.19883 0.01464,-0.36785 0.07169,-0.54189c0.02287,-0.06955 0.04436,-0.11987 0.00069,-0.18814c-0.0877,-0.13697 -0.07375,-0.28472 0.03442,-0.40353c0.03659,-0.04017 0.05088,-0.07425 0.00343,-0.10684c-0.07809,-0.05353 -0.0694,-0.12116 -0.04768,-0.19381c0.01566,-0.05225 -0.01178,-0.12949 -0.00309,-0.1484c0.0431,-0.09402 0.07306,-0.16849 -0.01361,-0.25802c-0.01509,-0.01549 0.05614,-0.06699 0.11239,-0.06774c0.06986,-0.00086 0.10245,-0.04049 0.12588,-0.09819c0.02641,-0.06496 0.0231,-0.0984 -0.06266,-0.11517c-0.06551,-0.01282 -0.13766,-0.00876 -0.197,-0.04669c-0.0287,-0.01827 -0.07295,-0.02425 -0.06689,-0.06998c0.00469,-0.03515 0.03522,-0.04519 0.06631,-0.05598c0.03647,-0.01271 0.08884,-0.01709 0.08312,-0.06848c-0.00446,-0.03985 -0.05397,-0.03889 -0.08187,-0.05791c-0.10473,-0.07158 -0.23222,-0.11229 -0.32106,-0.20534c0.07523,-0.00086 0.14201,0.03002 0.20935,0.05353c0.19631,0.06848 0.39812,0.14156 0.53898,0.2874c0.0933,0.09658 0.19117,0.18323 0.31842,0.20225c0.19757,0.02949 0.38211,0.10876 0.58128,0.12105c0.0829,0.00513 0.11822,0.02842 0.10805,0.10513c-0.01829,0 -0.03659,0 -0.05488,0.00011c-0.07317,-0.03472 -0.14658,-0.0672 -0.23141,-0.03419c-0.07317,0.02853 -0.14578,0.0203 -0.22444,0.01571c-0.15618,-0.00919 -0.31317,-0.061 -0.47221,-0.00833c-0.04116,0.01368 -0.08312,0.01923 -0.08118,0.06827c0.00171,0.04295 0.03727,0.08013 0.07626,0.07906c0.1332,-0.00374 0.24822,0.08708 0.38417,0.05887c0.14463,0.04487 0.30367,0.02885 0.44454,0.09861c0.04242,0.02105 0.1029,0.01944 0.11822,0.06987c0.01589,0.05225 -0.05179,0.06271 -0.07535,0.09733c-0.04219,0.06197 -0.10096,0.03526 -0.15916,0.02126c-0.12748,-0.03056 -0.2233,0.01816 -0.27784,0.13088c-0.03773,0.07799 -0.01166,0.13376 0.07455,0.13312c0.08941,-0.00064 0.0853,0.0391 0.07889,0.09487c-0.02035,0.17746 -0.02607,0.18163 -0.22089,0.13942c-0.02607,-0.00566 -0.05099,-0.02158 -0.08518,0.00951c0.08015,0.0297 0.06609,0.11945 0.1292,0.16261c0.14967,0.10225 0.16705,0.15332 0.08404,0.29039c-0.05911,0.09744 0.01098,0.18473 0.01063,0.27671c-0.00023,0.04402 0.1691,0.114 -0.02252,0.13611c-0.02939,0.00342 -0.01829,0.06186 0.00766,0.08921c0.03007,0.03173 0.06311,0.06175 0.09833,0.08846c0.02733,0.02073 0.05397,0.04455 0.02893,0.07361c-0.05843,0.06784 -0.03579,0.15342 -0.06048,0.22479c-0.0598,0.00961 -0.02058,-0.13237 -0.10645,-0.05876c-0.06506,0.05577 -0.05717,0.26923 0.01727,0.32148c0.06483,0.04551 0.04025,0.09017 0.01372,0.11624c-0.06746,0.06635 -0.03933,0.13248 -0.00309,0.18718c0.04928,0.07425 0.04779,0.11528 -0.04928,0.13419c-0.06163,0.01197 -0.08621,0.04926 -0.06883,0.10267c0.02046,0.06293 -0.01418,0.11111 -0.02756,0.16688c-0.01498,0.06218 -0.11011,0.15887 0.01029,0.20118c0.10771,0.03782 0.2026,0.10609 0.33009,0.10865c0.08003,0.0016 0.1802,0.01357 0.23187,0.09808c-0.31705,-0.00791 -0.62999,-0.03932 -0.93344,-0.13024z" id="XMLID_123_ 1" fill="#dedede"/><path d="M239.32331,184.44712c-0.05168,-0.08451 -0.15195,-0.09647 -0.23187,-0.09808c-0.12737,-0.00246 -0.22238,-0.07083 -0.33009,-0.10865c-0.12051,-0.04231 -0.02527,-0.139 -0.01029,-0.20118c0.01338,-0.05577 0.04802,-0.10395 0.02756,-0.16688c-0.01738,-0.05342 0.00709,-0.0907 0.06883,-0.10267c0.09718,-0.01891 0.09856,-0.05994 0.04928,-0.13419c-0.03624,-0.0546 -0.06437,-0.12073 0.00309,-0.18718c0.02653,-0.02607 0.05111,-0.07073 -0.01372,-0.11624c-0.07432,-0.05225 -0.08232,-0.26571 -0.01727,-0.32148c0.08586,-0.07361 0.04676,0.06827 0.10645,0.05876c0.0247,-0.07126 0.00206,-0.15694 0.06048,-0.22479c0.02504,-0.02906 -0.0016,-0.05288 -0.02893,-0.07361c-0.03522,-0.02671 -0.06826,-0.05663 -0.09833,-0.08846c-0.02595,-0.02735 -0.03704,-0.08579 -0.00766,-0.08921c0.19174,-0.02211 0.02241,-0.0921 0.02252,-0.13611c0.00034,-0.09199 -0.06974,-0.17928 -0.01063,-0.27671c0.08312,-0.13707 0.06574,-0.18814 -0.08404,-0.29039c-0.06311,-0.04316 -0.04905,-0.13291 -0.1292,-0.16261c0.03419,-0.03109 0.05911,-0.01517 0.08518,-0.00951c0.19472,0.0422 0.20054,0.03814 0.22089,-0.13942c0.0064,-0.05577 0.01052,-0.09551 -0.07889,-0.09487c-0.08621,0.00064 -0.11228,-0.05513 -0.07455,-0.13312c0.05454,-0.11261 0.15035,-0.16144 0.27784,-0.13088c0.0582,0.01399 0.11697,0.04071 0.15916,-0.02126c0.02355,-0.03462 0.09124,-0.04509 0.07535,-0.09733c-0.01532,-0.05043 -0.07569,-0.04883 -0.11822,-0.06987c-0.14086,-0.06966 -0.2999,-0.05363 -0.44454,-0.09861c-0.02058,-0.04263 -0.04231,-0.12116 0.01669,-0.11037c0.15012,0.02724 0.30699,-0.0469 0.44957,0.03344c0.00458,0.02329 -0.00652,0.06678 0.02675,0.06122c0.0407,-0.00684 0.00423,-0.03953 0.00091,-0.06111c0.01829,-0.03419 0.03659,-0.06827 0.05488,-0.10246c0.01829,0 0.03659,0 0.05488,-0.00011c0.16464,-0.03376 0.32929,0.00951 0.49393,0.00011c0.00286,0.064 -0.03018,0.0907 -0.09844,0.09348c-0.13594,0.00566 -0.25806,0.05727 -0.38257,0.1155c0.13286,0.02863 0.25417,0.11539 0.39995,0.04701c0.03659,-0.01709 0.07375,-0.03451 0.11262,-0.0454c0.02858,-0.00801 0.05637,0.00631 0.0646,0.03387c0.00869,0.02885 -0.01864,0.03323 -0.04116,0.03761c-0.13286,-0.02254 -0.1595,0.10011 -0.19997,0.16026c-0.06083,0.09028 0.03304,0.2265 -0.05877,0.32736c0.05762,0.0359 0.08678,0.09306 0.12508,0.1437c0.03704,0.04893 0.02881,0.089 0.01509,0.14893c-0.0255,0.11164 -0.0646,0.22083 -0.02275,0.35214c0.02801,0.08793 0.07672,0.20791 0.02538,0.31229c-0.04448,0.09028 0.04848,0.13099 0.07466,0.19199c0.02824,0.06613 0.05019,0.0999 -0.0279,0.14231c-0.07466,0.0406 -0.08998,0.08269 0.00206,0.13772c0.1316,0.07874 0.10485,0.22639 0.13114,0.34499c0.01566,0.07083 0.07386,0.16079 -0.01418,0.23259c0.07135,0.05075 0.02332,0.1671 0.12954,0.20086c0.08072,0.02564 0.08438,0.06432 0.00458,0.09797c-0.07226,0.03045 -0.06986,0.07714 -0.04894,0.13697c0.04105,0.11774 0.1196,0.2265 0.0877,0.36218c-0.01349,0.05748 0.03979,0.06293 0.08964,0.06774c0.07924,0.00759 0.16464,-0.02821 0.23759,0.02714c-0.09856,0.02949 -0.19894,0.04893 -0.30299,0.04883c-0.2496,-0.00032 -0.49908,0.00032 -0.74867,-0.00054c-0.04436,0 -0.09216,0.01154 -0.12931,-0.02361z" id="XMLID_122_ 1" fill="#e6e6e6"/><path d="M240.69568,184.41817c-0.00514,-0.02158 -0.01338,-0.04103 -0.0399,-0.04616c-0.10873,-0.02094 -0.06551,-0.0671 -0.02115,-0.11261c0.04516,-0.04648 0.13331,-0.06239 0.11491,-0.15705c-0.00229,-0.01164 0.09181,-0.07126 0.14475,-0.00256c0.07089,0.09188 0.16544,0.12479 0.2855,0.10705c0.08552,-0.01261 0.08781,0.06368 0.11811,0.10887c-0.20054,0.03408 -0.40143,0.06827 -0.60221,0.10246z" id="XMLID_121_ 1" fill="#d5d5d5"/><path d="M237.48295,183.13642c0.0702,0.05449 0.05168,0.13013 0.05728,0.20118c0.01692,0.21603 0.0311,0.43537 0.20009,0.60556c0.08472,0.08537 0.19837,0.14445 0.2656,0.2469c-0.16121,-0.04167 -0.30196,-0.12351 -0.42727,-0.22041c-0.11845,-0.09167 -0.07077,-0.23942 -0.08724,-0.36101c-0.02115,-0.15524 -0.00732,-0.31464 -0.00846,-0.47223z" id="XMLID_120_ 1" fill="#cecece"/><path d="M239.89944,180.75348c-0.16464,0.00929 -0.32929,-0.03387 -0.49393,-0.00011c0.01017,-0.07682 -0.02516,-0.10011 -0.10805,-0.10513c-0.19906,-0.01218 -0.38371,-0.09156 -0.58128,-0.12105c-0.12726,-0.01902 -0.22513,-0.10556 -0.31842,-0.20225c-0.14086,-0.14573 -0.34267,-0.21881 -0.53898,-0.2874c-0.06746,-0.02351 -0.13423,-0.05438 -0.20935,-0.05353c-0.03807,-0.0499 -0.12303,-0.05577 -0.13766,-0.12767c0.15756,0.00929 0.27829,0.12885 0.43916,0.12789c0.10439,0.02468 0.17848,0.12714 0.30208,0.10235l-0.00012,0.00021c0.00823,0.01453 0.01246,0.03654 0.02516,0.04231c0.18511,0.08462 0.3868,0.14381 0.50822,0.31945c0.02675,0.03868 0.08038,0.05128 0.1348,0.04926c0.04025,-0.0016 0.08507,-0.00235 0.12085,0.01186c0.19735,0.07863 0.40726,0.08087 0.61478,0.08793c0.23073,0.00791 0.46192,0.00181 0.69276,0.00181c-0.01772,0.07158 -0.13217,0.05107 -0.14841,0.12789c-0.00903,0.00011 -0.01818,0.00021 -0.02721,0.00043c-0.05088,-0.03462 -0.10301,-0.02169 -0.15138,0.00181c-0.03968,0.01923 -0.07672,0.03953 -0.12303,0.02393z" id="XMLID_119_ 1" fill="#e1e1e1"/><path d="M239.10264,179.77548c-0.07203,0.00716 -0.13,-0.03077 -0.19128,-0.05513c-0.04848,-0.01934 -0.10896,-0.03857 -0.10245,-0.10267c0.00583,-0.05758 0.06048,-0.09776 0.10953,-0.09904c0.1826,-0.00491 0.33146,-0.12597 0.51451,-0.12212c0.01658,0.04594 -0.01155,0.14317 0.09284,0.09562c0.04836,-0.02201 0.11148,-0.05737 0.12691,-0.1219c0.08152,-0.00684 0.16236,-0.03248 0.24525,-0.00951c0.00972,0.03697 0.01944,0.07393 0.02916,0.1109c-0.05294,0.06015 -0.12931,0.11314 -0.15355,0.18205c-0.03922,0.11143 0.12748,0.07917 0.15515,0.15438c-0.22067,0.04391 -0.44019,0.0188 -0.65972,-0.00866c-0.01372,-0.09487 -0.1013,-0.0718 -0.15973,-0.07693c-0.04619,-0.00416 -0.00972,0.03355 -0.00663,0.05299zM239.55495,179.60389c-0.02835,0.00289 -0.05214,0.01271 -0.05397,0.04295c-0.00137,0.02201 0.01944,0.02586 0.03659,0.02671c0.02241,0.00118 0.04539,-0.00235 0.05179,-0.02756c0.0064,-0.02553 -0.00926,-0.0375 -0.03442,-0.04209z" id="XMLID_116_ 1" fill="#7f7f7f"/><path d="M239.92849,179.80806c-0.02767,-0.07521 -0.19437,-0.04295 -0.15515,-0.15438c0.02424,-0.06902 0.10061,-0.1219 0.15355,-0.18205c0.05923,0 0.18683,0.0828 0.11136,-0.08034c0.00012,-0.0094 0.00012,-0.01891 0.00023,-0.02831c0.03636,-0.01101 0.07215,-0.00641 0.10771,0.00331c0.01589,0.02618 0.03361,0.03205 0.05431,0.00427c0.12211,-0.00256 0.24251,0.00631 0.35753,0.04893c-0.02618,0.06443 -0.04654,0.12992 -0.15058,0.08942c-0.04196,-0.01635 -0.09078,0.02511 -0.17093,-0.01261c0.0654,0.08504 0.10816,0.13889 -0.00423,0.16838c-0.09238,0.02425 -0.01624,0.09316 -0.0311,0.1391c-0.09021,0.03301 -0.18191,-0.00481 -0.27269,0.00427z" id="XMLID_115_ 1" fill="#787878"/><path d="M238.253,180.0867c-0.1236,0.02479 -0.19769,-0.07778 -0.30208,-0.10235c0.05316,-0.05972 0.10942,-0.11293 0.01418,-0.18975c-0.04699,-0.03782 -0.05351,-0.09295 0.04402,-0.09327c0.08758,-0.00032 0.20443,0.05214 0.21964,-0.09797c0.00217,-0.0219 0.03853,-0.02575 0.05511,-0.00588c0.09787,0.11731 0.25028,0.09445 0.37937,0.13024c0.08735,0.02425 0.18214,0.03483 0.2377,0.11218c0.03956,0.05502 0.09559,0.03761 0.14795,0.04167c-0.00857,0.01421 -0.01875,0.04135 -0.02561,0.0406c-0.13949,-0.0141 -0.28721,-0.01357 -0.40567,-0.08953c-0.04733,-0.03034 -0.07695,-0.05908 -0.1244,-0.02286c-0.07569,0.0578 -0.16202,0.05748 -0.24582,0.03761c-0.06574,-0.0156 -0.09216,0.00801 -0.11525,0.0562c-0.0279,0.05801 0.0032,0.075 0.05808,0.0844c0.05774,0.00993 0.06323,0.05385 0.06277,0.09872z" id="XMLID_114_ 1" fill="#ededed"/><path d="M240.86992,179.67131c0.08541,-0.15182 -0.0638,-0.17009 -0.14715,-0.22586c0.12382,-0.05566 0.22982,0.02297 0.27818,0.08996c0.055,0.07596 -0.03785,0.12874 -0.13103,0.1359z" id="XMLID_113_ 1" fill="#e7e7e7"/><path d="M239.65259,179.37013c-0.01543,0.06464 -0.07855,0.0999 -0.12691,0.1219c-0.10439,0.04754 -0.07626,-0.04979 -0.09284,-0.09562c0.06974,-0.03398 0.14406,-0.03547 0.21976,-0.02628z" id="XMLID_112_ 1" fill="#878787"/><path d="M240.03836,179.39129c0.07535,0.16314 -0.05225,0.08023 -0.11136,0.08034c-0.00972,-0.03697 -0.01944,-0.07404 -0.02916,-0.1109c0.02813,-0.01442 0.05671,-0.01282 0.08552,-0.00246c0.00743,0.0265 0.02756,0.03504 0.055,0.03301z" id="XMLID_111_ 1" fill="#878787"/><path d="M239.10264,179.77548c-0.00309,-0.01944 -0.03945,-0.05716 0.0064,-0.05299c0.05843,0.00524 0.14601,-0.01795 0.15973,0.07693c-0.05774,0.00598 -0.11365,0.00107 -0.16613,-0.02393z" id="XMLID_110_ 1" fill="#878787"/><path d="M239.21343,179.9071c-0.04836,0.03547 -0.0893,0.04359 -0.10976,-0.02553c0.03807,0.00278 0.08038,-0.00993 0.10976,0.02553z" id="XMLID_109_ 1" fill="#ededed"/><path d="M238.51507,179.57056c-0.00114,0.02446 -0.01132,0.03868 -0.03087,0.0422c-0.02184,0.00385 -0.03453,-0.00908 -0.03339,-0.02863c0.00114,-0.01913 0.01578,-0.03141 0.03613,-0.02959c0.01075,0.00086 0.02046,0.01133 0.02813,0.01603z" id="XMLID_108_ 1" fill="#ededed"/><path d="M240.66732,179.44706c-0.03464,0.03515 -0.04665,0.01239 -0.05534,-0.01891c0.02321,-0.00609 0.04265,-0.00214 0.05534,0.01891z" id="XMLID_107_ 1" fill="#787878"/><path d="M240.2006,179.37056c-0.0207,0.02778 -0.03842,0.0219 -0.05431,-0.00427c0.01921,-0.01068 0.03739,-0.01026 0.05431,0.00427z" id="XMLID_106_ 1" fill="#7f7f7f"/><path d="M240.03836,179.39129c-0.02744,0.00203 -0.04745,-0.00641 -0.055,-0.03312c0.01841,0.0016 0.03682,0.0031 0.05511,0.0047c0,0.00951 -0.00012,0.01891 -0.00012,0.02842z" id="XMLID_105_ 1" fill="#7f7f7f"/><path d="M239.89944,180.75348c0.04631,0.0156 0.08324,-0.0047 0.12303,-0.02393c0.04848,-0.0234 0.1005,-0.03643 0.15138,-0.00181c-0.03682,0.07863 -0.13926,0.06143 -0.19368,0.1155c-0.01715,0.01699 -0.05522,0.02318 -0.03739,0.05523c0.01818,0.03269 0.04413,0.01143 0.0678,0.00043c0.03613,-0.01667 0.04619,0.00459 0.05271,0.03291c0.01795,0.07735 0.03716,0.15438 0.0558,0.23152c-0.03545,-0.06453 -0.15287,-0.03686 -0.16464,-0.12789c0.02252,-0.00438 0.04985,-0.00876 0.04116,-0.03761c-0.00823,-0.02746 -0.03613,-0.04188 -0.0646,-0.03387c-0.03887,0.01101 -0.07615,0.02831 -0.11262,0.0454c-0.14566,0.06838 -0.26709,-0.01838 -0.39995,-0.04701c0.12451,-0.05823 0.24662,-0.10983 0.38257,-0.1155c0.06826,-0.00267 0.1013,-0.02938 0.09844,-0.09338z" id="XMLID_104_ 1" fill="#ededed"/><path d="M240.17362,181.24078c0.10839,-0.01047 0.18545,-0.00491 0.14246,0.13644c-0.02401,0.07895 0.02996,0.17233 0.08792,0.21731c0.13206,0.10246 0.11342,0.23462 0.12657,0.36411c-0.09216,-0.03088 -0.02996,-0.15694 -0.12943,-0.18323c0.03179,-0.15588 -0.13412,-0.22703 -0.17585,-0.35385c-0.01978,-0.05994 -0.05385,-0.11528 -0.05168,-0.18077z" id="XMLID_103_ 1" fill="#ededed"/><path d="M240.1192,181.16353c0.05351,0.00395 0.05522,0.03985 0.05443,0.07725c-0.05362,-0.00385 -0.05511,-0.03996 -0.05443,-0.07725z" id="XMLID_102_ 1" fill="#ededed"/><path d="M240.20118,180.72741c0.01612,-0.07682 0.13069,-0.0563 0.14841,-0.12789c-0.23073,0 -0.46203,0.00609 -0.69276,-0.00181c-0.20752,-0.00705 -0.41744,-0.00929 -0.61478,-0.08793c-0.03579,-0.01421 -0.08061,-0.01336 -0.12085,-0.01186c-0.05443,0.00214 -0.10816,-0.01058 -0.1348,-0.04926c-0.12154,-0.17564 -0.32323,-0.23473 -0.50822,-0.31945c-0.01269,-0.00588 -0.01704,-0.02788 -0.02516,-0.04231c0.18008,-0.01859 0.34953,0.04701 0.5264,0.05833c0.40567,0.02618 0.80995,0.07105 1.21791,0.02329c0.13034,-0.01528 0.26423,-0.00427 0.39652,-0.00438c0.03762,0 0.07649,0.00289 0.07706,0.05118c0.00057,0.03953 -0.02961,0.0468 -0.06414,0.05032c-0.20512,0.02126 -0.41115,0.03718 -0.6149,0.06678c-0.16807,0.02436 -0.33581,0.02051 -0.50399,0.0219c-0.05316,0.00043 -0.05008,0.03013 -0.03075,0.05865c0.02298,0.03398 0.06311,0.05353 0.10439,0.05278c0.31019,-0.00545 0.61799,0.01539 0.92669,0.04573c0.12337,0.01218 0.2536,-0.02008 0.38005,0.01111c-0.13903,0.10171 -0.29762,0.16421 -0.46706,0.20481z" id="XMLID_101_ 1" fill="#e7e7e7"/><path d="M241.38124,180.18927c-0.06814,-0.06977 -0.05328,-0.11902 0.04276,-0.14605c0.06917,-0.01944 0.13834,-0.03964 0.20878,-0.05417c0.04379,-0.00908 0.09387,-0.0156 0.10519,0.04648c-0.10793,0.0735 -0.22261,0.13323 -0.35673,0.15374z" id="XMLID_100_ 1" fill="#ededed"/><path d="M239.26819,180.85584c-0.14246,-0.08023 -0.29945,-0.00609 -0.44957,-0.03344c-0.05911,-0.01068 -0.03739,0.06774 -0.01669,0.11037c-0.13594,0.02821 -0.25097,-0.06261 -0.38417,-0.05887c-0.0391,0.00107 -0.07455,-0.03611 -0.07626,-0.07906c-0.00206,-0.04904 0.04002,-0.0546 0.08118,-0.06827c0.15904,-0.05267 0.31602,-0.00086 0.47221,0.00833c0.07866,0.00459 0.15127,0.01282 0.22444,-0.01571c0.08484,-0.03301 0.15824,-0.00054 0.23141,0.03419c-0.01829,0.03419 -0.03659,0.06827 -0.05488,0.10246c-0.00926,0 -0.01852,0 -0.02767,0z" id="XMLID_99_ 1" fill="#e1e1e1"/><path d="M239.26819,180.85584c0.00915,0 0.01841,0 0.02756,0.00011c0.00331,0.02158 0.03979,0.05427 -0.00091,0.06111c-0.03316,0.00556 -0.02207,-0.03793 -0.02664,-0.06122z" id="XMLID_98_ 1" fill="#ededed"/><path d="M239.55507,179.604c0.02504,0.00449 0.0407,0.01635 0.03419,0.04199c-0.0064,0.02521 -0.02939,0.02885 -0.05179,0.02756c-0.01715,-0.00096 -0.03796,-0.0047 -0.03659,-0.02671c0.00194,-0.03023 0.02572,-0.03996 0.0542,-0.04284z" id="XMLID_96_ 1" fill="#878787"/></g></g><path d="M241.335,177.15183c-0.891,-0.004 -1.781,-0.008 -2.672,-0.011c-0.156,0 -0.311,0.007 -0.467,0.011c-0.022,0.003 -0.044,0.006 -0.066,0.009c-0.156,-0.016 -0.312,-0.023 -0.468,0.003c-0.262,-0.007 -0.524,-0.014 -0.786,-0.022c-0.148,-0.077 -0.304,-0.135 -0.436,-0.244c-0.308,-0.254 -0.378,-0.598 -0.395,-0.967c0.009,-0.013 0.017,-0.025 0.026,-0.038c0.185,-0.204 0.424,-0.207 0.677,-0.207c2.062,0.005 4.124,0.006 6.186,-0.001c0.214,-0.001 0.381,0.051 0.499,0.232c0.009,0.004 0.019,0.007 0.029,0.01c-0.003,0.274 -0.047,0.538 -0.183,0.781c-0.064,0.066 -0.127,0.131 -0.191,0.197c-0.22,0.163 -0.468,0.245 -0.74,0.258c-0.274,-0.03 -0.547,-0.023 -0.821,-0.004c-0.064,-0.001 -0.128,-0.004 -0.192,-0.007z" data-paper-data="{&quot;origPos&quot;:null}" id="XMLID_2288_ 1" fill="#d6c88c"/><path d="M242.366,173.44083c0.021,0.009 0.042,0.017 0.064,0.026c-0.027,0.006 -0.048,-0.003 -0.064,-0.026z" data-paper-data="{&quot;origPos&quot;:null}" id="XMLID_2284_ 1" fill="#d6c88c"/><path d="M240.887,178.26483c-0.024,0.011 -0.048,0.022 -0.072,0.033c-0.016,0.01 -0.031,0.019 -0.047,0.029h-0.012c-0.171,0.028 -0.342,0.064 -0.517,0.049c-0.101,-0.009 -0.139,0.036 -0.135,0.135c0.008,0.18 0.008,0.361 0.012,0.541c-0.016,0.149 -0.004,0.306 -0.117,0.428c-0.308,0.187 -0.569,0.046 -0.584,-0.313c-0.002,-0.039 -0.008,-0.077 -0.012,-0.116c0.023,-0.208 0.014,-0.417 0,-0.625c0.01,-0.025 -0.001,-0.034 -0.025,-0.032c-0.051,-0.027 -0.104,-0.021 -0.157,-0.007c-0.359,-0.004 -0.669,-0.107 -0.88,-0.423c-0.096,-0.145 -0.129,-0.306 -0.145,-0.474c-0.009,-0.063 -0.017,-0.126 -0.026,-0.19c0.054,-0.041 0.025,-0.097 0.027,-0.147c0.156,-0.004 0.311,-0.011 0.467,-0.011c0.891,0.002 1.781,0.007 2.672,0.01c-0.002,0.113 -0.003,0.226 -0.005,0.338c-0.025,0.329 -0.185,0.58 -0.444,0.775z" data-paper-data="{&quot;origPos&quot;:null}" id="XMLID_2295_ 1" fill="#595e62"/><path d="M240.768,178.32583c0.016,-0.01 0.031,-0.019 0.047,-0.029c-0.005,0.027 -0.019,0.04 -0.047,0.029z" data-paper-data="{&quot;origPos&quot;:null}" id="XMLID_2270_ 1" fill="#ececec"/><path d="M238.169,177.29983c-0.005,-0.049 -0.003,-0.099 -0.039,-0.139c0.022,-0.003 0.044,-0.006 0.066,-0.008c-0.002,0.05 0.027,0.106 -0.027,0.147z" data-paper-data="{&quot;origPos&quot;:null}" id="XMLID_2264_ 1" fill="#ececec"/><path d="M239.402,178.42583c-0.008,-0.011 -0.017,-0.022 -0.025,-0.032c0.024,-0.002 0.035,0.007 0.025,0.032z" data-paper-data="{&quot;origPos&quot;:null}" id="XMLID_2263_ 1" fill="#ececec"/></g></g></g></svg>