<svg version="1.1" xmlns="http://www.w3.org/2000/svg" xmlns:xlink="http://www.w3.org/1999/xlink" width="23.15721" height="26.9287" viewBox="0,0,23.15721,26.9287"><g transform="translate(-219.7176,-161.3069)"><g data-paper-data="{&quot;isPaintingLayer&quot;:true}" fill-rule="nonzero" stroke="none" stroke-width="1" stroke-linecap="butt" stroke-linejoin="miter" stroke-miterlimit="10" stroke-dasharray="" stroke-dashoffset="0" style="mix-blend-mode: normal"><path d="M238.51274,178.33208c0.23902,0.03227 0.47807,0.06499 0.71616,0.09717c0.24554,0.14875 0.4915,0.29705 0.73703,0.44579c0.08506,0.25515 0.29623,0.44787 0.41056,0.68837c0.08994,0.29514 0.14558,0.59144 0.16226,0.88896c-0.04635,0.35805 -0.1752,0.67579 -0.34575,0.97354c-0.20419,0.25848 -0.44425,0.47888 -0.71018,0.6728c-0.16105,0.09007 -0.32259,0.17961 -0.48411,0.26963c-0.24839,0.09027 -0.49633,0.18011 -0.74472,0.27038c-0.2008,0.04979 -0.4364,0.02016 -0.58925,0.1803c-0.30395,-0.06684 -0.55901,0.05729 -0.83579,0.09571c-0.2471,0.01591 -0.49376,0.03138 -0.72242,0.11036c-0.6264,-0.02315 -0.6264,-0.02315 -0.58995,0.46743c-0.01178,0.36109 -0.37731,0.55229 -0.32966,0.94191c-0.21473,0.28967 -0.47992,0.52414 -0.78907,0.71053c-0.35645,0.03511 -0.51031,0.24498 -0.50463,0.60297c0.00146,0.09556 -0.03039,0.18631 -0.04675,0.27936c-0.09074,0.33971 -0.24498,0.64543 -0.39005,0.9566c-0.18862,0.2985 -0.44143,0.53779 -0.69674,0.77408c-0.10271,0.05051 -0.20592,0.10052 -0.30863,0.15104c-0.04372,-0.02247 -0.07803,-0.02132 -0.09264,0.02627c-0.0242,0.02859 -0.04885,0.05715 -0.07351,0.08569c-0.25982,0.06413 -0.52012,0.12774 -0.77994,0.19187c-0.20628,0.00741 -0.41206,0.01532 -0.61789,0.02276c-0.40059,-0.06654 -0.80113,-0.13259 -1.20171,-0.19912c-0.27123,-0.07093 -0.53469,-0.2166 -0.81467,-0.20639c-0.08436,-0.12056 -0.20167,-0.10949 -0.31312,-0.12305c-0.35617,-0.20039 -0.7448,-0.25469 -1.1126,-0.40444c-0.36035,-0.15701 -0.72114,-0.31359 -1.08151,-0.4706c-0.34022,-0.18363 -0.68093,-0.36775 -1.02163,-0.55142c-0.33551,-0.18275 -0.59826,-0.49918 -0.96421,-0.62735c-0.30122,-0.03869 -0.5077,0.17677 -0.79092,0.18716c-0.19529,-0.03864 -0.39054,-0.07682 -0.58581,-0.11499c-0.36849,-0.18239 -0.65745,-0.45831 -0.89369,-0.79615c-0.24276,-0.49808 -0.38381,-1.01882 -0.54826,-1.53466c-0.06274,-0.44402 -0.12596,-0.88808 -0.1887,-1.3321c-0.01298,-0.2176 0.01085,-0.4338 -0.07014,-0.65414c0.03682,-0.18016 0.0225,-0.36808 0.00066,-0.55713c0.00536,-0.39612 0.01116,-0.79266 0.01649,-1.18925c0.07378,-0.35796 0.08574,-0.73814 0.22271,-1.07424c0.13493,-0.28787 0.34808,-0.50785 0.57792,-0.7138c0.29267,-0.10265 0.60002,-0.15001 0.92909,-0.11912c0.37552,0.08154 0.68836,0.33117 1.02659,0.51276c0.34539,0.29347 0.34539,0.29347 0.70592,-0.15045c0.26084,-0.2372 0.52214,-0.47435 0.78298,-0.71154c0.5162,-0.52376 1.16197,-0.89549 1.70731,-1.38501c0.64883,-0.40406 1.29719,-0.80815 1.94602,-1.2122c0.6471,-0.28551 1.30197,-0.55124 2.07891,-0.48456c0.3695,0.0745 0.69632,0.26671 1.0122,0.49101c0.34023,0.37307 0.55079,0.79615 0.55044,1.26347c-0.0003,0.28625 -0.07236,0.56198 -0.11206,0.84242c-0.12946,0.3228 -0.25844,0.64563 -0.3879,0.96843c-0.28084,0.21494 -0.32187,0.59115 -0.55747,0.88876c0.41592,0.08138 0.77612,0.17739 1.1376,0.15575c0.36058,0.06579 0.71762,0.09823 1.06367,0.03845c0.05506,0.00345 0.11054,0.00648 0.16602,0.00952c0.67445,0.06275 1.30241,-0.08619 1.94271,-0.16562c0.81915,-0.10182 1.5745,-0.40198 2.40281,-0.48391zM224.655,179.18048c-0.00698,0.02172 -0.00781,0.04492 -0.00208,0.06917c0.08773,0.43505 0.17542,0.86964 0.26315,1.3047c-0.26422,0.08235 -0.16752,-0.15675 -0.19833,-0.23907c-0.21118,-0.5637 -0.35117,-1.15512 -0.86746,-1.58562c-0.71225,-0.78527 -1.61354,-0.71117 -1.92063,0.16943c-0.07934,0.22714 -0.12323,0.47835 -0.13702,0.72803c-0.04502,0.82272 -0.03464,1.64708 0.06609,2.49663c0.09946,0.83686 0.19733,1.64892 0.56684,2.45841c0.19066,0.41714 0.46489,0.69502 0.89868,0.77239c0.44833,0.07958 0.80893,-0.13067 0.9748,-0.53077c0.05261,-0.10009 0.10279,-0.2018 0.15833,-0.29977c0.02549,-0.04476 0.03802,-0.11767 0.12059,-0.08338c0.08543,0.03546 0.05553,0.09845 0.04934,0.15423c-0.00648,0.05854 -0.01389,0.11701 -0.02084,0.17551c-0.11519,0.19698 -0.13433,0.36286 0.12039,0.56082c0.71673,0.55711 1.47442,1.02101 2.3072,1.3072c0.45557,0.15657 0.87117,0.48741 1.35836,0.49875c0.95824,0.38104 1.91851,0.70642 2.90938,0.63092c0.4337,-0.03342 0.86468,-0.13086 1.16635,-0.37609c0.53091,-0.43168 0.86782,-1.03455 0.98324,-1.75889c0.01294,-0.08125 0.10424,-0.20819 -0.07721,-0.27773c-0.12884,-0.11843 -0.30214,-0.184 -0.39344,-0.34752c0.20462,-0.03362 0.40797,-0.07246 0.61431,-0.10081c0.89814,-0.12325 1.55892,-0.97312 1.43645,-1.85018c-0.1067,-0.02663 -0.2178,-0.00571 -0.31268,-0.02898c-0.28036,-0.06849 -0.60878,-0.00902 -0.81333,-0.34546c1.47626,-0.04152 2.93108,-0.16407 4.31332,-0.54997c0.56698,-0.15805 1.07444,-0.41119 1.46136,-0.84207c0.57213,-0.63751 0.52626,-1.47942 -0.11303,-2.12606c-0.47562,-0.45578 -0.99583,-0.44581 -1.48691,-0.30713c-0.92555,0.2614 -1.88596,0.40662 -2.85578,0.52075c-1.11556,0.13107 -2.25474,0.08876 -3.41152,-0.1562c-0.21291,-0.04531 -0.44946,-0.06805 -0.57409,-0.32435c-0.02174,-0.12946 0.01462,-0.23657 0.08936,-0.32494c0.43678,-0.51585 0.75363,-1.11258 0.9505,-1.77668c0.1224,-0.41139 0.23913,-0.84609 -0.02896,-1.31894c-0.053,-0.23322 -0.23377,-0.36462 -0.41943,-0.48526c-0.68014,-0.44263 -1.31554,-0.25012 -1.86028,-0.0133c-1.2839,0.55796 -2.40877,1.35802 -3.44655,2.26307c-0.45947,0.40074 -0.99405,0.7241 -1.34083,1.24511c-0.09074,0.0269 -0.20237,0.02496 -0.22482,0.14634c-0.01345,0.02209 -0.02692,0.04417 -0.04037,0.06626c-0.09971,0.15553 -0.4415,0.15841 -0.25849,0.49202z" data-paper-data="{&quot;origRot&quot;:0,&quot;index&quot;:null,&quot;origPos&quot;:null}" fill="#a8a8a8"/><path d="M224.98673,184.85233c-0.13145,-0.15216 -0.24419,-0.19331 -0.37972,-0.08191c0.00694,-0.05851 0.01436,-0.11696 0.02084,-0.17551c0.00623,-0.0553 0.03562,-0.1188 -0.04935,-0.15423c-0.08305,-0.03432 -0.09554,0.03906 -0.12059,0.08339c-0.0555,0.09844 -0.10572,0.19967 -0.15833,0.29976c-0.20969,-0.10415 -0.37763,0.10354 -0.60193,-0.02564c-0.29474,-0.16984 -0.46205,-0.4178 -0.58171,-0.71277c-0.2922,-0.71935 -0.47916,-1.44943 -0.56192,-2.1922c-0.10555,-0.9468 -0.18998,-1.89033 0.01137,-2.78957c0.11965,-0.53453 0.49807,-0.69106 1.01576,-0.42056c0.09035,0.04708 0.1783,0.12186 0.27058,0.04621c0.51629,0.4305 0.65625,1.02144 0.86746,1.58562c0.03082,0.08231 -0.06636,0.32138 0.19787,0.23902c0.21524,0.1037 0.15456,-0.06782 0.18604,-0.17164c0.09062,-0.29782 -0.05592,-0.67896 0.16505,-0.92199c1.45613,-1.60034 3.05801,-3.03562 4.99595,-4.06885c0.56883,-0.30358 1.19785,-0.52318 1.88521,0.0979c0.01678,0.01544 0.06646,-0.00718 0.10049,-0.01255c0.26806,0.47238 0.15136,0.90755 0.02896,1.31894c-0.19688,0.66364 -0.51372,1.26083 -0.9505,1.77668c-0.07474,0.08837 -0.11111,0.19548 -0.08937,0.32494c-0.26465,-0.04057 -0.32236,0.21966 -0.50178,0.30577c-0.12891,0.06217 -0.21361,0.18364 -0.16205,0.35064c0.05211,0.16845 0.1828,0.28705 0.34913,0.34501c0.26705,0.09292 0.53831,0.12802 0.80499,0.12781c0.77405,-0.00014 1.55264,0.01968 2.31785,-0.02453c0.95545,-0.05535 1.9024,-0.13473 2.80298,-0.40904c0.86319,-0.26318 1.65506,-0.81381 2.71714,-0.42918c0.63927,0.64664 0.68515,1.48855 0.11303,2.12606c-0.38692,0.43088 -0.89438,0.68402 -1.46135,0.84207c-1.38223,0.3859 -2.83705,0.50845 -4.31331,0.54997c-0.18963,-0.0954 -0.35163,0.01599 -0.53329,-0.00562c-0.08005,-0.00939 -0.17373,0.01539 -0.19364,0.11092c-0.01947,0.0951 0.05532,0.1678 0.12184,0.2272c0.45988,0.41296 1.32103,0.59785 1.73112,0.0424c0.12248,0.87707 -0.53879,1.72642 -1.43645,1.85018c-0.20589,0.02839 -0.40972,0.06672 -0.61431,0.10081c-0.18709,-0.00487 -0.44632,-0.0552 -0.33358,0.25498c0.07784,0.21493 0.58308,0.26137 0.72701,0.09252c0.18146,0.06955 0.09014,0.19648 0.07721,0.27773c-0.11542,0.72434 -0.45233,1.32722 -0.98323,1.7589c-0.30167,0.24522 -0.73263,0.34313 -1.16635,0.37608c-0.99087,0.0755 -1.95114,-0.24987 -2.90938,-0.63092c-0.11589,-0.1992 -0.31546,-0.25405 -0.49873,-0.33725c-1.06459,-0.48214 -2.10256,-1.01312 -2.90705,-1.94757zM231.19249,185.36535c0.25822,0.1289 0.4834,0.10455 0.59796,-0.16044c0.02506,-0.07321 0.09568,-0.13866 0.01682,-0.23126c-0.0743,-0.08662 -0.15788,-0.05675 -0.2376,-0.03911c-0.10265,0.02214 -0.20203,0.03757 -0.3184,0.01241c-0.10834,-0.02305 -0.28299,-0.16041 -0.31927,-0.01559c-0.04142,0.16625 0.09253,0.35029 0.2605,0.434zM230.43676,186.76495c-0.04162,0.14111 0.08599,0.24778 0.18331,0.34574c0.1839,0.0786 0.34087,0.0701 0.47055,-0.04553c0.07866,-0.07034 0.15551,-0.16223 0.07308,-0.27424c-0.12057,-0.16377 -0.235,-0.02771 -0.35202,-0.01197c-0.03317,0.00452 -0.07076,-0.00206 -0.10529,-0.01162c-0.09556,-0.02658 -0.22153,-0.16569 -0.26964,-0.00237zM224.86527,180.76211c-0.01943,-0.0059 -0.04039,-0.00683 -0.06098,-0.00911c0.00348,0.01101 0.00514,0.02979 0.00988,0.03113c0.01942,0.00589 0.03992,0.00677 0.05961,0.00944c-0.00256,-0.01093 -0.00425,-0.03016 -0.00852,-0.03147z" data-paper-data="{&quot;origRot&quot;:0,&quot;index&quot;:null,&quot;origPos&quot;:null}" fill="#fdfdfd"/><path d="M221.92967,178.89904c0.308,-0.88098 1.20928,-0.95508 1.92154,-0.16981c-0.09227,0.07565 -0.18022,0.00087 -0.27058,-0.04621c-0.51769,-0.27049 -0.89612,-0.11396 -1.01576,0.42056c-0.20135,0.89924 -0.11692,1.84278 -0.01137,2.78957c0.08276,0.74277 0.2697,1.47285 0.56191,2.1922c0.11966,0.29496 0.28697,0.54293 0.58171,0.71277c0.22429,0.12918 0.39224,-0.07851 0.60193,0.02564c-0.16586,0.40011 -0.52646,0.61036 -0.9748,0.53077c-0.43378,-0.07737 -0.70801,-0.35525 -0.89867,-0.77239c-0.36951,-0.80949 -0.46738,-1.62155 -0.56684,-2.45842c-0.10073,-0.84955 -0.1111,-1.6739 -0.06608,-2.49663c0.01379,-0.24968 0.05767,-0.50089 0.13702,-0.72803z" data-paper-data="{&quot;origRot&quot;:0,&quot;index&quot;:null,&quot;origPos&quot;:null}" fill="#cbcbcb"/><path d="M231.83033,174.99156c0.18566,0.12064 0.36643,0.25203 0.41943,0.48526c-0.03404,0.00538 -0.08371,0.028 -0.10049,0.01256c-0.68736,-0.62109 -1.31638,-0.40148 -1.88521,-0.0979c-1.93793,1.03323 -3.53982,2.4685 -4.99595,4.06884c-0.22097,0.24304 -0.07442,0.62417 -0.16505,0.92199c-0.03148,0.10382 0.0292,0.27534 -0.18604,0.17164c-0.08774,-0.43505 -0.17543,-0.86964 -0.26316,-1.3047c0.05303,-0.01347 0.0238,-0.04212 0.00209,-0.06917c0,0 0.00256,0.01094 0.00303,0.01098c0.01548,-0.20858 0.32289,-0.23313 0.25849,-0.49203c0.01345,-0.02209 0.02692,-0.04417 0.04037,-0.06626c0.16459,0.07457 0.1718,-0.06724 0.22482,-0.14634c0.34678,-0.521 0.88136,-0.84436 1.34083,-1.24511c1.03779,-0.90504 2.16264,-1.70512 3.44654,-2.26308c0.54474,-0.23681 1.18015,-0.42932 1.86029,0.01331z" data-paper-data="{&quot;origRot&quot;:0,&quot;index&quot;:null,&quot;origPos&quot;:null}" fill="#cbcbcb"/><path d="M238.08023,178.8572c0.49107,-0.13867 1.01129,-0.14864 1.48688,0.30667c-1.06208,-0.38463 -1.85395,0.166 -2.71714,0.42918c-0.90057,0.27431 -1.84752,0.35369 -2.80298,0.40904c-0.7652,0.04421 -1.54379,0.02439 -2.31785,0.02453c-0.26668,0.00021 -0.53794,-0.03489 -0.805,-0.12781c-0.16632,-0.05797 -0.29702,-0.17657 -0.34913,-0.34501c-0.05156,-0.167 0.03315,-0.28847 0.16206,-0.35064c0.17943,-0.08611 0.23715,-0.34634 0.50178,-0.30577c0.12463,0.2563 0.36118,0.27904 0.57409,0.32435c1.15678,0.24495 2.29595,0.28727 3.41152,0.1562c0.96981,-0.11413 1.93021,-0.25935 2.85578,-0.52076z" data-paper-data="{&quot;origRot&quot;:0,&quot;index&quot;:null,&quot;origPos&quot;:null}" fill="#cbcbcb"/><path d="M235.03155,183.05732c-0.41012,0.55498 -1.27078,0.37059 -1.73112,-0.04241c-0.06605,-0.05936 -0.14132,-0.1321 -0.12184,-0.2272c0.01946,-0.09557 0.11313,-0.12035 0.19364,-0.11092c0.18166,0.02161 0.3432,-0.08982 0.53329,0.00562c0.20454,0.33644 0.53296,0.27696 0.81332,0.34546c0.09487,0.02327 0.20598,0.00234 0.31271,0.02945zM233.80507,182.83367c0.00748,0.00811 0.015,0.01668 0.02249,0.02479c0.01066,-0.00046 0.02134,-0.00045 0.032,-0.0009c-0.00393,-0.01059 -0.00889,-0.03012 -0.01216,-0.0304c-0.01447,-0.00081 -0.0281,0.00404 -0.04234,0.00651z" data-paper-data="{&quot;origRot&quot;:0,&quot;index&quot;:null,&quot;origPos&quot;:null}" fill="#cbcbcb"/><path d="M232.98031,185.00778c0.0913,0.16353 0.26461,0.22909 0.39344,0.34752c-0.14393,0.16885 -0.64917,0.12241 -0.72701,-0.09253c-0.11274,-0.31018 0.14648,-0.25984 0.33357,-0.25497z" data-paper-data="{&quot;origRot&quot;:0,&quot;index&quot;:null,&quot;origPos&quot;:null}" fill="#cbcbcb"/><path d="M224.91745,178.69903c0.0644,0.2589 -0.243,0.28345 -0.25849,0.49202c-0.1835,-0.33412 0.15877,-0.3365 0.25849,-0.49202z" data-paper-data="{&quot;origRot&quot;:0,&quot;index&quot;:null,&quot;origPos&quot;:null}" fill="#fdfdfd"/><path d="M225.18263,178.48596c-0.05302,0.07911 -0.06023,0.22091 -0.22482,0.14634c0.02199,-0.12141 0.13411,-0.11897 0.22482,-0.14634z" data-paper-data="{&quot;origRot&quot;:0,&quot;index&quot;:null,&quot;origPos&quot;:null}" fill="#fdfdfd"/><path d="M232.45148,187.90858c-0.03103,0.0089 -0.06209,0.01733 -0.09265,0.02627c0.01463,-0.04758 0.04894,-0.04875 0.09265,-0.02627z" data-paper-data="{&quot;origRot&quot;:0,&quot;index&quot;:null,&quot;origPos&quot;:null}" fill="#cbcbcb"/><path d="M224.65594,179.18008c0.02171,0.02705 0.05094,0.0557 -0.00209,0.06917c-0.00573,-0.02424 -0.00489,-0.04744 0.00209,-0.06917z" data-paper-data="{&quot;origRot&quot;:0,&quot;index&quot;:null,&quot;origPos&quot;:null}" fill="#fdfdfd"/><path d="M231.80678,184.97363c0.08027,0.09272 0.00921,0.1586 -0.01632,0.23176c-0.11504,0.26449 -0.3402,0.28931 -0.59844,0.15993c-0.16797,-0.08371 -0.30192,-0.26775 -0.2605,-0.434c0.03629,-0.14482 0.21093,-0.00745 0.31927,0.0156c0.11637,0.02516 0.21574,0.00972 0.31841,-0.01241c0.07972,-0.01764 0.1633,-0.0475 0.2376,0.03911z" data-paper-data="{&quot;origRot&quot;:0,&quot;index&quot;:null,&quot;origPos&quot;:null}" fill="#cbcbcb"/><path d="M231.0906,187.06516c-0.13018,0.11512 -0.28668,0.12366 -0.47105,0.04502c-0.09683,-0.09745 -0.22442,-0.20367 -0.18281,-0.34523c0.04811,-0.16333 0.17409,-0.02421 0.26964,0.00238c0.03453,0.00956 0.07212,0.01613 0.10528,0.01161c0.117,-0.01575 0.23143,-0.15181 0.35202,0.01197c0.08243,0.11201 0.0056,0.20391 -0.07308,0.27424z" data-paper-data="{&quot;origRot&quot;:0,&quot;index&quot;:null,&quot;origPos&quot;:null}" fill="#cbcbcb"/><path d="M224.81416,180.78412c-0.00429,-0.00177 -0.00596,-0.02054 -0.00945,-0.03155c0.02015,0.00271 0.04065,0.00359 0.06054,0.00953c0.00427,0.0013 0.00596,0.02054 0.00852,0.03147c-0.01969,-0.00266 -0.04018,-0.00353 -0.05961,-0.00944z" data-paper-data="{&quot;origRot&quot;:0,&quot;index&quot;:null,&quot;origPos&quot;:null}" fill="#cbcbcb"/><path d="M233.85955,182.85756c-0.01066,0.00046 -0.02134,0.00045 -0.032,0.0009c-0.00748,-0.00811 -0.015,-0.01668 -0.02249,-0.02479c0.01425,-0.00247 0.02789,-0.00732 0.04234,-0.00651c0.00327,0.00029 0.00823,0.01981 0.01216,0.0304z" data-paper-data="{&quot;origRot&quot;:0,&quot;index&quot;:null,&quot;origPos&quot;:null}" fill="#fdfdfd"/><text transform="translate(220.00001,169.66667) scale(0.18827,0.16554)" font-size="40" xml:space="preserve" data-paper-data="{&quot;origPos&quot;:null}" fill="#ffffff" fill-rule="nonzero" stroke="none" stroke-width="1" stroke-linecap="butt" stroke-linejoin="miter" stroke-miterlimit="10" stroke-dasharray="" stroke-dashoffset="0" font-family="Pixel" font-weight="normal" text-anchor="start" style="mix-blend-mode: normal"><tspan x="0" dy="0">SHOP</tspan></text></g></g></svg>