<svg version="1.1" xmlns="http://www.w3.org/2000/svg" xmlns:xlink="http://www.w3.org/1999/xlink" width="45.37376" height="56"><g transform="translate(-218.771,-153)"><g data-paper-data="{&quot;isPaintingLayer&quot;:true}" fill="none" fill-rule="nonzero" stroke="none" stroke-width="1" stroke-linecap="butt" stroke-linejoin="miter" stroke-miterlimit="10" stroke-dasharray="" stroke-dashoffset="0" font-family="none" font-weight="none" font-size="none" text-anchor="none" style="mix-blend-mode: normal"><path d="M264.078,208.269c0.01,0.418 -0.009,0.595 -0.428,0.577c-0.958,-0.042 -1.919,0.154 -2.879,0.154c-0.4,0 -0.8,0 -1.2,0c-1.05,-3 -2.067,-4.889 -3.362,-7.124c-0.962,0.233 -1.923,0.298 -2.885,0.531c-1.757,0.32 -3.513,0.64 -5.269,0.96c-0.559,0.014 -1.118,0.027 -1.677,0.041c-0.862,0.275 -1.739,0.458 -2.65,0.457c-2.183,-0.003 -4.365,0.004 -6.548,-0.005c-0.386,-0.002 -0.803,0.106 -1.128,-0.223c-2.77,-0.072 -5.507,-0.366 -8.161,-1.217c-1.141,-0.336 -2.304,-0.606 -3.358,-1.188c-1.41,-0.39 -2.638,-1.155 -3.734,-2.063c-1.036,-0.858 -0.612,-2.241 -0.756,-3.379c-0.184,-1.453 -0.049,-2.945 -0.059,-4.42c-0.406,-3.017 -0.019,-6.059 -0.232,-9.075c-0.28,-3.974 -0.104,-7.958 -0.396,-11.928c-0.026,-0.353 -0.356,-0.752 -0.356,-0.822c0,-3.2 0,-6.4 0,-9.6c0,-0.64 0,-1.28 0,-1.92c0,0.006 0.395,-0.185 0.615,-0.365c1.411,-1.151 2.872,-1.939 4.679,-2.303c2.489,-0.502 4.957,-1.113 7.434,-1.67c-0.001,0.13 -0.018,0.209 -0.04,0.31c0.022,-0.1 0.039,-0.264 0.04,-0.394c0.555,-0.184 1.331,0.397 1.683,-0.603c4.72,0 9.44,0 14.16,0c0.24,0 0.48,0 0.72,0c0.48,0 0.96,0 1.44,0c0.042,0 0.167,0.559 0.448,0.574c1.739,0.085 3.385,0.755 5.073,1.101c-0.062,0.443 -0.287,0.647 -0.568,0.754c0.281,-0.107 0.505,-0.311 0.567,-0.754c0.367,0.215 0.745,0.38 1.15,0.531c1.077,0.401 2.276,0.544 3.168,1.375c1.112,0.546 2.615,0.661 2.626,2.409c0.144,5.279 0.592,10.548 0.479,15.835c0.47,1.782 0.341,3.636 0.394,5.432c0.118,3.962 0.636,7.903 0.525,11.873c-0.011,0.38 0.407,0.836 0.407,0.935c0,3.6 0,7.2 0,10.8c0,1.44 0.044,2.964 0.078,4.404zM247.468,156.637c-0.007,0 -0.016,0.003 -0.024,0.004c0.008,-0.001 0.017,-0.004 0.024,-0.004zM243.093,156.053c-0.26,-0.061 -0.521,-0.088 -0.786,-0.002c0,0.088 -0.001,0.176 -0.002,0.265c0.001,-0.088 0.001,-0.177 0.002,-0.265c0.265,-0.086 0.527,-0.059 0.786,0.002zM238.332,158.429c-0.055,-0.063 -0.144,-0.102 -0.253,-0.122c-0.187,0.02 -0.35,0.076 -0.427,0.223c0.077,-0.147 0.24,-0.203 0.427,-0.223c0.11,0.021 0.199,0.06 0.253,0.122zM226.691,162.826l-0.001,0.002v0zM224.049,161.867v0c0.117,-0.14 0.234,-0.276 0.333,-0.412c-0.099,0.136 -0.217,0.272 -0.333,0.412zM236.771,169.064c-0.16,0.001 -0.32,0.001 -0.48,0.001c-0.16,0.32 -0.32,0.64 -0.48,0.959c0.16,-0.32 0.32,-0.639 0.48,-0.959c0.16,0 0.32,0 0.48,-0.001z" id="XMLID_47_" fill="#878787"/><g id="XMLID_2_"><path d="M264.131,193.065c0,3.6 0,7.2 0,10.8c-1.079,0.732 -1.361,2.051 -2.184,2.984c-0.467,0.529 -1.273,0.901 -1.176,1.816c-0.4,0 -0.8,0 -1.2,0c-1.05,-2.353 -2.067,-4.722 -3.362,-6.957c-0.006,-1.504 -0.748,-2.833 -1.262,-4.151c-0.818,-2.096 -1.985,-4.057 -2.856,-6.161c-1.119,-2.705 -2.516,-5.295 -3.793,-7.934c0.757,0.202 1.201,0.726 1.467,1.432c0.252,0.667 0.851,0.847 1.444,0.863c0.344,0.009 0.973,-0.272 0.475,-0.736c-0.863,-0.804 -0.212,-1.065 0.372,-1.314c0.953,-0.406 1.868,-0.87 2.712,-1.469c0.274,-0.195 0.463,-0.485 0.419,-0.815c-0.059,-0.448 -0.513,-0.253 -0.762,-0.39c-0.543,-0.298 -0.884,0.198 -1.324,0.25c-0.289,0.034 -0.676,0.394 -0.864,0.023c-0.226,-0.445 0.312,-0.43 0.542,-0.595c0.448,-0.32 0.968,-0.553 1.183,-1.135c0.262,-0.712 0.744,-1.226 1.513,-1.389c0.413,-0.088 0.613,-0.335 0.357,-0.661c-0.356,-0.452 -0.198,-0.77 0.055,-1.169c0.317,-0.499 0.316,-0.994 -0.547,-1.404c0.419,0 0.542,-0.033 0.636,0.005c0.591,0.24 0.884,-0.179 1.205,-0.531c0.151,-0.166 0.19,-0.357 0.002,-0.521c-0.386,-0.338 -0.795,-0.226 -1.236,-0.091c-0.31,0.095 -0.57,0.26 -0.853,0.385c-0.596,0.263 -1.187,0.223 -1.953,-0.631c1.97,0.375 2.714,-0.674 3.282,-1.922c0.138,-0.303 0.371,-0.373 0.61,-0.508c0.821,-0.462 1.065,-1.361 1.524,-2.094c0.098,-0.157 0.072,-0.399 -0.093,-0.554c-0.128,-0.12 -0.381,-0.152 -0.416,-0.017c-0.28,1.085 -1.736,0.156 -2.092,1.225c-0.045,0.136 -0.943,0.556 -1.408,0.132c-0.496,-0.453 0.098,-0.87 0.215,-1.289c0.25,-0.895 1.071,-1.254 1.804,-1.602c0.978,-0.464 1.776,-1.576 1.666,-2.188c-0.27,-1.503 0.094,-2.42 1.335,-3.129v0c0.342,-0.007 0.582,-0.167 0.721,-0.48c0.468,-0.077 0.954,-0.292 0.825,-0.802c-0.141,-0.557 -0.688,-0.261 -1.106,-0.292c-0.998,-0.074 -1.766,0.269 -2.689,0.653c-2.04,0.849 -4.303,0.537 -6.418,-0.03c-0.878,-0.235 -1.636,-0.377 -2.359,0.153c-0.624,0.457 -1.277,0.583 -2.017,0.568c-0.632,-0.013 -1.26,-0.004 -1.899,0.113c-2.689,0.494 -5.395,-0.023 -8.094,0.052c-0.315,0.009 -0.712,-0.115 -0.962,-0.415c0.278,-0.324 0.682,-0.308 1.004,-0.224c1.42,0.372 2.877,-0.177 4.339,0.362c0.95,0.351 2.106,-0.106 3.146,-0.375c0.35,-0.091 0.385,-0.36 0.393,-0.652c0.159,-0.016 0.318,-0.032 0.477,-0.048c0.57,0.816 1.613,0.974 2.183,0.569c1.446,-1.029 3.483,-0.752 4.663,-2.253c0.186,-0.237 0.488,-0.307 0.763,-0.163c1.109,0.582 2.27,-1.202 3.385,0.082c0.101,0.116 0.393,-0.192 0.518,-0.403c0.314,-0.528 0.637,-0.56 0.969,-0.016c0.261,0.428 0.649,0.628 0.879,0.08c0.28,-0.669 0.884,-0.997 1.284,-1.525c1.112,0.546 2.619,0.661 2.63,2.409c-0.652,0.134 -0.406,0.664 -0.475,1.062c-0.297,1.713 0.28,3.405 0.034,5.141c-0.35,2.466 0.603,4.878 0.547,7.355c-0.017,0.759 -0.085,1.577 0.381,2.278c0.47,1.783 0.357,3.637 0.41,5.432c0.118,3.963 0.669,7.903 0.558,11.873c-0.01,0.384 -0.103,0.839 0.473,0.938z" id="XMLID_140_" fill="#ededed"/><path d="M227.89,202.42c-1.141,-0.335 -2.306,-0.606 -3.36,-1.188c-0.588,-0.96 -1.582,-1.513 -2.323,-2.311c-1.478,-1.593 -1.602,-3.646 -1.75,-5.668c-0.049,-0.665 0.113,-1.373 -0.501,-1.883c-0.406,-3.017 -0.048,-6.058 -0.261,-9.075c-0.28,-3.974 -0.162,-7.958 -0.453,-11.928c-0.026,-0.353 0.042,-0.752 -0.471,-0.822c0,-3.2 0,-6.4 0,-9.6c0.616,-0.03 0.826,0.745 1.437,0.724c0.129,0.673 0.871,0.728 1.204,1.195c0.777,0.871 1.891,1.252 2.808,1.922c0.244,0.179 0.678,0.169 0.716,0.542c0.05,0.481 -0.408,0.522 -0.727,0.641c-0.273,0.102 -0.54,0.196 -0.58,0.524c-0.053,0.427 0.335,0.483 0.585,0.655c0.519,0.355 1.15,0.318 1.723,0.437c0.75,0.157 0.779,0.469 0.548,1.078c-0.205,0.54 -0.49,0.91 -1.101,0.919c-0.492,0.007 -1.115,0.488 -0.983,0.634c0.758,0.837 0.496,1.534 0.119,2.415c-0.076,0.177 0.164,0.9 0.027,1.389c-0.19,0.68 -0.266,1.313 0.417,1.814c0.415,0.304 0.29,0.624 -0.03,1c-0.946,1.111 -1.068,2.494 -0.301,3.777c0.382,0.639 0.194,1.109 -0.006,1.761c-0.499,1.629 -1.465,3.211 -0.627,5.072c0.299,0.665 0.464,1.692 0.155,2.267c-0.673,1.254 -1.02,2.365 -0.19,3.636c0.063,0.097 0.025,0.35 -0.061,0.441c-0.769,0.811 -0.544,1.666 -0.181,2.557c0.154,0.379 0.056,0.751 -0.098,1.149c-0.438,1.132 0.009,2.225 0.646,3.05c0.662,0.858 1.643,1.505 2.71,1.896c0.492,0.178 0.85,0.427 0.909,0.98z" id="XMLID_138_" fill="#d8d8d8"/><path d="M220.208,160.67c-0.611,0.02 -0.821,-0.755 -1.437,-0.725c0,-0.64 0,-1.28 0,-1.92c0.305,0.006 0.509,-0.178 0.73,-0.358c1.412,-1.151 2.987,-1.932 4.794,-2.296c2.488,-0.501 4.957,-1.099 7.434,-1.656c-0.012,1.201 -0.972,1.077 -1.714,1.173c-0.68,0.088 -1.408,-0.078 -2.147,0.64c1.872,0 3.56,0.111 5.227,-0.033c1.54,-0.133 3.084,-0.556 4.616,-0.303c1.119,0.185 2.188,0.075 3.266,-0.042c2.518,-0.273 5.122,-0.811 7.514,0.081c1.823,0.679 3.502,0.723 5.288,0.37c0.576,-0.114 1.35,-0.042 1.474,-0.928c0.366,0.215 0.746,0.38 1.151,0.531c1.077,0.401 2.278,0.544 3.17,1.375c-0.4,0.528 -1.004,0.856 -1.284,1.525c-0.23,0.548 -0.618,0.348 -0.879,-0.08c-0.332,-0.544 -0.655,-0.512 -0.969,0.016c-0.126,0.211 -0.417,0.52 -0.518,0.403c-1.115,-1.284 -2.277,0.5 -3.385,-0.082c-0.275,-0.144 -0.576,-0.074 -0.763,0.163c-1.18,1.501 -3.217,1.224 -4.663,2.253c-0.57,0.406 -1.613,0.248 -2.183,-0.569c1.616,-0.182 3.154,-0.65 4.649,-1.272c0.815,-0.067 1.626,-0.561 1.146,-1.272c-0.423,-0.626 -1.35,-1.363 -2.433,-0.842c-0.162,0.005 -0.324,0.01 -0.486,0.016c-0.111,-0.197 -0.28,-0.234 -0.484,-0.177c-0.157,-0.027 -0.314,-0.054 -0.47,-0.081c-1.006,-0.399 -2.059,-0.483 -3.127,-0.458c-0.148,-0.136 -0.307,-0.139 -0.475,-0.04c-0.312,-0.091 -0.625,-0.134 -0.943,-0.032c-0.161,-0.015 -0.322,-0.029 -0.482,-0.044c-0.253,-0.097 -0.503,-0.113 -0.749,0.023c-0.725,-0.215 -1.431,0.025 -2.145,0.089c-0.661,-0.086 -1.311,-0.072 -1.921,0.246c-1.601,-0.036 -2.902,1.097 -4.5,1.143c-0.429,0.012 -0.908,0.388 -0.958,0.927c-0.056,0.6 0.472,0.781 0.896,0.961c0.536,0.228 1.043,0.584 1.673,0.516c0.46,0.234 0.948,0.28 1.453,0.224c1.92,0.257 3.841,0.492 5.77,0.081c0.795,-0.085 1.596,0.269 2.387,-0.04c0.24,0.027 0.481,0.053 0.721,0.08c-0.007,0.292 -0.043,0.561 -0.393,0.652c-1.04,0.269 -2.196,0.725 -3.146,0.375c-1.463,-0.54 -2.92,0.01 -4.339,-0.362c-0.322,-0.084 -0.726,-0.1 -1.004,0.224c-0.16,0 -0.32,0 -0.48,0c-0.257,-0.332 -0.627,-0.213 -0.96,-0.239c-0.16,0 -0.32,0 -0.48,0c-0.457,-0.038 -0.948,0.125 -1.294,-0.39c-0.486,-0.724 -1.315,-0.823 -2.079,-1.05c-1.129,-0.336 -2.462,-0.122 -3.318,-1.219c-0.145,-0.186 -0.463,-0.15 -0.482,0.055c-0.133,1.405 -1.155,0.915 -1.921,0.917c-0.853,0.003 -0.796,0.519 -0.385,0.873c0.834,0.719 0.342,1.217 -0.124,1.776c-1.405,0.008 -2.461,-1.112 -3.839,-1.198zM228.983,157.994c-0.068,-0.044 -0.153,-0.142 -0.246,-0.151c-0.178,-0.017 -0.306,0.098 -0.316,0.277c-0.01,0.183 0.101,0.305 0.292,0.268c0.171,-0.032 0.261,-0.165 0.27,-0.394z" id="XMLID_135_" fill="#e9e9e9"/><path d="M249.731,153.225c0.042,0.259 0.167,0.447 0.449,0.461c1.739,0.085 3.385,0.643 5.073,0.988c-0.124,0.886 -0.899,0.815 -1.474,0.929c-1.787,0.352 -3.465,0.309 -5.288,-0.37c-2.392,-0.891 -4.995,-0.354 -7.514,-0.081c-1.078,0.117 -2.147,0.227 -3.266,0.042c-1.532,-0.253 -3.076,0.17 -4.616,0.303c-1.667,0.144 -3.355,0.033 -5.227,0.033c0.739,-0.718 1.468,-0.552 2.147,-0.64c0.741,-0.096 1.702,0.028 1.714,-1.173c0.555,-0.184 1.331,0.391 1.683,-0.49c4.72,0 9.44,0 14.16,0c0.039,0.24 0.102,0.466 0.416,0.426c0.241,-0.031 0.272,-0.234 0.304,-0.426c0.479,-0.002 0.959,-0.002 1.439,-0.002z" id="XMLID_133_" fill="#ededed"/><path d="M260.771,208.665c-0.097,-0.915 0.709,-1.286 1.176,-1.816c0.823,-0.934 1.105,-2.252 2.184,-2.984c0,1.44 -0.021,2.881 0.013,4.32c0.01,0.418 -0.075,0.511 -0.494,0.493c-0.958,-0.041 -1.919,-0.013 -2.879,-0.013z" id="XMLID_131_" fill="#fefefe"/><path d="M248.291,153.225c-0.032,0.192 -0.062,0.395 -0.304,0.426c-0.314,0.04 -0.377,-0.186 -0.416,-0.426c0.24,0 0.48,0 0.72,0z" id="XMLID_130_" fill="#fefefe"/><path d="M248.055,203.367c-0.559,0.014 -1.118,0.028 -1.677,0.041c-0.637,-0.518 -1.384,-0.183 -2.078,-0.254c-0.435,-0.045 -0.902,-0.096 -0.784,-0.634c0.279,-1.27 -0.408,-2.288 -0.767,-3.39c-0.182,-0.56 -0.203,-0.997 0.428,-1.282c0.698,-0.315 0.667,-0.676 -0.04,-0.917c-0.929,-0.316 -0.509,-1.405 -1.133,-1.88c0.77,-0.672 0.262,-1.514 0.124,-2.177c-0.23,-1.11 0.004,-2.492 -1.147,-3.229c-0.805,-0.515 -0.671,-0.909 -0.018,-1.289c0.683,-0.397 0.491,-0.714 0.244,-1.332c-0.229,-0.572 -1.041,-0.952 -0.653,-1.797c0.449,-0.977 0.024,-2.099 -0.222,-2.923c-0.366,-1.23 -0.024,-2.251 0.199,-3.296c0.12,-0.561 0.192,-0.936 -0.132,-1.394c-0.335,-0.475 -0.59,-1.009 -1.094,-1.345c0.804,-0.943 -0.018,-2.219 0.514,-3.064c0.354,-0.562 0.587,-1.71 1.749,-1.5c0.103,0.853 1.13,0.594 1.44,1.197l0.001,0.001c-0.006,0.349 0.006,0.687 0.476,0.723v0c-0.019,0.613 0.279,1.131 0.452,1.692c0.364,1.186 1.816,1.852 1.538,3.312c0.871,0.246 0.327,1.426 1.132,1.715c0.71,0.959 1.164,2.057 1.687,3.117c1.277,2.639 2.674,5.229 3.793,7.934c0.87,2.104 2.037,4.065 2.856,6.161c0.515,1.318 1.256,2.647 1.262,4.151c-0.962,0.233 -1.923,0.465 -2.885,0.698c-0.265,-0.423 -0.285,-1.137 -1.033,-1.019c-1.05,0.166 -1.877,-0.141 -2.497,-1.002c-0.463,-0.643 -1.286,-0.085 -1.266,0.024c0.161,0.886 -0.61,1.035 -1.005,1.47c-0.388,0.426 -0.766,0.858 0.185,1.054c0.235,0.05 0.307,0.232 0.351,0.434z" id="XMLID_129_" fill="#dedede"/><path d="M248.298,183.463c-0.523,-1.06 -0.977,-2.158 -1.687,-3.117c-0.115,-1.212 0.048,-2.449 -1.107,-3.408c-0.507,-0.421 -0.979,-1.295 -0.769,-2.034c0.376,-1.323 -0.298,-1.375 -1.246,-1.277v0c0.007,-0.35 -0.007,-0.686 -0.476,-0.723l-0.001,-0.001c-0.164,-0.722 -0.332,-1.444 -0.488,-2.167c-0.057,-0.265 -0.145,-0.464 -0.461,-0.308c-0.208,0.102 -0.434,0.302 -0.593,-0.004c-0.156,-0.299 0.178,-0.358 0.327,-0.517c0.477,-0.506 1.372,-0.345 1.694,-1.081c0.079,-0.001 0.159,-0.003 0.238,-0.004c1.483,-0.38 2.869,-0.965 4.084,-1.917c0.396,0.002 0.756,-0.043 1.127,-0.262c1.523,-0.899 2.991,-1.911 4.703,-2.454c0.162,-0.052 0.273,-0.266 0.407,-0.404c1.173,-0.192 2.176,-0.751 3.12,-1.44c0.894,0.075 1.506,-0.795 2.4,-0.72c-1.242,0.708 -1.605,1.626 -1.335,3.129c0.11,0.612 -0.687,1.723 -1.666,2.188c-0.734,0.348 -1.554,0.707 -1.804,1.602c-0.117,0.419 -0.711,0.836 -0.215,1.289c0.464,0.424 1.362,0.004 1.408,-0.132c0.356,-1.069 1.812,-0.14 2.092,-1.225c0.035,-0.135 0.288,-0.103 0.416,0.017c0.165,0.155 0.191,0.398 0.093,0.554c-0.459,0.733 -0.703,1.632 -1.524,2.094c-0.24,0.135 -0.473,0.205 -0.61,0.508c-0.568,1.248 -1.312,2.297 -3.282,1.922c0.766,0.854 1.357,0.893 1.953,0.631c0.283,-0.125 0.543,-0.29 0.853,-0.385c0.44,-0.135 0.849,-0.247 1.236,0.091c0.188,0.164 0.149,0.355 -0.002,0.521c-0.321,0.352 -0.614,0.771 -1.205,0.531c-0.094,-0.038 -0.217,-0.005 -0.636,-0.005c0.863,0.411 0.864,0.905 0.547,1.404c-0.254,0.399 -0.411,0.717 -0.055,1.169c0.256,0.325 0.056,0.573 -0.357,0.661c-0.769,0.163 -1.251,0.677 -1.513,1.389c-0.214,0.582 -0.734,0.815 -1.183,1.135c-0.231,0.165 -0.768,0.15 -0.542,0.595c0.188,0.371 0.575,0.011 0.864,-0.023c0.441,-0.052 0.782,-0.548 1.324,-0.25c0.25,0.137 0.703,-0.059 0.762,0.39c0.044,0.33 -0.145,0.621 -0.419,0.815c-0.844,0.599 -1.759,1.063 -2.712,1.469c-0.585,0.249 -1.235,0.509 -0.372,1.314c0.498,0.464 -0.132,0.745 -0.475,0.736c-0.594,-0.016 -1.193,-0.196 -1.444,-0.863c-0.269,-0.708 -0.712,-1.231 -1.469,-1.433z" id="XMLID_128_" fill="#f3f3f3"/><path d="M259.571,161.625c-0.894,-0.075 -1.506,0.795 -2.4,0.72c-0.099,-0.581 -0.536,-0.52 -0.92,-0.435c-0.616,0.136 -1.221,0.325 -1.826,0.507c-0.841,0.253 -0.971,0.714 -0.374,1.367c-0.135,0.139 -0.245,0.353 -0.407,0.404c-1.713,0.544 -3.18,1.556 -4.703,2.454c-0.372,0.219 -0.731,0.264 -1.127,0.262c-1.106,-0.292 -2.245,0.01 -3.324,-0.104c-2.7,-0.285 -5.392,-0.479 -8.105,-0.428c-0.361,0.007 -0.712,-0.176 -0.913,-0.494c-0.169,-0.267 -0.196,-0.545 0.269,-0.549c1.472,-0.013 2.939,0.023 4.408,-0.205c1.782,-0.277 3.584,-0.426 5.378,-0.625c0.302,-0.033 0.565,-0.101 0.561,-0.471c-0.006,-0.452 -0.345,-0.48 -0.674,-0.479c-1.157,0.001 -2.328,-0.102 -3.468,0.041c-3.568,0.447 -7.103,0.027 -10.652,-0.218c-1.547,-0.107 -3.028,-0.72 -4.604,-0.546l0.001,-0.002c0.004,-0.42 -0.044,-0.832 -0.549,-0.924c-0.48,-0.087 -0.752,-0.247 -0.508,-0.79c0.203,-0.451 0.433,-0.672 1.008,-0.526c0.733,0.186 1.488,0.189 2.15,-0.352c0.415,-0.339 0.674,-0.07 1.088,0.214c1.036,0.711 2.328,0.706 3.548,0.838c0.06,0.007 0.149,-0.247 0.224,-0.38c0.16,0 0.32,0 0.48,0c0.179,0.647 0.537,0.571 0.96,0.239c0.16,0 0.32,0 0.48,0c0.251,0.301 0.648,0.424 0.962,0.415c2.699,-0.075 5.406,0.442 8.094,-0.052c0.64,-0.117 1.267,-0.127 1.899,-0.113c0.74,0.016 1.394,-0.111 2.017,-0.568c0.724,-0.53 1.482,-0.388 2.359,-0.153c2.115,0.567 4.378,0.879 6.418,0.03c0.922,-0.384 1.691,-0.726 2.689,-0.653c0.418,0.031 0.965,-0.264 1.106,0.292c0.129,0.51 -0.356,0.725 -0.825,0.802c-0.349,-0.002 -0.686,0.013 -0.72,0.482z" id="XMLID_127_" fill="#efefef"/><path d="M247.807,156.838c0.162,-0.005 0.324,-0.01 0.485,-0.016c0.729,0.522 2.034,0.693 1.287,2.114c-1.496,0.622 -3.033,1.09 -4.649,1.272c-0.159,0.016 -0.318,0.032 -0.477,0.048c-0.24,-0.027 -0.481,-0.053 -0.721,-0.08c0.13,-0.431 -0.536,-1.075 0.272,-1.302c0.983,-0.277 0.608,-0.78 0.037,-1.576c0.7,0.354 1.127,-0.035 1.495,0.118c0.91,0.379 1.088,-0.233 1.317,-0.837c0.157,0.027 0.314,0.054 0.47,0.081c0.076,0.294 0.18,0.507 0.484,0.178z" id="XMLID_126_" fill="#6a6a6a"/><path d="M262.204,158.989c0.144,5.279 0.6,10.549 0.487,15.835c-0.466,-0.701 -0.398,-1.519 -0.381,-2.278c0.055,-2.477 -0.897,-4.889 -0.547,-7.355c0.246,-1.735 -0.331,-3.428 -0.034,-5.141c0.069,-0.397 -0.178,-0.927 0.475,-1.061z" id="XMLID_125_" fill="#e6e6e6"/><path d="M259.571,161.625c0.034,-0.469 0.371,-0.484 0.721,-0.48c-0.139,0.313 -0.379,0.473 -0.721,0.48z" id="XMLID_124_" fill="#f3f3f3"/><path d="M227.89,202.42c-0.059,-0.553 -0.417,-0.802 -0.908,-0.982c-1.067,-0.39 -2.049,-1.038 -2.71,-1.896c-0.636,-0.825 -1.084,-1.918 -0.646,-3.05c0.154,-0.398 0.252,-0.77 0.098,-1.149c-0.363,-0.89 -0.588,-1.746 0.181,-2.557c0.086,-0.091 0.125,-0.344 0.061,-0.441c-0.83,-1.272 -0.483,-2.382 0.19,-3.636c0.309,-0.575 0.144,-1.603 -0.155,-2.267c-0.838,-1.861 0.128,-3.443 0.627,-5.072c0.2,-0.651 0.388,-1.122 0.006,-1.761c-0.767,-1.282 -0.645,-2.665 0.301,-3.777c0.32,-0.376 0.445,-0.695 0.03,-1c-0.683,-0.501 -0.607,-1.134 -0.417,-1.814c0.137,-0.489 -0.103,-1.212 -0.027,-1.389c0.377,-0.88 0.639,-1.577 -0.119,-2.415c-0.132,-0.145 0.491,-0.627 0.983,-0.634c0.611,-0.008 0.896,-0.379 1.101,-0.919c0.231,-0.608 0.202,-0.921 -0.548,-1.078c-0.573,-0.12 -1.204,-0.082 -1.723,-0.437c-0.251,-0.171 -0.638,-0.227 -0.585,-0.655c0.041,-0.329 0.308,-0.423 0.58,-0.524c0.319,-0.119 0.777,-0.16 0.727,-0.641c-0.039,-0.373 -0.472,-0.364 -0.716,-0.542c-0.916,-0.67 -2.031,-1.051 -2.808,-1.922c0.658,-0.008 1.242,0.281 1.831,0.501c1.717,0.641 3.482,1.325 4.714,2.69c0.816,0.904 1.672,1.715 2.785,1.893c1.728,0.276 3.342,1.018 5.084,1.133c0.725,0.048 1.034,0.266 0.945,0.984c-0.16,0 -0.32,0 -0.48,0.001c-0.64,-0.325 -1.282,-0.629 -2.024,-0.32c-0.64,0.267 -1.275,0.19 -1.963,0.147c-1.366,-0.086 -2.739,-0.571 -4.13,-0.078c-0.36,0.128 -0.727,0.18 -0.71,0.639c0.015,0.402 0.326,0.75 0.667,0.74c1.165,-0.035 2.171,0.815 3.36,0.551c1.265,0.42 2.656,0.27 3.888,0.923c0.371,0.197 0.9,0.182 1.034,0.654c0.139,0.489 -0.453,0.587 -0.659,0.911c-0.369,0.58 -0.883,0.33 -1.392,0.199c-1.115,-0.286 -1.953,0.17 -2.43,1.225c-0.33,0.73 -0.102,1.252 0.652,1.246c0.782,-0.006 0.746,0.366 0.69,0.888c-0.178,1.661 -0.228,1.7 -1.932,1.305c-0.228,-0.053 -0.446,-0.202 -0.745,0.089c0.701,0.278 0.578,1.118 1.13,1.522c1.309,0.957 1.461,1.435 0.735,2.718c-0.517,0.912 0.096,1.729 0.093,2.59c-0.002,0.412 1.479,1.067 -0.197,1.274c-0.257,0.032 -0.16,0.579 0.067,0.835c0.263,0.297 0.552,0.578 0.86,0.828c0.239,0.194 0.472,0.417 0.253,0.689c-0.511,0.635 -0.313,1.436 -0.529,2.104c-0.523,0.09 -0.18,-1.239 -0.931,-0.55c-0.569,0.522 -0.5,2.52 0.151,3.009c0.567,0.426 0.352,0.844 0.12,1.088c-0.59,0.621 -0.344,1.24 -0.027,1.752c0.431,0.695 0.418,1.079 -0.431,1.256c-0.539,0.112 -0.754,0.461 -0.602,0.961c0.179,0.589 -0.124,1.04 -0.241,1.562c-0.131,0.582 -0.963,1.487 0.09,1.883c0.942,0.354 1.772,0.993 2.887,1.017c0.7,0.015 1.576,0.127 2.028,0.918c-2.773,-0.074 -5.51,-0.368 -8.164,-1.219z" id="XMLID_123_" fill="#dedede"/><path d="M236.052,203.638c-0.452,-0.791 -1.329,-0.903 -2.028,-0.918c-1.114,-0.023 -1.945,-0.663 -2.887,-1.017c-1.054,-0.396 -0.221,-1.301 -0.09,-1.883c0.117,-0.522 0.42,-0.973 0.241,-1.562c-0.152,-0.5 0.062,-0.849 0.602,-0.961c0.85,-0.177 0.862,-0.561 0.431,-1.256c-0.317,-0.511 -0.563,-1.13 0.027,-1.752c0.232,-0.244 0.447,-0.662 -0.12,-1.088c-0.65,-0.489 -0.72,-2.487 -0.151,-3.009c0.751,-0.689 0.409,0.639 0.931,0.55c0.216,-0.667 0.018,-1.469 0.529,-2.104c0.219,-0.272 -0.014,-0.495 -0.253,-0.689c-0.308,-0.25 -0.597,-0.53 -0.86,-0.828c-0.227,-0.256 -0.324,-0.803 -0.067,-0.835c1.677,-0.207 0.196,-0.862 0.197,-1.274c0.003,-0.861 -0.61,-1.678 -0.093,-2.59c0.727,-1.283 0.575,-1.761 -0.735,-2.718c-0.552,-0.404 -0.429,-1.244 -1.13,-1.522c0.299,-0.291 0.517,-0.142 0.745,-0.089c1.703,0.395 1.754,0.357 1.932,-1.305c0.056,-0.522 0.092,-0.894 -0.69,-0.888c-0.754,0.006 -0.982,-0.516 -0.652,-1.246c0.477,-1.054 1.315,-1.511 2.43,-1.225c0.509,0.131 1.023,0.381 1.392,-0.199c0.206,-0.324 0.798,-0.422 0.659,-0.911c-0.134,-0.472 -0.662,-0.457 -1.034,-0.654c-1.232,-0.652 -2.623,-0.502 -3.888,-0.923c-0.18,-0.399 -0.37,-1.134 0.146,-1.033c1.313,0.255 2.685,-0.439 3.932,0.313c0.04,0.218 -0.057,0.625 0.234,0.573c0.356,-0.064 0.037,-0.37 0.008,-0.572c0.16,-0.32 0.32,-0.639 0.48,-0.959c0.16,0 0.32,0 0.48,-0.001c1.44,-0.316 2.88,0.089 4.32,0.001c0.025,0.599 -0.264,0.849 -0.861,0.875c-1.189,0.053 -2.257,0.536 -3.346,1.081c1.162,0.268 2.223,1.08 3.498,0.44c0.32,-0.16 0.645,-0.323 0.985,-0.425c0.25,-0.075 0.493,0.059 0.565,0.317c0.076,0.27 -0.163,0.311 -0.36,0.352c-1.162,-0.211 -1.395,0.937 -1.749,1.5c-0.532,0.845 0.289,2.12 -0.514,3.064c0.504,0.336 0.759,0.871 1.094,1.345c0.324,0.458 0.252,0.833 0.132,1.394c-0.223,1.045 -0.565,2.067 -0.199,3.296c0.245,0.823 0.671,1.946 0.222,2.923c-0.389,0.845 0.424,1.226 0.653,1.797c0.247,0.619 0.439,0.935 -0.244,1.332c-0.653,0.38 -0.787,0.774 0.018,1.289c1.151,0.737 0.917,2.119 1.147,3.229c0.137,0.663 0.646,1.505 -0.124,2.177c0.624,0.475 0.204,1.564 1.133,1.88c0.706,0.24 0.738,0.602 0.04,0.917c-0.632,0.285 -0.611,0.722 -0.428,1.282c0.359,1.102 1.046,2.12 0.767,3.39c-0.118,0.538 0.348,0.589 0.784,0.634c0.693,0.071 1.44,-0.264 2.078,0.254c-0.862,0.276 -1.74,0.458 -2.65,0.457c-2.183,-0.003 -4.365,0.003 -6.548,-0.005c-0.388,0 -0.806,0.108 -1.131,-0.221z" id="XMLID_122_" fill="#e6e6e6"/><path d="M248.055,203.367c-0.045,-0.202 -0.117,-0.384 -0.349,-0.432c-0.951,-0.196 -0.573,-0.628 -0.185,-1.054c0.395,-0.435 1.166,-0.584 1.005,-1.47c-0.02,-0.109 0.803,-0.667 1.266,-0.024c0.62,0.86 1.447,1.168 2.497,1.002c0.748,-0.118 0.768,0.596 1.033,1.019c-1.754,0.319 -3.511,0.639 -5.267,0.959z" id="XMLID_121_" fill="#d5d5d5"/><path d="M219.956,191.37c0.614,0.51 0.452,1.218 0.501,1.883c0.148,2.022 0.272,4.075 1.75,5.668c0.741,0.799 1.735,1.352 2.323,2.311c-1.41,-0.39 -2.641,-1.156 -3.737,-2.063c-1.036,-0.858 -0.619,-2.241 -0.763,-3.379c-0.185,-1.453 -0.064,-2.945 -0.074,-4.42z" id="XMLID_120_" fill="#cecece"/><path d="M241.091,169.066c-1.44,0.087 -2.88,-0.317 -4.32,-0.001c0.089,-0.719 -0.22,-0.937 -0.945,-0.984c-1.741,-0.114 -3.356,-0.857 -5.084,-1.133c-1.113,-0.178 -1.969,-0.988 -2.785,-1.893c-1.232,-1.364 -2.997,-2.048 -4.714,-2.69c-0.59,-0.22 -1.174,-0.509 -1.831,-0.501c-0.333,-0.467 -1.076,-0.522 -1.204,-1.195c1.378,0.087 2.434,1.206 3.841,1.197c0.913,0.231 1.561,1.19 2.642,0.958l-0.001,0.002c0.072,0.136 0.109,0.342 0.22,0.396c1.619,0.792 3.383,1.346 4.445,2.99c0.234,0.362 0.703,0.48 1.179,0.461c0.352,-0.015 0.744,-0.022 1.057,0.111c1.726,0.736 3.562,0.757 5.377,0.823c2.018,0.074 4.04,0.017 6.059,0.017c-0.155,0.67 -1.156,0.478 -1.298,1.197c-0.079,0.001 -0.159,0.002 -0.238,0.004c-0.445,-0.324 -0.901,-0.203 -1.324,0.017c-0.347,0.18 -0.671,0.37 -1.076,0.224z" id="XMLID_119_" fill="#e1e1e1"/><path d="M234.122,159.912c-0.63,0.067 -1.137,-0.288 -1.673,-0.516c-0.424,-0.181 -0.953,-0.361 -0.896,-0.961c0.051,-0.539 0.529,-0.915 0.958,-0.927c1.597,-0.046 2.899,-1.179 4.5,-1.143c0.145,0.43 -0.101,1.34 0.812,0.895c0.423,-0.206 0.975,-0.537 1.11,-1.141c0.713,-0.064 1.42,-0.304 2.145,-0.089c0.085,0.346 0.17,0.692 0.255,1.038c-0.463,0.563 -1.131,1.059 -1.343,1.704c-0.343,1.043 1.115,0.741 1.357,1.445c-1.93,0.411 -3.85,0.176 -5.77,-0.081c-0.12,-0.888 -0.886,-0.672 -1.397,-0.72c-0.404,-0.039 -0.085,0.314 -0.058,0.496zM238.078,158.306c-0.248,0.027 -0.456,0.119 -0.472,0.402c-0.012,0.206 0.17,0.242 0.32,0.25c0.196,0.011 0.397,-0.022 0.453,-0.258c0.056,-0.239 -0.081,-0.351 -0.301,-0.394z" id="XMLID_116_" fill="#7f7f7f"/><path d="M241.345,160.217c-0.242,-0.704 -1.7,-0.402 -1.357,-1.445c0.212,-0.646 0.88,-1.141 1.343,-1.704c0.518,0 1.634,0.775 0.974,-0.752c0.001,-0.088 0.001,-0.177 0.002,-0.265c0.318,-0.103 0.631,-0.06 0.942,0.031c0.139,0.245 0.294,0.3 0.475,0.04c1.068,-0.024 2.121,0.059 3.127,0.458c-0.229,0.603 -0.407,1.216 -1.317,0.837c-0.367,-0.153 -0.794,0.235 -1.495,-0.118c0.572,0.796 0.946,1.3 -0.037,1.576c-0.808,0.227 -0.142,0.872 -0.272,1.302c-0.789,0.309 -1.591,-0.045 -2.385,0.04z" id="XMLID_115_" fill="#787878"/><path d="M226.691,162.825c-1.081,0.232 -1.729,-0.728 -2.642,-0.958c0.465,-0.559 0.957,-1.057 0.124,-1.776c-0.411,-0.354 -0.468,-0.87 0.385,-0.873c0.766,-0.003 1.788,0.488 1.921,-0.917c0.019,-0.205 0.337,-0.241 0.482,-0.055c0.856,1.098 2.189,0.884 3.318,1.219c0.764,0.227 1.593,0.326 2.079,1.05c0.346,0.515 0.836,0.352 1.294,0.39c-0.075,0.133 -0.164,0.387 -0.224,0.38c-1.22,-0.132 -2.512,-0.127 -3.548,-0.838c-0.414,-0.284 -0.673,-0.553 -1.088,-0.214c-0.662,0.541 -1.417,0.538 -2.15,0.352c-0.575,-0.146 -0.806,0.075 -1.008,0.526c-0.244,0.543 0.028,0.702 0.508,0.79c0.505,0.093 0.553,0.504 0.549,0.924z" id="XMLID_114_" fill="#ededed"/><path d="M249.579,158.937c0.747,-1.421 -0.558,-1.592 -1.287,-2.114c1.083,-0.521 2.01,0.215 2.433,0.842c0.481,0.711 -0.331,1.205 -1.146,1.272z" id="XMLID_113_" fill="#e7e7e7"/><path d="M238.932,156.118c-0.135,0.605 -0.687,0.935 -1.11,1.141c-0.913,0.445 -0.667,-0.466 -0.812,-0.895c0.61,-0.318 1.26,-0.332 1.922,-0.246z" id="XMLID_112_" fill="#878787"/><path d="M242.306,156.316c0.659,1.527 -0.457,0.751 -0.974,0.752c-0.085,-0.346 -0.17,-0.693 -0.255,-1.038c0.246,-0.135 0.496,-0.12 0.748,-0.023c0.065,0.248 0.241,0.328 0.481,0.309z" id="XMLID_111_" fill="#878787"/><path d="M234.122,159.912c-0.027,-0.182 -0.345,-0.535 0.056,-0.496c0.511,0.049 1.277,-0.168 1.397,0.72c-0.505,0.056 -0.994,0.01 -1.453,-0.224z" id="XMLID_110_" fill="#878787"/><path d="M235.091,161.144c-0.423,0.332 -0.781,0.408 -0.96,-0.239c0.333,0.026 0.703,-0.093 0.96,0.239z" id="XMLID_109_" fill="#ededed"/><path d="M228.983,157.994c-0.01,0.229 -0.099,0.362 -0.27,0.395c-0.191,0.036 -0.302,-0.085 -0.292,-0.268c0.01,-0.179 0.138,-0.294 0.316,-0.277c0.094,0.008 0.179,0.106 0.246,0.15z" id="XMLID_108_" fill="#ededed"/><path d="M247.807,156.838c-0.303,0.329 -0.408,0.116 -0.484,-0.177c0.203,-0.057 0.373,-0.02 0.484,0.177z" id="XMLID_107_" fill="#787878"/><path d="M243.725,156.122c-0.181,0.26 -0.336,0.205 -0.475,-0.04c0.168,-0.1 0.327,-0.096 0.475,0.04z" id="XMLID_106_" fill="#7f7f7f"/><path d="M242.306,156.316c-0.24,0.019 -0.415,-0.06 -0.481,-0.31c0.161,0.015 0.322,0.029 0.482,0.044c0,0.089 -0.001,0.177 -0.001,0.266z" id="XMLID_105_" fill="#7f7f7f"/><path d="M241.091,169.066c0.405,0.146 0.728,-0.044 1.076,-0.224c0.424,-0.219 0.879,-0.341 1.324,-0.017c-0.322,0.736 -1.218,0.575 -1.694,1.081c-0.15,0.159 -0.483,0.217 -0.327,0.517c0.159,0.306 0.386,0.107 0.593,0.004c0.316,-0.156 0.404,0.043 0.461,0.308c0.157,0.724 0.325,1.445 0.488,2.167c-0.31,-0.604 -1.337,-0.345 -1.44,-1.197c0.197,-0.041 0.436,-0.082 0.36,-0.352c-0.072,-0.257 -0.316,-0.392 -0.565,-0.317c-0.34,0.103 -0.666,0.265 -0.985,0.425c-1.274,0.64 -2.336,-0.172 -3.498,-0.44c1.089,-0.545 2.157,-1.028 3.346,-1.081c0.597,-0.025 0.886,-0.275 0.861,-0.874z" id="XMLID_104_" fill="#ededed"/><path d="M243.489,173.627c0.948,-0.098 1.622,-0.046 1.246,1.277c-0.21,0.739 0.262,1.613 0.769,2.034c1.155,0.959 0.992,2.196 1.107,3.408c-0.806,-0.289 -0.262,-1.469 -1.132,-1.715c0.278,-1.459 -1.173,-2.125 -1.538,-3.312c-0.173,-0.561 -0.471,-1.079 -0.452,-1.692z" id="XMLID_103_" fill="#ededed"/><path d="M243.013,172.904c0.468,0.037 0.483,0.373 0.476,0.723c-0.469,-0.036 -0.482,-0.374 -0.476,-0.723z" id="XMLID_102_" fill="#ededed"/><path d="M243.73,168.822c0.141,-0.719 1.143,-0.527 1.298,-1.197c-2.018,0 -4.041,0.057 -6.059,-0.017c-1.815,-0.066 -3.651,-0.087 -5.377,-0.823c-0.313,-0.133 -0.705,-0.125 -1.057,-0.111c-0.476,0.02 -0.946,-0.099 -1.179,-0.461c-1.063,-1.644 -2.827,-2.197 -4.445,-2.99c-0.111,-0.055 -0.149,-0.261 -0.22,-0.396c1.575,-0.174 3.057,0.44 4.604,0.546c3.548,0.245 7.084,0.665 10.652,0.218c1.14,-0.143 2.311,-0.04 3.468,-0.041c0.329,0 0.669,0.027 0.674,0.479c0.005,0.37 -0.259,0.438 -0.561,0.471c-1.794,0.199 -3.596,0.348 -5.378,0.625c-1.47,0.228 -2.937,0.192 -4.408,0.205c-0.465,0.004 -0.438,0.282 -0.269,0.549c0.201,0.318 0.552,0.501 0.913,0.494c2.713,-0.051 5.405,0.144 8.105,0.428c1.079,0.114 2.218,-0.188 3.324,0.104c-1.216,0.952 -2.603,1.537 -4.085,1.917z" id="XMLID_101_" fill="#e7e7e7"/><path d="M254.051,163.785c-0.596,-0.653 -0.466,-1.114 0.374,-1.367c0.605,-0.182 1.21,-0.371 1.826,-0.507c0.383,-0.085 0.821,-0.146 0.92,0.435c-0.944,0.688 -1.947,1.247 -3.12,1.439z" id="XMLID_100_" fill="#ededed"/><path d="M235.57,170.024c-1.246,-0.751 -2.619,-0.057 -3.932,-0.313c-0.517,-0.1 -0.327,0.634 -0.146,1.033c-1.189,0.264 -2.195,-0.586 -3.36,-0.551c-0.342,0.01 -0.652,-0.338 -0.667,-0.74c-0.018,-0.459 0.35,-0.511 0.71,-0.639c1.391,-0.493 2.764,-0.008 4.13,0.078c0.688,0.043 1.323,0.12 1.963,-0.147c0.742,-0.309 1.384,-0.005 2.024,0.32c-0.16,0.32 -0.32,0.639 -0.48,0.959c-0.081,0 -0.162,0 -0.242,0z" id="XMLID_99_" fill="#e1e1e1"/><path d="M235.57,170.024c0.08,0 0.161,0 0.241,0.001c0.029,0.202 0.348,0.508 -0.008,0.572c-0.29,0.052 -0.193,-0.355 -0.233,-0.573z" id="XMLID_98_" fill="#ededed"/><path d="M238.079,158.307c0.219,0.042 0.356,0.153 0.299,0.393c-0.056,0.236 -0.257,0.27 -0.453,0.258c-0.15,-0.009 -0.332,-0.044 -0.32,-0.25c0.017,-0.283 0.225,-0.374 0.474,-0.401z" id="XMLID_96_" fill="#878787"/></g></g></g></svg>