<svg width="566" height="396" viewBox="0 0 566 396" fill="none" xmlns="http://www.w3.org/2000/svg">
<g clip-path="url(#clip0_3_3)">
<path d="M0 28.2874L28.284 0.00336838L56.568 28.2874L28.284 56.5714L0 28.2874Z" fill="white"/>
<path d="M6.10352e-05 84.8558L28.2841 56.5718L56.5681 84.8558L28.2841 113.14L6.10352e-05 84.8558Z" fill="white"/>
<path d="M56.5685 84.8558L84.8525 56.5718L113.136 84.8558L84.8525 113.14L56.5685 84.8558Z" fill="white"/>
<path d="M56.5684 28.2873L84.8524 0.00331116L113.136 28.2873L84.8524 56.5713L56.5684 28.2873Z" fill="white"/>
<path d="M113.136 28.2865L141.42 0.00254059L169.704 28.2865L141.42 56.5705L113.136 28.2865Z" fill="white"/>
<path d="M113.136 84.855L141.42 56.571L169.704 84.855L141.42 113.139L113.136 84.855Z" fill="white"/>
<path d="M169.705 84.8549L197.989 56.5709L226.273 84.8549L197.989 113.139L169.705 84.8549Z" fill="white"/>
<path d="M169.705 28.2865L197.989 0.00247955L226.273 28.2865L197.989 56.5705L169.705 28.2865Z" fill="white"/>
<path d="M226.272 28.2857L254.556 0.00170898L282.84 28.2857L254.556 56.5697L226.272 28.2857Z" fill="white"/>
<path d="M226.273 84.8541L254.557 56.5701L282.841 84.8541L254.557 113.138L226.273 84.8541Z" fill="white"/>
<path d="M282.841 84.8541L311.125 56.5701L339.409 84.8541L311.125 113.138L282.841 84.8541Z" fill="white"/>
<path d="M282.841 28.2857L311.125 0.00165176L339.409 28.2857L311.125 56.5696L282.841 28.2857Z" fill="white"/>
<path d="M339.409 28.2856L367.693 0.00159073L395.977 28.2856L367.693 56.5696L339.409 28.2856Z" fill="white"/>
<path d="M339.409 84.854L367.693 56.57L395.977 84.854L367.693 113.138L339.409 84.854Z" fill="white"/>
<path d="M395.977 84.8533L424.261 56.5693L452.545 84.8533L424.261 113.137L395.977 84.8533Z" fill="white"/>
<path d="M395.977 28.2848L424.261 0.00082016L452.545 28.2848L424.261 56.5688L395.977 28.2848Z" fill="white"/>
<path d="M452.546 28.2848L480.83 0.000759125L509.114 28.2848L480.83 56.5688L452.546 28.2848Z" fill="white"/>
<path d="M452.546 84.8532L480.83 56.5692L509.114 84.8532L480.83 113.137L452.546 84.8532Z" fill="white"/>
<path d="M0.000816345 141.424L28.2848 113.14L56.5688 141.424L28.2848 169.708L0.000816345 141.424Z" fill="white"/>
<path d="M0.00088501 197.992L28.2849 169.708L56.5689 197.992L28.2849 226.276L0.00088501 197.992Z" fill="white"/>
<path d="M56.5693 197.992L84.8533 169.708L113.137 197.992L84.8533 226.276L56.5693 197.992Z" fill="white"/>
<path d="M56.5693 141.424L84.8533 113.14L113.137 141.424L84.8533 169.708L56.5693 141.424Z" fill="white"/>
<path d="M113.137 141.423L141.421 113.139L169.705 141.423L141.421 169.707L113.137 141.423Z" fill="white"/>
<path d="M113.137 197.991L141.421 169.707L169.705 197.991L141.421 226.275L113.137 197.991Z" fill="white"/>
<path d="M169.706 197.991L197.99 169.707L226.274 197.991L197.99 226.275L169.706 197.991Z" fill="white"/>
<path d="M169.706 141.423L197.99 113.139L226.274 141.423L197.99 169.707L169.706 141.423Z" fill="white"/>
<path d="M226.273 141.422L254.557 113.138L282.841 141.422L254.557 169.706L226.273 141.422Z" fill="white"/>
<path d="M226.273 197.99L254.557 169.706L282.841 197.99L254.557 226.274L226.273 197.99Z" fill="white"/>
<path d="M282.842 197.99L311.126 169.706L339.41 197.99L311.126 226.274L282.842 197.99Z" fill="white"/>
<path d="M282.842 141.422L311.126 113.138L339.41 141.422L311.126 169.706L282.842 141.422Z" fill="white"/>
<path d="M339.41 141.422L367.694 113.138L395.978 141.422L367.694 169.706L339.41 141.422Z" fill="white"/>
<path d="M339.41 197.99L367.694 169.706L395.978 197.99L367.694 226.274L339.41 197.99Z" fill="white"/>
<path d="M395.978 197.99L424.262 169.706L452.546 197.99L424.262 226.274L395.978 197.99Z" fill="white"/>
<path d="M395.978 141.421L424.262 113.137L452.546 141.421L424.262 169.705L395.978 141.421Z" fill="white"/>
<path d="M452.547 141.421L480.831 113.137L509.115 141.421L480.831 169.705L452.547 141.421Z" fill="white"/>
<path d="M452.547 197.989L480.831 169.705L509.115 197.989L480.831 226.273L452.547 197.989Z" fill="white"/>
<path d="M0.00166321 254.56L28.2857 226.276L56.5697 254.56L28.2857 282.844L0.00166321 254.56Z" fill="white"/>
<path d="M0.00172424 311.128L28.2857 282.844L56.5697 311.128L28.2857 339.412L0.00172424 311.128Z" fill="white"/>
<path d="M56.5702 311.128L84.8542 282.844L113.138 311.128L84.8542 339.412L56.5702 311.128Z" fill="white"/>
<path d="M56.5701 254.56L84.8541 226.276L113.138 254.56L84.8541 282.844L56.5701 254.56Z" fill="white"/>
<path d="M113.138 254.559L141.422 226.275L169.706 254.559L141.422 282.843L113.138 254.559Z" fill="white"/>
<path d="M113.138 311.128L141.422 282.844L169.706 311.128L141.422 339.412L113.138 311.128Z" fill="white"/>
<path d="M169.706 311.127L197.99 282.843L226.274 311.127L197.99 339.411L169.706 311.127Z" fill="white"/>
<path d="M169.706 254.559L197.99 226.275L226.274 254.559L197.99 282.843L169.706 254.559Z" fill="white"/>
<path d="M226.274 254.558L254.558 226.274L282.842 254.558L254.558 282.842L226.274 254.558Z" fill="white"/>
<path d="M226.274 311.127L254.558 282.843L282.842 311.127L254.558 339.411L226.274 311.127Z" fill="white"/>
<path d="M282.843 311.127L311.127 282.843L339.411 311.127L311.127 339.411L282.843 311.127Z" fill="white"/>
<path d="M282.843 254.558L311.127 226.274L339.411 254.558L311.127 282.842L282.843 254.558Z" fill="white"/>
<path d="M339.411 254.558L367.695 226.274L395.979 254.558L367.695 282.842L339.411 254.558Z" fill="white"/>
<path d="M339.411 311.127L367.695 282.843L395.979 311.127L367.695 339.411L339.411 311.127Z" fill="white"/>
<path d="M395.979 311.126L424.263 282.842L452.547 311.126L424.263 339.41L395.979 311.126Z" fill="white"/>
<path d="M395.979 254.557L424.263 226.273L452.547 254.557L424.263 282.841L395.979 254.557Z" fill="white"/>
<path d="M452.547 254.557L480.831 226.273L509.115 254.557L480.831 282.841L452.547 254.557Z" fill="white"/>
<path d="M452.547 311.126L480.831 282.842L509.115 311.126L480.831 339.41L452.547 311.126Z" fill="white"/>
<path d="M0.00177765 367.697L28.2858 339.413L56.5698 367.697L28.2858 395.981L0.00177765 367.697Z" fill="white"/>
<path d="M56.5702 367.697L84.8542 339.413L113.138 367.697L84.8542 395.981L56.5702 367.697Z" fill="white"/>
<path d="M113.138 367.696L141.422 339.412L169.706 367.696L141.422 395.98L113.138 367.696Z" fill="white"/>
<path d="M169.706 367.696L197.99 339.412L226.274 367.696L197.99 395.98L169.706 367.696Z" fill="white"/>
<path d="M226.274 367.695L254.558 339.411L282.842 367.695L254.558 395.979L226.274 367.695Z" fill="white"/>
<path d="M282.843 367.695L311.127 339.411L339.411 367.695L311.127 395.979L282.843 367.695Z" fill="white"/>
<path d="M339.411 367.695L367.695 339.411L395.979 367.695L367.695 395.979L339.411 367.695Z" fill="white"/>
<path d="M395.979 367.694L424.263 339.41L452.547 367.694L424.263 395.978L395.979 367.694Z" fill="white"/>
<path d="M452.547 367.694L480.831 339.41L509.115 367.694L480.831 395.978L452.547 367.694Z" fill="white"/>
<path d="M509.114 28.284L537.398 0L565.682 28.284L537.398 56.568L509.114 28.284Z" fill="white"/>
<path d="M509.114 84.8524L537.398 56.5684L565.682 84.8524L537.398 113.136L509.114 84.8524Z" fill="white"/>
<path d="M509.114 141.42L537.398 113.136L565.682 141.42L537.398 169.704L509.114 141.42Z" fill="white"/>
<path d="M509.114 197.989L537.398 169.705L565.682 197.989L537.398 226.273L509.114 197.989Z" fill="white"/>
<path d="M509.115 254.556L537.399 226.272L565.683 254.556L537.399 282.84L509.115 254.556Z" fill="white"/>
<path d="M509.115 311.125L537.399 282.841L565.683 311.125L537.399 339.409L509.115 311.125Z" fill="white"/>
<path d="M509.115 367.693L537.399 339.409L565.683 367.693L537.399 395.977L509.115 367.693Z" fill="white"/>
</g>
<defs>
<clipPath id="clip0_3_3">
<rect width="565.683" height="395.981" fill="white"/>
</clipPath>
</defs>
</svg>
