<svg version="1.1" xmlns="http://www.w3.org/2000/svg" xmlns:xlink="http://www.w3.org/1999/xlink" width="565.68331" height="395.9808"><g transform="translate(-0.0003,0.00383)"><g data-paper-data="{&quot;isPaintingLayer&quot;:true}" fill="#e39357" fill-rule="nonzero" stroke="none" stroke-width="1" stroke-linecap="butt" stroke-linejoin="miter" stroke-miterlimit="10" stroke-dasharray="" stroke-dashoffset="0" font-family="none" font-weight="none" font-size="none" text-anchor="none" style="mix-blend-mode: normal"><path d="M0.0003,28.28354l28.284,-28.284l28.284,28.284l-28.284,28.284z" id="XMLID_1_"/><path d="M0.00036,84.85198l28.284,-28.284l28.284,28.284l-28.284,28.284z" id="XMLID_3_"/><path d="M56.5688,84.85193l28.284,-28.284l28.284,28.284l-28.284,28.284z" id="XMLID_4_"/><path d="M56.56874,28.28348l28.284,-28.284l28.284,28.284l-28.284,28.284z" id="XMLID_5_"/><path d="M113.13658,28.28271l28.284,-28.284l28.284,28.284l-28.284,28.284z" id="XMLID_11_"/><path d="M113.13664,84.85116l28.284,-28.284l28.284,28.284l-28.284,28.284z" id="XMLID_10_"/><path d="M169.70508,84.85109l28.284,-28.284l28.284,28.284l-28.284,28.284z" id="XMLID_9_"/><path d="M169.70502,28.28265l28.284,-28.284l28.284,28.284l-28.284,28.284z" id="XMLID_8_"/><path d="M226.27275,28.28188l28.284,-28.284l28.284,28.284l-28.284,28.284z" id="XMLID_16_"/><path d="M226.27281,84.85032l28.284,-28.284l28.284,28.284l-28.284,28.284z" id="XMLID_15_"/><path d="M282.84135,84.85027l28.284,-28.284l28.284,28.284l-28.284,28.284z" id="XMLID_14_"/><path d="M282.84129,28.28182l28.284,-28.284l28.284,28.284l-28.284,28.284z" id="XMLID_13_"/><path d="M339.40973,28.28176l28.284,-28.284l28.284,28.284l-28.284,28.284z" id="XMLID_21_"/><path d="M339.40979,84.8502l28.284,-28.284l28.284,28.284l-28.284,28.284z" id="XMLID_20_"/><path d="M395.97762,84.84943l28.284,-28.284l28.284,28.284l-28.284,28.284z" id="XMLID_19_"/><path d="M395.97756,28.28099l28.284,-28.284l28.284,28.284l-28.284,28.284z" id="XMLID_18_"/><path d="M452.546,28.28093l28.284,-28.284l28.284,28.284l-28.284,28.284z" id="XMLID_26_"/><path d="M452.54606,84.84937l28.284,-28.284l28.284,28.284l-28.284,28.284z" id="XMLID_25_"/><g id="XMLID_45_"><path d="M0.00112,141.41982l28.284,-28.284l28.284,28.284l-28.284,28.284z" id="XMLID_49_"/><path d="M0.00119,197.98825l28.284,-28.284l28.284,28.284l-28.284,28.284z" id="XMLID_48_"/><path d="M56.56963,197.98821l28.284,-28.284l28.284,28.284l-28.284,28.284z" id="XMLID_47_"/><path d="M56.56957,141.41975l28.284,-28.284l28.284,28.284l-28.284,28.284z" id="XMLID_46_"/></g><g id="XMLID_40_"><path d="M113.1374,141.419l28.284,-28.284l28.284,28.284l-28.284,28.284z" id="XMLID_44_"/><path d="M113.13746,197.98742l28.284,-28.284l28.284,28.284l-28.284,28.284z" id="XMLID_43_"/><path d="M169.7059,197.98738l28.284,-28.284l28.284,28.284l-28.284,28.284z" id="XMLID_42_"/><path d="M169.70584,141.41893l28.284,-28.284l28.284,28.284l-28.284,28.284z" id="XMLID_41_"/></g><g id="XMLID_35_"><path d="M226.27358,141.41815l28.284,-28.284l28.284,28.284l-28.284,28.284z" id="XMLID_39_"/><path d="M226.27364,197.98661l28.284,-28.284l28.284,28.284l-28.284,28.284z" id="XMLID_38_"/><path d="M282.84218,197.98653l28.284,-28.284l28.284,28.284l-28.284,28.284z" id="XMLID_37_"/><path d="M282.84211,141.41811l28.284,-28.284l28.284,28.284l-28.284,28.284z" id="XMLID_36_"/></g><g id="XMLID_30_"><path d="M339.41056,141.41803l28.284,-28.284l28.284,28.284l-28.284,28.284z" id="XMLID_34_"/><path d="M339.41062,197.98649l28.284,-28.284l28.284,28.284l-28.284,28.284z" id="XMLID_33_"/><path d="M395.97845,197.98572l28.284,-28.284l28.284,28.284l-28.284,28.284z" id="XMLID_32_"/><path d="M395.97839,141.41726l28.284,-28.284l28.284,28.284l-28.284,28.284z" id="XMLID_31_"/></g><path d="M452.54683,141.41722l28.284,-28.284l28.284,28.284l-28.284,28.284z" id="XMLID_29_"/><path d="M452.54689,197.98565l28.284,-28.284l28.284,28.284l-28.284,28.284z" id="XMLID_28_"/><g id="XMLID_69_"><path d="M0.00196,254.556l28.284,-28.284l28.284,28.284l-28.284,28.284z" id="XMLID_73_"/><path d="M0.00202,311.12453l28.284,-28.284l28.284,28.284l-28.284,28.284z" id="XMLID_72_"/><path d="M56.57046,311.12447l28.284,-28.284l28.284,28.284l-28.284,28.284z" id="XMLID_71_"/><path d="M56.5704,254.55592l28.284,-28.284l28.284,28.284l-28.284,28.284z" id="XMLID_70_"/></g><g id="XMLID_64_"><path d="M113.13823,254.55517l28.284,-28.284l28.284,28.284l-28.284,28.284z" id="XMLID_68_"/><path d="M113.13829,311.1237l28.284,-28.284l28.284,28.284l-28.284,28.284z" id="XMLID_67_"/><path d="M169.70673,311.12365l28.284,-28.284l28.284,28.284l-28.284,28.284z" id="XMLID_66_"/><path d="M169.70667,254.55511l28.284,-28.284l28.284,28.284l-28.284,28.284z" id="XMLID_65_"/></g><g id="XMLID_59_"><path d="M226.2744,254.55433l28.284,-28.284l28.284,28.284l-28.284,28.284z" id="XMLID_63_"/><path d="M226.27446,311.12289l28.284,-28.284l28.284,28.284l-28.284,28.284z" id="XMLID_62_"/><path d="M282.843,311.12282l28.284,-28.284l28.284,28.284l-28.284,28.284z" id="XMLID_61_"/><path d="M282.84294,254.55429l28.284,-28.284l28.284,28.284l-28.284,28.284z" id="XMLID_60_"/></g><g id="XMLID_54_"><path d="M339.41138,254.55422l28.284,-28.284l28.284,28.284l-28.284,28.284z" id="XMLID_58_"/><path d="M339.41144,311.12277l28.284,-28.284l28.284,28.284l-28.284,28.284z" id="XMLID_57_"/><path d="M395.97928,311.12199l28.284,-28.284l28.284,28.284l-28.284,28.284z" id="XMLID_56_"/><path d="M395.97922,254.55346l28.284,-28.284l28.284,28.284l-28.284,28.284z" id="XMLID_55_"/></g><g id="XMLID_51_"><path d="M452.54766,254.5534l28.284,-28.284l28.284,28.284l-28.284,28.284z" id="XMLID_53_"/><path d="M452.54772,311.12194l28.284,-28.284l28.284,28.284l-28.284,28.284z" id="XMLID_52_"/></g><path d="M0.00208,367.69298l28.284,-28.284l28.284,28.284l-28.284,28.284z" id="XMLID_97_"/><path d="M56.57052,367.69292l28.284,-28.284l28.284,28.284l-28.284,28.284z" id="XMLID_94_"/><path d="M113.13835,367.69215l28.284,-28.284l28.284,28.284l-28.284,28.284z" id="XMLID_92_"/><path d="M169.70679,367.69209l28.284,-28.284l28.284,28.284l-28.284,28.284z" id="XMLID_89_"/><path d="M226.27452,367.69133l28.284,-28.284l28.284,28.284l-28.284,28.284z" id="XMLID_87_"/><path d="M282.84306,367.69127l28.284,-28.284l28.284,28.284l-28.284,28.284z" id="XMLID_84_"/><g id="XMLID_78_"><path d="M339.4115,367.69121l28.284,-28.284l28.284,28.284l-28.284,28.284z" id="XMLID_82_"/><path d="M395.97934,367.69044l28.284,-28.284l28.284,28.284l-28.284,28.284z" id="XMLID_79_"/></g><path d="M452.54778,367.69037l28.284,-28.284l28.284,28.284l-28.284,28.284z" id="XMLID_77_"/><path d="M509.11383,28.28017l28.284,-28.284l28.284,28.284l-28.284,28.284z" id="XMLID_50_"/><path d="M509.11389,84.84861l28.284,-28.284l28.284,28.284l-28.284,28.284z" id="XMLID_27_"/><path d="M509.11466,141.41644l28.284,-28.284l28.284,28.284l-28.284,28.284z" id="XMLID_24_"/><path d="M509.11472,197.9849l28.284,-28.284l28.284,28.284l-28.284,28.284z" id="XMLID_23_"/><g id="XMLID_12_"><path d="M509.11549,254.55261l28.284,-28.284l28.284,28.284l-28.284,28.284z" id="XMLID_22_"/><path d="M509.11555,311.12116l28.284,-28.284l28.284,28.284l-28.284,28.284z" id="XMLID_17_"/></g><path d="M509.11561,367.68961l28.284,-28.284l28.284,28.284l-28.284,28.284z" id="XMLID_7_"/></g></g></svg>